<svg id="Group_970" data-name="Group 970" xmlns="http://www.w3.org/2000/svg" width="14.343" height="14.601" viewBox="0 0 14.343 14.601">
  <ellipse id="Ellipse_235" data-name="Ellipse 235" cx="6.597" cy="6.594" rx="6.597" ry="6.594" transform="translate(0.972 0.883)" fill="#30e288" opacity="0.9"/>
  <ellipse id="Ellipse_236" data-name="Ellipse 236" cx="6.796" cy="6.793" rx="6.796" ry="6.793" transform="translate(0 1.016)" fill="#12e3ce" opacity="0.5"/>
  <ellipse id="Ellipse_237" data-name="Ellipse 237" cx="6.796" cy="6.793" rx="6.796" ry="6.793" transform="translate(0.177 0.177)" fill="#17bdba" opacity="0.5"/>
  <ellipse id="Ellipse_238" data-name="Ellipse 238" cx="6.796" cy="6.793" rx="6.796" ry="6.793" transform="translate(0.751 0)" fill="#30e288" opacity="0.4"/>
  <ellipse id="Ellipse_239" data-name="Ellipse 239" cx="6.01" cy="6.007" rx="6.01" ry="6.007" transform="translate(1.265 1.22)" fill="#fff"/>
  <g id="Group_392" data-name="Group 392" transform="translate(3.228 3.317)">
    <path id="Path_197" data-name="Path 197" d="M2053.888,1981.95a.951.951,0,0,0-1.226-.1,2.143,2.143,0,0,1-2.186.193.083.083,0,0,0-.119.074v.854a3.348,3.348,0,0,1-1.25-2.507c-.036-2.4,2.159-3.215,3.544-2.245a1.017,1.017,0,0,0,1.3-.114l.438-.438a.247.247,0,0,0,.007-.34,4.064,4.064,0,0,0-2.938-1.342h-.157a4.034,4.034,0,0,0-2.266.754,4.051,4.051,0,0,0,1.8,7.314,4.049,4.049,0,0,0,3.542-1.284.245.245,0,0,0-.008-.339Z" transform="translate(-2047.325 -1975.984)" fill="#72bd44"/>
    <path id="Path_198" data-name="Path 198" d="M2153.709,2049.74a.462.462,0,1,1,.435-.308A.462.462,0,0,1,2153.709,2049.74Z" transform="translate(-2148.567 -2045.601)" fill="#35d188"/>
    <path id="Path_199" data-name="Path 199" d="M2052.893,2005.664a3.634,3.634,0,0,1-2.066,2.328,4.051,4.051,0,0,1-2.351-6.842,3.551,3.551,0,0,1,.52-.1,3.631,3.631,0,0,1,2.61.718c-2.394-.255-3.583,3.111-1.257,5.139v-.854a.083.083,0,0,1,.119-.074,2.141,2.141,0,0,0,2.186-.193A.965.965,0,0,1,2052.893,2005.664Z" transform="translate(-2047.318 -1999.923)" fill="#17bdba"/>
    <path id="Path_200" data-name="Path 200" d="M2090.656,1977.667l-.438.438a1.017,1.017,0,0,1-1.3.114,2.218,2.218,0,0,0-3.208.745,3.605,3.605,0,0,1-.442-1.735c0-.038,0-.077,0-.115a3.631,3.631,0,0,1,.031-.375,4.036,4.036,0,0,1,2.266-.754h.158a4.065,4.065,0,0,1,2.938,1.342A.246.246,0,0,1,2090.656,1977.667Z" transform="translate(-2083.591 -1975.984)" fill="#30e288"/>
    <path id="Path_201" data-name="Path 201" d="M2119.968,2105.858a4.042,4.042,0,0,1-2.086,1.219,3.638,3.638,0,0,1-1.933-1.821v-.05a.083.083,0,0,1,.119-.074,2.142,2.142,0,0,0,2.186-.194.951.951,0,0,1,1.226.1l.48.48A.244.244,0,0,1,2119.968,2105.858Z" transform="translate(-2112.916 -2099.073)" fill="#35d188"/>
    <path id="Path_202" data-name="Path 202" d="M2138.108,1999.7a3.621,3.621,0,0,1,2.757-.8,4.084,4.084,0,0,1,.3.3.247.247,0,0,1-.007.34l-.438.438a1.017,1.017,0,0,1-1.3.113A2.217,2.217,0,0,0,2138.108,1999.7Z" transform="translate(-2134.096 -1997.864)" fill="#35d188"/>
    <path id="Path_203" data-name="Path 203" d="M2079.972,2124.05a4.054,4.054,0,0,1-4.534-.754,3.6,3.6,0,0,1,1.329-.45,4.268,4.268,0,0,0,.461.466v-.5A3.628,3.628,0,0,1,2079.972,2124.05Z" transform="translate(-2074.196 -2116.326)" fill="#12e3ce"/>
    <path id="Path_204" data-name="Path 204" d="M2110.353,2048.916l-.006,0c-.012.009-.024.019-.035.029h0c-.012.012-.024.024-.035.037l-.009.01-.026.035,0,.007c-.009.014-.018.028-.025.043l-.005.011c-.006.012-.011.025-.016.038l0,.007h0a.462.462,0,0,0,.028.375h0a.461.461,0,1,0,.138-.6Z" transform="translate(-2107.383 -2045.613)" fill="#35d188"/>
    <path id="Path_205" data-name="Path 205" d="M2051.292,1977.839a2.3,2.3,0,0,0-2.108,2.3,3.633,3.633,0,0,1-1.779.24,4.067,4.067,0,0,1,3.961-4.379A3.642,3.642,0,0,1,2051.292,1977.839Z" transform="translate(-2047.39 -1975.998)" fill="#35d188"/>
  </g>
</svg>
