<svg xmlns="http://www.w3.org/2000/svg" width="17.5" height="17.5" viewBox="0 0 17.5 17.5">
  <g id="headphones_1_" data-name="headphones (1)" transform="translate(-2.25 -2.25)">
    <path id="Path_48396" data-name="Path 48396" d="M3,16V10.8A7.9,7.9,0,0,1,11,3a7.9,7.9,0,0,1,8,7.8V16" fill="none" stroke="#00424f" stroke-linecap="round" stroke-linejoin="round" stroke-width="1.5"/>
    <path id="Path_48397" data-name="Path 48397" d="M19,19a1.9,1.9,0,0,1-1.778,2h-.889a1.9,1.9,0,0,1-1.778-2V16a1.9,1.9,0,0,1,1.778-2H19ZM3,19a1.9,1.9,0,0,0,1.778,2h.889a1.9,1.9,0,0,0,1.778-2V16a1.9,1.9,0,0,0-1.778-2H3Z" transform="translate(0 -2)" fill="none" stroke="#00424f" stroke-linecap="round" stroke-linejoin="round" stroke-width="1.5"/>
  </g>
</svg>
