<svg xmlns="http://www.w3.org/2000/svg" width="12.561" height="15.534" viewBox="0 0 12.561 15.534">
  <g id="noun-tablet-1055704" transform="translate(0.25 0.25)" opacity="0.996">
    <path id="Path_46416" data-name="Path 46416" d="M170.228,41.836H159.955a.894.894,0,0,0-.894.893V55.976a.894.894,0,0,0,.894.893h10.273a.894.894,0,0,0,.894-.893V42.729A.894.894,0,0,0,170.228,41.836Zm-4.091,14.339a.175.175,0,0,1-.175.175h-1.736a.175.175,0,0,1-.175-.175v-.284a.175.175,0,0,1,.175-.175h1.736a.175.175,0,0,1,.175.175Zm4.744-1H159.306v-11.7h11.575Z" transform="translate(-159.061 -41.836)" fill="#fff" stroke="#fff" stroke-width="0.5"/>
  </g>
</svg>
