<svg xmlns="http://www.w3.org/2000/svg" width="22.59" height="14.924" viewBox="0 0 22.59 14.924">
  <g id="noun-laptop-1759565" transform="translate(0.5 0.5)">
    <path id="Path_46415" data-name="Path 46415" d="M95.213,106.4a1.381,1.381,0,0,0-1.408,1.348v9.881H92.631a.23.23,0,0,0-.235.225v.9a1.61,1.61,0,0,0,1.643,1.572h18.3a1.61,1.61,0,0,0,1.643-1.572v-.9a.239.239,0,0,0-.235-.225h-1.173v-9.881a1.381,1.381,0,0,0-1.408-1.348Zm0,.449H111.17a.912.912,0,0,1,.939.9v.449H94.274v-.449a.912.912,0,0,1,.939-.9Zm-.939,1.8h17.835v8.983H94.274Zm-1.408,9.432h20.651v.674a1.141,1.141,0,0,1-1.173,1.123h-18.3a1.141,1.141,0,0,1-1.173-1.123Z" transform="translate(-92.396 -106.4)" fill="none" stroke="#fff" stroke-width="1"/>
  </g>
</svg>
