<svg xmlns="http://www.w3.org/2000/svg" xmlns:xlink="http://www.w3.org/1999/xlink" width="178.5" height="145.263" viewBox="0 0 178.5 145.263">
  <defs>
    <filter id="Path_48395" x="0" y="0.001" width="116.582" height="145.262" filterUnits="userSpaceOnUse">
      <feOffset dy="3" input="SourceAlpha"/>
      <feGaussianBlur stdDeviation="12" result="blur"/>
      <feFlood flood-color="#00434f" flood-opacity="0.384"/>
      <feComposite operator="in" in2="blur"/>
      <feComposite in="SourceGraphic"/>
    </filter>
    <filter id="Path_48396" x="61.919" y="0" width="116.581" height="145.263" filterUnits="userSpaceOnUse">
      <feOffset dy="3" input="SourceAlpha"/>
      <feGaussianBlur stdDeviation="12" result="blur-2"/>
      <feFlood flood-color="#00434f" flood-opacity="0.384"/>
      <feComposite operator="in" in2="blur-2"/>
      <feComposite in="SourceGraphic"/>
    </filter>
  </defs>
  <g id="noun-quote-648267" transform="translate(36 32.999)">
    <g transform="matrix(1, 0, 0, 1, -36, -33)" filter="url(#Path_48395)">
      <path id="Path_48395-2" data-name="Path 48395" d="M398.541,222.012A22.291,22.291,0,1,0,383.848,183c3.98-12.825,12.112-24.243,21.959-29.6a2.475,2.475,0,1,0-2.367-4.346c-15.5,8.43-27.19,30.214-27.19,50.667a22.316,22.316,0,0,0,22.291,22.291Z" transform="translate(-340.25 -115.75)" fill="#38d189"/>
    </g>
    <g transform="matrix(1, 0, 0, 1, -36, -33)" filter="url(#Path_48396)">
      <path id="Path_48396-2" data-name="Path 48396" d="M179.79,222.009A22.291,22.291,0,1,0,165.1,183c3.98-12.825,12.112-24.245,21.961-29.605a2.475,2.475,0,1,0-2.367-4.346c-15.5,8.431-27.192,30.214-27.192,50.67a22.318,22.318,0,0,0,22.291,22.291Z" transform="translate(-59.58 -115.75)" fill="#38d189"/>
    </g>
  </g>
</svg>
