<svg xmlns="http://www.w3.org/2000/svg" width="22.584" height="15.543" viewBox="0 0 22.584 15.543">
  <g id="noun-laptop-1759565" transform="translate(0.5 0.5)">
    <path id="Path_46415" data-name="Path 46415" d="M95.212,106.4a1.41,1.41,0,0,0-1.408,1.407v10.321H92.631a.235.235,0,0,0-.235.235v.938a1.644,1.644,0,0,0,1.642,1.642h18.3a1.644,1.644,0,0,0,1.642-1.642v-.938a.244.244,0,0,0-.235-.235h-1.173V107.807a1.41,1.41,0,0,0-1.408-1.407Zm0,.469h15.954a.931.931,0,0,1,.938.938v.469H94.273v-.469a.931.931,0,0,1,.938-.938Zm-.938,1.877H112.1v9.382H94.274ZM92.866,118.6h20.646v.7a1.165,1.165,0,0,1-1.173,1.173h-18.3a1.165,1.165,0,0,1-1.173-1.173Z" transform="translate(-92.396 -106.4)" fill="none" stroke="#fff" stroke-width="1"/>
  </g>
</svg>
