<svg xmlns="http://www.w3.org/2000/svg" width="14.803" height="14.8" viewBox="0 0 14.803 14.8">
  <path id="message-circle" d="M15.8,9.044a5.958,5.958,0,0,1-.64,2.7,6.046,6.046,0,0,1-5.406,3.342,5.962,5.962,0,0,1-2.7-.64L3,15.8l1.351-4.053a5.958,5.958,0,0,1-.64-2.7,6.044,6.044,0,0,1,3.343-5.4A5.962,5.962,0,0,1,9.757,3h.356A6.031,6.031,0,0,1,15.8,8.689Z" transform="translate(-2 -2)" fill="none" stroke="#1e1e1e" stroke-linecap="round" stroke-linejoin="round" stroke-width="2" opacity="0.6"/>
</svg>
