<svg xmlns="http://www.w3.org/2000/svg" xmlns:xlink="http://www.w3.org/1999/xlink" width="266" height="185" viewBox="0 0 266 185">
  <defs>
    <filter id="Rectangle_1887" x="0" y="79" width="266" height="106" filterUnits="userSpaceOnUse">
      <feOffset dy="3" input="SourceAlpha"/>
      <feGaussianBlur stdDeviation="1.5" result="blur"/>
      <feFlood flood-opacity="0.027"/>
      <feComposite operator="in" in2="blur"/>
      <feComposite in="SourceGraphic"/>
    </filter>
    <filter id="Rectangle_10385" x="0" y="0" width="266" height="70" filterUnits="userSpaceOnUse">
      <feOffset dy="3" input="SourceAlpha"/>
      <feGaussianBlur stdDeviation="1.5" result="blur-2"/>
      <feFlood flood-opacity="0.027"/>
      <feComposite operator="in" in2="blur-2"/>
      <feComposite in="SourceGraphic"/>
    </filter>
  </defs>
  <g id="Group_20934" data-name="Group 20934" transform="translate(-464.5 -444.5)">
    <g transform="matrix(1, 0, 0, 1, 464.5, 444.5)" filter="url(#Rectangle_1887)">
      <rect id="Rectangle_1887-2" data-name="Rectangle 1887" width="257" height="97" rx="10" transform="translate(4.5 80.5)" fill="#edf2fd"/>
    </g>
    <text id="How_can_I_help_you_" data-name="How can I help you?" transform="translate(476 532)" fill="#4a4a4a" font-size="13" font-family="Nunito-SemiBold, Nunito" font-weight="600"><tspan x="0" y="13">How can I help you?</tspan></text>
    <g transform="matrix(1, 0, 0, 1, 464.5, 444.5)" filter="url(#Rectangle_10385)">
      <rect id="Rectangle_10385-2" data-name="Rectangle 10385" width="257" height="61" rx="10" transform="translate(4.5 1.5)" fill="#edf2fd"/>
    </g>
    <text id="Hey_there_Welcome_to_virtual_assistant._" data-name="Hey there!
Welcome to virtual assistant.
" transform="translate(545 456)" fill="#4a4a4a" font-size="13" font-family="Nunito-SemiBold, Nunito" font-weight="600"><tspan x="0" y="13">Hey there!</tspan><tspan x="0" y="33">Welcome to virtual assistant.</tspan></text>
    <g id="Group_1140" data-name="Group 1140" transform="translate(476.154 561.082)">
      <g id="Rectangle_1887-3" data-name="Rectangle 1887" transform="translate(-0.154 -0.082)" fill="#fff" stroke="#9292f5" stroke-width="1">
        <rect width="74" height="49" rx="10" stroke="none"/>
        <rect x="0.5" y="0.5" width="73" height="48" rx="9.5" fill="none"/>
      </g>
      <text id="Talk_to_Agent" data-name="Talk to Agent" transform="translate(3.846 39.918)" fill="#4a4a4a" font-size="10" font-family="Roboto-Regular, Roboto"><tspan x="0" y="0">Talk to Agent</tspan></text>
    </g>
    <g id="Group_1140-2" data-name="Group 1140" transform="translate(559.963 561.082)">
      <g id="Rectangle_1887-4" data-name="Rectangle 1887" transform="translate(0.037 -0.082)" fill="#fff" stroke="#9292f5" stroke-width="1">
        <rect width="75" height="49" rx="10" stroke="none"/>
        <rect x="0.5" y="0.5" width="74" height="48" rx="9.5" fill="none"/>
      </g>
      <text id="Book_a_Demo" data-name="Book a Demo" transform="translate(5.037 40.918)" fill="#4a4a4a" font-size="10" font-family="Roboto-Regular, Roboto"><tspan x="0" y="0">Book a Demo</tspan></text>
    </g>
    <g id="Group_1140-3" data-name="Group 1140" transform="translate(644.791 561.082)">
      <g id="Rectangle_1887-5" data-name="Rectangle 1887" transform="translate(0.209 -0.082)" fill="#fff" stroke="#9292f5" stroke-width="1">
        <rect width="73" height="49" rx="10" stroke="none"/>
        <rect x="0.5" y="0.5" width="72" height="48" rx="9.5" fill="none"/>
      </g>
      <text id="Learn_more" data-name="Learn more" transform="translate(9.209 40.918)" fill="#4a4a4a" font-size="10" font-family="Roboto-Regular, Roboto"><tspan x="0" y="0">Learn more</tspan></text>
    </g>
    <path id="chatbox-ellipses" d="M21.243,3.375H5.887A3.641,3.641,0,0,0,2.25,7.012v9.7a3.641,3.641,0,0,0,3.637,3.637H7.1v3.233a.808.808,0,0,0,1.326.621l4.621-3.854h8.2A3.641,3.641,0,0,0,24.88,16.71v-9.7a3.641,3.641,0,0,0-3.637-3.637ZM8.716,13.478a1.616,1.616,0,1,1,1.616-1.616A1.616,1.616,0,0,1,8.716,13.478Zm4.849,0a1.616,1.616,0,1,1,1.616-1.616A1.616,1.616,0,0,1,13.565,13.478Zm4.849,0a1.616,1.616,0,1,1,1.616-1.616A1.616,1.616,0,0,1,18.414,13.478Z" transform="translate(498.348 565.176)" fill="#9292f5"/>
    <path id="calendar" d="M20.183,3.745h-.747V3.019a.762.762,0,0,0-.711-.767A.747.747,0,0,0,17.942,3v.747H7.481V3.019a.762.762,0,0,0-.711-.767A.747.747,0,0,0,5.986,3v.747H5.239A2.989,2.989,0,0,0,2.25,6.734v13.45a2.989,2.989,0,0,0,2.989,2.989H20.183a2.989,2.989,0,0,0,2.989-2.989V6.734A2.989,2.989,0,0,0,20.183,3.745ZM7.107,20.184a1.121,1.121,0,1,1,1.121-1.121A1.121,1.121,0,0,1,7.107,20.184Zm0-3.736a1.121,1.121,0,1,1,1.121-1.121A1.121,1.121,0,0,1,7.107,16.448Zm3.736,3.736a1.121,1.121,0,1,1,1.121-1.121A1.121,1.121,0,0,1,10.843,20.184Zm0-3.736a1.121,1.121,0,1,1,1.121-1.121A1.121,1.121,0,0,1,10.843,16.448Zm3.736,3.736A1.121,1.121,0,1,1,15.7,19.063,1.121,1.121,0,0,1,14.58,20.184Zm0-3.736A1.121,1.121,0,1,1,15.7,15.326,1.121,1.121,0,0,1,14.58,16.448Zm0-3.736A1.121,1.121,0,1,1,15.7,11.59,1.121,1.121,0,0,1,14.58,12.711Zm3.736,3.736a1.121,1.121,0,1,1,1.121-1.121A1.121,1.121,0,0,1,18.316,16.448Zm0-3.736a1.121,1.121,0,1,1,1.121-1.121A1.121,1.121,0,0,1,18.316,12.711Zm3.363-5.6v.747a.374.374,0,0,1-.374.374H4.118a.374.374,0,0,1-.374-.374V6.733A1.5,1.5,0,0,1,5.239,5.238H20.183a1.5,1.5,0,0,1,1.494,1.494Z" transform="translate(583.957 565.113)" fill="#9292f5"/>
    <path id="help-buoy-sharp" d="M13.138,2.25A10.888,10.888,0,1,0,24.026,13.138,10.889,10.889,0,0,0,13.138,2.25ZM10.027,13.138a3.111,3.111,0,1,1,3.111,3.111A3.111,3.111,0,0,1,10.027,13.138ZM21.559,10.11l-4.2.257a5.1,5.1,0,0,0-1.452-1.452l.254-4.2a8.993,8.993,0,0,1,5.4,5.4ZM6.814,6.813a8.917,8.917,0,0,1,3.3-2.1l.257,4.2a5.1,5.1,0,0,0-1.455,1.455l-4.2-.254a8.917,8.917,0,0,1,2.1-3.3Zm-2.1,9.352,4.2-.254a5.1,5.1,0,0,0,1.454,1.452l-.254,4.2a8.993,8.993,0,0,1-5.4-5.393Zm14.745,3.3a8.917,8.917,0,0,1-3.3,2.1l-.254-4.2a5.1,5.1,0,0,0,1.452-1.452l4.2.254A8.917,8.917,0,0,1,19.462,19.462Z" transform="translate(668.715 565.066)" fill="#9292f5"/>
    <g id="freepik--character-1--inject-9" transform="translate(481.271 452.215)" style="mix-blend-mode: normal;isolation: isolate">
      <path id="Path_2088" data-name="Path 2088" d="M276.967,200.738c.7-.822,1.152-4.172,2.058-3.983,1.157.238-.468,3.806-.581,4.133s.494.452.576.154c.116-.429,1.411-4.62,2.538-4.3.626.179.224,1.066.224,1.066s-1.833,4.077-1.294,4.213,1.585-2.241,1.941-3.081c.335-.807.893-1.037,1.278-.659s-.584,2.814-.9,3.636-1.241,3.034.365,2.2a6.145,6.145,0,0,1,3.714-.822c.478.189.3.77-.288.846a8.439,8.439,0,0,0-1.791.59,6.978,6.978,0,0,0-1.228.746,5.071,5.071,0,0,0-1.223,1.22,3.8,3.8,0,0,1-2.462,1.419h0l-.483,1.534-5.491-1.59.914-2.9a22.6,22.6,0,0,0,.919-5.172c.264-2.19.634-2.179.954-2.1C277.406,198.057,276.286,201.533,276.967,200.738Z" transform="translate(-267.694 -184.639)" fill="#ffbe9d"/>
      <path id="Path_2089" data-name="Path 2089" d="M300.38,230a6.52,6.52,0,0,1,.721.314,2.531,2.531,0,0,1,1.136,1.232,1.78,1.78,0,0,1,.116.458v.074l.085-.031a5.916,5.916,0,0,1,1.516-.314c.394-.031.631-.021.634-.035a2.488,2.488,0,0,0-.639-.033,5.409,5.409,0,0,0-1.566.288l.1.043a1.851,1.851,0,0,0-.119-.483,2.26,2.26,0,0,0-.528-.772,2.817,2.817,0,0,0-.681-.481,3.177,3.177,0,0,0-.555-.205A.762.762,0,0,0,300.38,230Z" transform="translate(-292.11 -211.079)" fill="#eb996e"/>
      <path id="Path_2090" data-name="Path 2090" d="M307.3,245.8a5.779,5.779,0,0,0,2.689.861c0-.031-.634-.136-1.376-.378S307.324,245.776,307.3,245.8Z" transform="translate(-299.339 -223.634)" fill="#eb996e"/>
      <path id="Path_2091" data-name="Path 2091" d="M167.292,261.508a6.946,6.946,0,0,0,3.283-1.076l8.862-5.826-.079,6.715-1.757.1.494,4.994h27.436v-.119a7.2,7.2,0,0,0,3.093-4.64c.668-3.324.917-8.74,1.514-12.569.417-2.7-.346-6.185-3.434-7.459l-2.377-.729h0l-7.5-2.3-9.631.345-6.429,1.4c-1.783.526-3.32,2.188-4.416,3.412l-5.359,5.8a57.538,57.538,0,0,1,2.422-6.918l-6.551-2.11s-6.759,11.68-5.851,16.727C161.775,261.463,167.292,261.508,167.292,261.508Z" transform="translate(-160.932 -217.913)" fill="#32e0a1"/>
      <path id="Path_2092" data-name="Path 2092" d="M282.09,287.6c0-.031-.6.031-1.537-.076a7.95,7.95,0,0,1-3.281-1.087,4.46,4.46,0,0,1-1.849-2.163,6.851,6.851,0,0,1-.23-1.048.6.6,0,0,0-.04.288,2.574,2.574,0,0,0,.119.785,4.211,4.211,0,0,0,1.849,2.249,7.753,7.753,0,0,0,3.4,1.083,7.99,7.99,0,0,0,1.149.019A1.989,1.989,0,0,0,282.09,287.6Z" transform="translate(-262.948 -253.375)" fill="#fff"/>
      <path id="Path_2093" data-name="Path 2093" d="M277.723,300.823c-.066,0-.14-2.829-.169-6.314s0-6.316.063-6.319.137,2.827.169,6.314S277.787,300.821,277.723,300.823Z" transform="translate(-259.289 -257.316)" fill="#455a64"/>
      <path id="Path_2094" data-name="Path 2094" d="M195.021,348.122a1.6,1.6,0,0,0-.3-.684,5.5,5.5,0,0,0-3.339-2.216,2.994,2.994,0,0,0-.914-.123c0,.027.338.08.861.236a6.215,6.215,0,0,1,3.254,2.161C194.865,347.873,194.987,348.13,195.021,348.122Z" transform="translate(-153.512 -302.534)" fill="#455a64"/>
      <path id="Path_2095" data-name="Path 2095" d="M220.283,265.33a.682.682,0,0,0-.106.035l-.293.121a11.712,11.712,0,0,1-1.175.386,11.841,11.841,0,0,1-4.615.308,9.744,9.744,0,0,1-5.734-2.777,5.259,5.259,0,0,1-1.5-2.9,3.127,3.127,0,0,1,.219-1.643,3.369,3.369,0,0,1,1.186-1.409,4.057,4.057,0,0,1,1.934-.731,2.775,2.775,0,0,1,1.936.423.881.881,0,0,1,.378.682,1.042,1.042,0,0,1-.317.7,2.755,2.755,0,0,1-1.675.68,8.53,8.53,0,0,1-3.6-.4,5.9,5.9,0,0,1-3.79-3.287,4.419,4.419,0,0,1-.314-1.541,4.663,4.663,0,0,1,.092-.988c.024-.1.045-.187.061-.253a.208.208,0,0,0,.013-.088,3.3,3.3,0,0,0-.264,1.329,4.334,4.334,0,0,0,.28,1.567,5.051,5.051,0,0,0,1.236,1.861,8.149,8.149,0,0,0,6.3,1.964,2.977,2.977,0,0,0,1.815-.737,1.18,1.18,0,0,0,.362-.8,1.028,1.028,0,0,0-.428-.8,3.028,3.028,0,0,0-2.113-.472,4.325,4.325,0,0,0-2.052.772,3.556,3.556,0,0,0-1.247,1.483,3.238,3.238,0,0,0-.225,1.711,5.363,5.363,0,0,0,1.553,2.976c2.412,2.559,6.722,3.554,10.539,2.434A7.582,7.582,0,0,0,220.283,265.33Z" transform="translate(-182.01 -229.077)" fill="#fff"/>
      <path id="Path_2096" data-name="Path 2096" d="M171.829,291.087a1.236,1.236,0,0,0-.264-.261,5.748,5.748,0,0,0-.888-.6,8.894,8.894,0,0,0-3.642-1,9.058,9.058,0,0,0-2.145.07,7.857,7.857,0,0,0-1.654.452,8.044,8.044,0,0,0-1.006.477,1.557,1.557,0,0,0-.33.216c.024.029.528-.261,1.4-.581a8.676,8.676,0,0,1,3.7-.462,9.448,9.448,0,0,1,3.576.933C171.4,290.746,171.8,291.112,171.829,291.087Z" transform="translate(-122.773 -258.108)" fill="#fff"/>
      <path id="Path_2097" data-name="Path 2097" d="M179.891,245.812a6.91,6.91,0,0,1-1.321.754,5.88,5.88,0,0,1-1.7.386,4.892,4.892,0,0,1-3.835-1.232,3.605,3.605,0,0,1-.848-1.2,4.2,4.2,0,0,1-.264-1.265.827.827,0,0,0-.055.347,2.461,2.461,0,0,0,.164.953,3.452,3.452,0,0,0,.84,1.269,4.984,4.984,0,0,0,4.01,1.282,5.656,5.656,0,0,0,1.746-.435,4.14,4.14,0,0,0,.983-.583A1.167,1.167,0,0,0,179.891,245.812Z" transform="translate(-133.469 -221.607)" fill="#fff"/>
      <path id="Path_2098" data-name="Path 2098" d="M238.386,323.481a1.039,1.039,0,0,0-.034-.242,2.248,2.248,0,0,0-.291-.663,4.5,4.5,0,0,0-2.464-1.664,9.449,9.449,0,0,0-4.839-.133,5.118,5.118,0,0,0-2.523,1.109.978.978,0,0,0-.185,1.2,2.29,2.29,0,0,0,1.173.861,4.611,4.611,0,0,0,1.558.3,2.742,2.742,0,0,0,1.5-.362,1.4,1.4,0,0,0,.671-1.056,2.1,2.1,0,0,0-.225-1.107,5.866,5.866,0,0,0-3.392-2.67,8.388,8.388,0,0,0-3.238-.431,5.7,5.7,0,0,0-1.183.193c0,.023.42-.086,1.189-.127a8.494,8.494,0,0,1,3.17.477,6.967,6.967,0,0,1,1.849.976,4.738,4.738,0,0,1,1.418,1.643,2.013,2.013,0,0,1,.206,1.041,1.248,1.248,0,0,1-.6.939,2.5,2.5,0,0,1-1.358.32,4.379,4.379,0,0,1-1.463-.284,2.137,2.137,0,0,1-1.072-.779.844.844,0,0,1,.161-1.027,3.09,3.09,0,0,1,1.1-.68,9.241,9.241,0,0,1,1.3-.376,8.93,8.93,0,0,1,4.723.095,4.6,4.6,0,0,1,2.449,1.582A3.277,3.277,0,0,1,238.386,323.481Z" transform="translate(-205.974 -281.488)" fill="#fff"/>
      <path id="Path_2099" data-name="Path 2099" d="M174.142,326.751a.875.875,0,0,0-.2-.062c-.132-.035-.33-.082-.586-.131a9.092,9.092,0,0,0-2.243-.179,5.848,5.848,0,0,0-1.524.294,3.523,3.523,0,0,0-1.424.869,1.918,1.918,0,0,0-.552,1.491,1.543,1.543,0,0,0,.317.8,1.6,1.6,0,0,0,.861.561,1.392,1.392,0,0,0,1.112-.17,1.026,1.026,0,0,0,.4-.8,2.783,2.783,0,0,0-.386-1.522,4.011,4.011,0,0,0-2.4-1.771,5.518,5.518,0,0,0-2.24-.173,4.342,4.342,0,0,0-.594.117.9.9,0,0,0-.2.068c0,.016.283-.07.792-.119a5.622,5.622,0,0,1,2.169.22,3.858,3.858,0,0,1,2.272,1.721,2.665,2.665,0,0,1,.359,1.45.879.879,0,0,1-.32.684,1.136,1.136,0,0,1-.9.131,1.4,1.4,0,0,1-.742-.489,1.43,1.43,0,0,1-.3-.725,1.8,1.8,0,0,1,.5-1.387,3.346,3.346,0,0,1,1.321-.822,5.745,5.745,0,0,1,1.463-.3,9.766,9.766,0,0,1,2.208.121C173.854,326.708,174.136,326.768,174.142,326.751Z" transform="translate(-125.77 -287.289)" fill="#fff"/>
      <path id="Path_2100" data-name="Path 2100" d="M307.61,293.831a.581.581,0,0,0,.111-.074q.153-.11.291-.232a5.041,5.041,0,0,0,.864-.984,5.837,5.837,0,0,0,.769-1.662,9.357,9.357,0,0,0,.33-2.142c.04-.766,0-1.5.032-2.157a11.742,11.742,0,0,1,.246-1.746c.1-.5.2-.891.264-1.167.034-.127.061-.232.082-.316a.327.327,0,0,0,.021-.111.321.321,0,0,0-.048.107c-.026.07-.063.175-.106.312-.09.271-.206.668-.32,1.161a10.593,10.593,0,0,0-.264,1.754c-.032.666,0,1.393-.042,2.157a9.5,9.5,0,0,1-.312,2.13,6.021,6.021,0,0,1-.732,1.643,5.454,5.454,0,0,1-.816.992C307.75,293.714,307.61,293.823,307.61,293.831Z" transform="translate(-300.051 -253.383)" fill="#455a64"/>
      <path id="Path_2101" data-name="Path 2101" d="M302.57,328.72a10,10,0,0,1,3.019,1.867,1.475,1.475,0,0,0-.32-.372,5.939,5.939,0,0,0-.988-.76,6.78,6.78,0,0,0-1.175-.577A2.214,2.214,0,0,0,302.57,328.72Z" transform="translate(-293.69 -289.521)" fill="#fff"/>
      <path id="Path_2102" data-name="Path 2102" d="M311.65,298.45a2.806,2.806,0,0,0,.359.113c.232.062.573.15.985.273a17.753,17.753,0,0,1,3.064,1.208,26.3,26.3,0,0,1,2.678,1.689,2.87,2.87,0,0,0,.9.421,1.262,1.262,0,0,0,.285.037h.1q-.187-.028-.37-.07a3.031,3.031,0,0,1-.858-.442,21.652,21.652,0,0,0-2.665-1.717,15.708,15.708,0,0,0-3.1-1.193c-.417-.115-.763-.193-1-.242A2.36,2.36,0,0,0,311.65,298.45Z" transform="translate(-310.525 -265.469)" fill="#fff"/>
      <path id="Path_2103" data-name="Path 2103" d="M306.39,267.725a1.33,1.33,0,0,0,.283.041l.774.09c.652.078,1.551.205,2.536.366s1.867.343,2.493.5.993.3,1,.283a1.1,1.1,0,0,0-.248-.117q-.353-.134-.724-.238a23.757,23.757,0,0,0-2.5-.536c-.988-.164-1.894-.277-2.552-.337-.33-.029-.6-.047-.792-.055A1.482,1.482,0,0,0,306.39,267.725Z" transform="translate(-302.59 -241.05)" fill="#fff"/>
      <path id="Path_2104" data-name="Path 2104" d="M193.01,138.824c1.669-.351,3.341.846,5.05.633a11.276,11.276,0,0,0,2.776-1.124,6.6,6.6,0,0,1,4.715-.016c1.376.6,2.253,1.2,2.377,2.422,1.3-.536,3.37.768,4.041,1.99a4.32,4.32,0,0,1-.029,3.741,16.556,16.556,0,0,1-4,6.074c-.161.158-.417.333-.647.24a.414.414,0,0,1-.23-.362,11.484,11.484,0,0,1,.235-3.572,6.968,6.968,0,0,0-.132-3.558,4.03,4.03,0,0,0-3.027-2.483,6.027,6.027,0,0,0-3.283.458c-1.009.407-1.9.959-2.866,1.438a7.319,7.319,0,0,1-3.17.861,3.2,3.2,0,0,1-2.781-1.249,1.488,1.488,0,0,1,1.26-2.085,2,2,0,0,1-1.944-1.6A1.833,1.833,0,0,1,193,138.834Z" transform="translate(-171.11 -137.889)" fill="#263238"/>
      <path id="Path_2105" data-name="Path 2105" d="M217.706,153.314l-2.224,13.292a3.944,3.944,0,0,1-2.057,2.7,6.3,6.3,0,0,1-3.936.7h0c-2.692-.379-4.53-2.333-4.176-4.443.169-1,.309-1.834.317-1.939,0,0-4.3-.758-4.052-4.139.119-1.633.716-4.983,1.3-8.011.637-3.245,4.368-5.568,8.579-5.341l.42.023C216.382,146.605,218.406,149.828,217.706,153.314Z" transform="translate(-179.263 -144.434)" fill="#ffbe9d"/>
      <path id="Path_2106" data-name="Path 2106" d="M226.1,227.447a12.589,12.589,0,0,0,5.758-.947s-1.553,2.358-5.861,1.822Z" transform="translate(-199.737 -208.298)" fill="#eb996e"/>
      <path id="Path_2107" data-name="Path 2107" d="M247.395,182.391c-.028.261.219.492.555.518a.724.724,0,0,0,.451-.093.448.448,0,0,0,.225-.318c.026-.261-.22-.491-.555-.518a.721.721,0,0,0-.452.092A.446.446,0,0,0,247.395,182.391Z" transform="translate(-222.154 -172.92)" fill="#263238"/>
      <path id="Path_2108" data-name="Path 2108" d="M245.941,178.8a11.313,11.313,0,0,1,1.234-.142c.668.037,1.133.323,1.212.263.037-.025-.032-.144-.232-.275a2.1,2.1,0,0,0-1.952-.1C245.986,178.661,245.907,178.77,245.941,178.8Z" transform="translate(-221.538 -170.042)" fill="#263238"/>
      <path id="Path_2109" data-name="Path 2109" d="M223.075,184.1c-.026.261.22.492.555.52a.729.729,0,0,0,.448-.089.456.456,0,0,0,.231-.311c.026-.261-.22-.492-.555-.52a.729.729,0,0,0-.448.089A.456.456,0,0,0,223.075,184.1Z" transform="translate(-191.413 -174.287)" fill="#263238"/>
      <path id="Path_2110" data-name="Path 2110" d="M221.137,180.989a12.23,12.23,0,0,1,1.234-.14c.668.037,1.133.322,1.21.263.04-.027-.029-.144-.232-.275a2.1,2.1,0,0,0-1.949-.1C221.182,180.843,221.1,180.96,221.137,180.989Z" transform="translate(-190.18 -171.782)" fill="#263238"/>
      <path id="Path_2111" data-name="Path 2111" d="M239.91,184.172a5.5,5.5,0,0,0-1.072-.205c-.169-.023-.328-.058-.349-.15a.582.582,0,0,1,.148-.388c.19-.31.388-.639.594-.982a15.486,15.486,0,0,0,1.368-2.578,17.691,17.691,0,0,0-1.632,2.488c-.2.345-.391.674-.573.988a.639.639,0,0,0-.135.516.4.4,0,0,0,.264.205,1.534,1.534,0,0,0,.288.047A4.976,4.976,0,0,0,239.91,184.172Z" transform="translate(-211.716 -171.245)" fill="#263238"/>
      <path id="Path_2112" data-name="Path 2112" d="M235.487,203.079c-.108-.01-.158.553-.814.92a4.794,4.794,0,0,1-1.434.341c0,.035.161.119.486.144a2.2,2.2,0,0,0,1.194-.255,1.251,1.251,0,0,0,.639-.772C235.606,203.223,235.537,203.079,235.487,203.079Z" transform="translate(-205.363 -189.688)" fill="#263238"/>
      <path id="Path_2113" data-name="Path 2113" d="M218.934,171.55c.053.144.726.113,1.5.228s1.395.316,1.511.205c.05-.058-.048-.205-.291-.347a3.267,3.267,0,0,0-2.3-.322C219.066,171.377,218.912,171.48,218.934,171.55Z" transform="translate(-187.969 -164.385)" fill="#263238"/>
      <path id="Path_2114" data-name="Path 2114" d="M245.164,171.426c.106.123.576.027,1.131.049s1.014.136,1.133.016c.053-.055,0-.179-.206-.3a2.034,2.034,0,0,0-1.823-.053C245.191,171.247,245.109,171.368,245.164,171.426Z" transform="translate(-220.381 -164.156)" fill="#263238"/>
      <path id="Path_2115" data-name="Path 2115" d="M194.248,192.97c.077-.023,3.046-.528,2.744,1.777s-3.2,1.594-3.2,1.528S194.248,192.97,194.248,192.97Z" transform="translate(-156.382 -181.606)" fill="#ffbe9d"/>
      <path id="Path_2116" data-name="Path 2116" d="M196.694,198.51a1.165,1.165,0,0,0,.132.07.664.664,0,0,0,.386.037,1.041,1.041,0,0,0,.705-.844,1.063,1.063,0,0,0-.069-.587.512.512,0,0,0-.349-.339.305.305,0,0,0-.32.086c-.048.062-.034.109-.05.113s-.058-.045-.024-.138a.279.279,0,0,1,.137-.136.479.479,0,0,1,.291-.035.658.658,0,0,1,.494.4,1.077,1.077,0,0,1,.1.657,1.124,1.124,0,0,1-.882.935.672.672,0,0,1-.465-.1C196.691,198.565,196.684,198.512,196.694,198.51Z" transform="translate(-158.273 -184.642)" fill="#eb996e"/>
      <path id="Path_2117" data-name="Path 2117" d="M199.767,148.427a7.8,7.8,0,0,0,5.661-.678c1.117-.639,2.023-1.6,3.373-1.849a4.365,4.365,0,0,1,2.673.431,6.175,6.175,0,0,1,1.915,1.571c-.991,1.672-.6,3.617-.185,5.431a.839.839,0,0,0,.3.551,1.143,1.143,0,0,0,1.2-.14,2.678,2.678,0,0,0,.94-1.463,7.491,7.491,0,0,0,.3-3.747,5.973,5.973,0,0,0-2-3.387,9.02,9.02,0,0,0-5.381-1.921,11.813,11.813,0,0,0-5.75,1.259,5.234,5.234,0,0,0-1.968,1.536" transform="translate(-177.006 -142.127)" fill="#263238"/>
      <path id="Path_2118" data-name="Path 2118" d="M210.224,144.089a.394.394,0,0,0,0,.205.919.919,0,0,0,.375.5,2.21,2.21,0,0,0,1.083.347,4.024,4.024,0,0,0,.74,0,1.878,1.878,0,0,0,.792-.232.788.788,0,0,0,.428-.633.763.763,0,0,0-.578-.616,1.443,1.443,0,0,0-.528-.082,1.137,1.137,0,0,0-.528.152,1,1,0,0,0-.528.783,1.079,1.079,0,0,0,.394.873,2.535,2.535,0,0,0,1.033.532,4.985,4.985,0,0,0,2.557-.078,12.682,12.682,0,0,0,2.287-.91,15.812,15.812,0,0,1,2.079-.883,5.57,5.57,0,0,1,2.076-.275,5.052,5.052,0,0,1,1.743.45,4.768,4.768,0,0,1,1.849,1.5,5,5,0,0,1,.335.511,1.418,1.418,0,0,0,.108.181.133.133,0,0,0-.016-.049c-.016-.031-.034-.08-.066-.14a3.742,3.742,0,0,0-.312-.524,4.63,4.63,0,0,0-1.849-1.547,5.131,5.131,0,0,0-1.77-.487,5.652,5.652,0,0,0-2.137.273,15.532,15.532,0,0,0-2.113.883,12.667,12.667,0,0,1-2.248.9,4.806,4.806,0,0,1-2.462.08,2.369,2.369,0,0,1-.972-.491.965.965,0,0,1-.365-.795.9.9,0,0,1,.454-.709,1.11,1.11,0,0,1,.927-.064.677.677,0,0,1,.528.538.7.7,0,0,1-.38.567,1.735,1.735,0,0,1-.729.224,4.01,4.01,0,0,1-.718,0,2.18,2.18,0,0,1-1.057-.316.975.975,0,0,1-.383-.47A1.36,1.36,0,0,1,210.224,144.089Z" transform="translate(-189.645 -142.409)" fill="#455a64"/>
      <path id="Path_2119" data-name="Path 2119" d="M195.9,161.06a6.407,6.407,0,0,1-.924.136,3.244,3.244,0,0,1-.988-.136,4.631,4.631,0,0,1-1.075-.477,2.753,2.753,0,0,1-1.2-1.438,4.31,4.31,0,0,1-.132-.725.425.425,0,0,0-.034.205,1.848,1.848,0,0,0,.066.544,2.65,2.65,0,0,0,1.21,1.518,4.6,4.6,0,0,0,1.123.487,3.2,3.2,0,0,0,1.038.115,2.961,2.961,0,0,0,.689-.123A.863.863,0,0,0,195.9,161.06Z" transform="translate(-154.671 -154.203)" fill="#455a64"/>
      <path id="Path_2120" data-name="Path 2120" d="M197.1,169.016c0-.021-.354.021-.914-.033a4.093,4.093,0,0,1-3.307-1.968,5.745,5.745,0,0,1-.28-.676.417.417,0,0,0,0,.193,2.374,2.374,0,0,0,.169.511,3.932,3.932,0,0,0,3.394,2.019,4.71,4.71,0,0,0,.679,0A.9.9,0,0,0,197.1,169.016Z" transform="translate(-156.153 -160.496)" fill="#455a64"/>
      <path id="Path_2121" data-name="Path 2121" d="M222.393,193.526a.1.1,0,0,0,.091-.015.053.053,0,0,0,.014-.072.088.088,0,0,0-.081-.036.08.08,0,0,0-.072.046.048.048,0,0,0,0,.046A.074.074,0,0,0,222.393,193.526Z" transform="translate(-189.416 -182)" fill="#eb996e"/>
      <path id="Path_2122" data-name="Path 2122" d="M227.035,192.075a.117.117,0,0,0,.11-.009.063.063,0,0,0,.025-.084.1.1,0,0,0-.094-.045.093.093,0,0,0-.086.054.051.051,0,0,0,0,.049A.076.076,0,0,0,227.035,192.075Z" transform="translate(-195.312 -180.834)" fill="#eb996e"/>
      <path id="Path_2123" data-name="Path 2123" d="M230.436,191.59a.1.1,0,0,0,.1-.08c.013-.051,0-.1-.05-.1s-.082.029-.1.08A.077.077,0,0,0,230.436,191.59Z" transform="translate(-199.569 -180.413)" fill="#eb996e"/>
      <path id="Path_2124" data-name="Path 2124" d="M225.129,196.621c.042,0,.077-.012.077-.033s-.029-.037-.069-.039-.077.012-.077.033S225.089,196.619,225.129,196.621Z" transform="translate(-192.833 -184.499)" fill="#eb996e"/>
      <path id="Path_2125" data-name="Path 2125" d="M229.357,195.071a.1.1,0,0,0,.091-.024.054.054,0,0,0,0-.074.1.1,0,0,0-.088-.029.076.076,0,0,0-.066.054.049.049,0,0,0,.009.047A.08.08,0,0,0,229.357,195.071Z" transform="translate(-198.211 -183.222)" fill="#eb996e"/>
      <path id="Path_2126" data-name="Path 2126" d="M252.165,190.743a.1.1,0,0,0,.094-.014.055.055,0,0,0,.016-.074.091.091,0,0,0-.083-.037.082.082,0,0,0-.074.048.048.048,0,0,0,0,.047A.074.074,0,0,0,252.165,190.743Z" transform="translate(-227.056 -179.786)" fill="#eb996e"/>
      <path id="Path_2127" data-name="Path 2127" d="M255.538,190.152a.09.09,0,0,0,.09-.062c.012-.035-.014-.07-.058-.08a.085.085,0,0,0-.087.062.051.051,0,0,0,.006.049A.081.081,0,0,0,255.538,190.152Z" transform="translate(-231.293 -179.304)" fill="#eb996e"/>
      <path id="Path_2128" data-name="Path 2128" d="M249.355,191.113a.081.081,0,0,0,.074-.006.045.045,0,0,0,.02-.056.066.066,0,0,0-.059-.035.082.082,0,0,0-.074.006.045.045,0,0,0-.02.056A.066.066,0,0,0,249.355,191.113Z" transform="translate(-223.48 -180.098)" fill="#eb996e"/>
      <path id="Path_2129" data-name="Path 2129" d="M251.915,194.158a.1.1,0,0,0,.06,0,.071.071,0,0,0,.043-.032.047.047,0,0,0,0-.062.081.081,0,0,0-.07-.029.074.074,0,0,0-.063.038A.054.054,0,0,0,251.915,194.158Z" transform="translate(-226.743 -182.503)" fill="#eb996e"/>
      <path id="Path_2130" data-name="Path 2130" d="M254.955,193.439a.076.076,0,0,0,.046-.02.046.046,0,0,0,.014-.04.062.062,0,0,0-.051-.052.087.087,0,0,0-.08.019.047.047,0,0,0-.006.065A.083.083,0,0,0,254.955,193.439Z" transform="translate(-230.517 -181.937)" fill="#eb996e"/>
      <path id="Path_2131" data-name="Path 2131" d="M199.075,207.677a1.127,1.127,0,0,1,.034.53.763.763,0,0,1-.367.466,1.1,1.1,0,0,1-.814.119.717.717,0,0,1-.528-.479.686.686,0,0,1,.172-.532,1.344,1.344,0,0,1,.47-.382.868.868,0,0,0-.56.339.742.742,0,0,0-.217.592.819.819,0,0,0,.626.571,1.242,1.242,0,0,0,.946-.146.8.8,0,0,0,.386-.536.681.681,0,0,0-.048-.411A.433.433,0,0,0,199.075,207.677Z" transform="translate(-159.52 -193.119)" fill="#263238"/>
      <path id="Path_2132" data-name="Path 2132" d="M195.735,206.851c0-.012-.111.023-.18.148a.275.275,0,0,0,0,.234.4.4,0,0,0,.264.205.5.5,0,0,0,.375-.051.244.244,0,0,0,.132-.218c-.013-.144-.135-.187-.14-.175a.3.3,0,0,1,.034.173.186.186,0,0,1-.106.136.356.356,0,0,1-.246.027.294.294,0,0,1-.185-.14.226.226,0,0,1-.021-.173C195.674,206.919,195.751,206.863,195.735,206.851Z" transform="translate(-156.154 -192.683)" fill="#263238"/>
      <path id="Path_2133" data-name="Path 2133" d="M292.361,347.537l.5,4.353h-2.641l-2.335-.029a21.078,21.078,0,0,1-2.678.055.326.326,0,0,1-.124-.023,2.65,2.65,0,0,1-.407-.076h0c-.238-.068-.483-.187-.446-.39a.756.756,0,0,1,.592-.674l.24-.012.018-.053c-.362,0-.666,0-.827-.021a.218.218,0,0,1-.124-.023c-.005-.008-.935-.086-.864-.47a.753.753,0,0,1,.592-.674l.769-.039c-.372,0-.689,0-.856-.021a.235.235,0,0,1-.124-.021c-.005-.008-.935-.088-.864-.472a.752.752,0,0,1,.592-.672l.637-.035a6.8,6.8,0,0,1-.692-.018.218.218,0,0,1-.124-.023c-.005-.008-.935-.086-.864-.47a.753.753,0,0,1,.592-.674s1.471-.082,2.48-.113c0,0,1.146-.805,1.585-.768.674.055,4.6,1.183,4.6,1.183Z" transform="translate(-275.62 -303.389)" fill="#ffbe9d"/>
      <path id="Path_2134" data-name="Path 2134" d="M305.6,367.593a12.955,12.955,0,0,1-2.6.066,7.059,7.059,0,0,1,1.307-.1A6.477,6.477,0,0,1,305.6,367.593Z" transform="translate(-293.816 -320.377)" fill="#eb996e"/>
      <path id="Path_2135" data-name="Path 2135" d="M306.654,361.638a26.2,26.2,0,0,1-3.714.1,12.887,12.887,0,0,1,1.849-.117A13.619,13.619,0,0,1,306.654,361.638Z" transform="translate(-294.853 -315.652)" fill="#eb996e"/>
      <g id="Group_1169" data-name="Group 1169" transform="translate(7.953 44.701)" opacity="0.78">
        <path id="Path_2136" data-name="Path 2136" d="M307.164,355.537a12.745,12.745,0,0,1-1.849.117,13.5,13.5,0,0,1-1.865-.014,13.1,13.1,0,0,1,1.849-.117A13.506,13.506,0,0,1,307.164,355.537Z" transform="translate(-303.45 -355.505)" fill="#eb996e"/>
      </g>
      <path id="Path_2137" data-name="Path 2137" d="M296.87,349.779a3.585,3.585,0,0,0,.592.035l1.429.037,1.429.039a3.2,3.2,0,0,0,.594,0,3.256,3.256,0,0,0-.589-.07c-.365-.029-.872-.057-1.429-.072s-1.057-.014-1.434,0A3.046,3.046,0,0,0,296.87,349.779Z" transform="translate(-287.509 -306.221)" fill="#eb996e"/>
      <path id="Path_2138" data-name="Path 2138" d="M202.8,300.839h.092l.264-.01,1.03-.047,3.785-.181c3.2-.152,7.618-.368,12.5-.561l2.615-.092h.063V299.9c.04-.822.137-1.631.214-2.4s.166-1.514.246-2.216c.158-1.405.3-2.658.423-3.708s.211-1.882.264-2.465c.032-.283.053-.505.071-.663a.643.643,0,0,1,.013-.173.254.254,0,0,0,0-.06.165.165,0,0,0-.013.057,1.17,1.17,0,0,1-.029.173c-.021.158-.053.38-.092.663-.077.583-.185,1.421-.32,2.465s-.283,2.3-.454,3.7c-.079.7-.164,1.438-.264,2.216s-.18,1.573-.222,2.412l.066-.053-2.618.09c-4.881.193-9.3.421-12.5.592l-3.785.205-1.028.066-.264.021Z" transform="translate(-186.134 -257.332)" fill="#455a64"/>
      <path id="Path_2139" data-name="Path 2139" d="M214.326,351.934a.858.858,0,0,0,.132-.222,1.722,1.722,0,0,0,.121-.269,2.521,2.521,0,0,0,.124-.368,3.008,3.008,0,0,0,.1-.456,4.078,4.078,0,0,0,.045-.528,4.292,4.292,0,0,0-.681-2.352,4.908,4.908,0,0,0-.333-.462,4.48,4.48,0,0,0-.341-.378,3.447,3.447,0,0,0-.317-.306,2.04,2.04,0,0,0-.264-.205,1.653,1.653,0,0,0-.24-.158c-.021.016.317.246.737.7a4.433,4.433,0,0,1,.32.38c.114.138.209.3.317.458a4.486,4.486,0,0,1,.676,2.321,4.046,4.046,0,0,1-.032.52,3.1,3.1,0,0,1-.079.45C214.476,351.6,214.3,351.918,214.326,351.934Z" transform="translate(-179.201 -303.434)" fill="#fff"/>
      <path id="Path_2140" data-name="Path 2140" d="M160.38,373.873c0,.029,11,.053,24.565.053s24.565-.025,24.565-.053-11-.053-24.565-.053S160.38,373.843,160.38,373.873Z" transform="translate(-160.053 -325.357)" fill="#263238"/>
    </g>
  </g>
</svg>
