<svg xmlns="http://www.w3.org/2000/svg" version="1.0" width="177" height="22" viewBox="0 0 128 29"><rect width="100%" height="100%" fill="none"/><g><path fill="currentColor" d="M-75.617 2.175h9.956l-8.533 24.65h-9.956zM-64.1 4.322h8.345L-62.9 24.678h-8.345zm11.48 1.527h6.867L-51.636 22.9H-58.5zm11.386 2.29h4.982l-4.27 12.468H-45.5zm11.846 2.036h3.634l-3.115 8.906H-32.5zm11.23 1.781H-16l-1.847 5.089H-20zm-70.188-7.634H-80l-7.153 20.356H-95.5zm-12.271 1.527h6.868L-99.636 22.9h-6.864zm-12.613 2.29h4.982l-4.271 12.468h-4.981zm-12.155 2.036h3.634l-3.114 8.906h-3.635zM-6.6 12.973h1.35l-1.15 3.308h-1.35zm72.98-10.8h9.956l-8.533 24.65H57.85zM77.9 4.322h8.345L79.1 24.678h-8.349zm11.48 1.527h6.867L90.364 22.9H83.5zm11.387 2.29h4.982l-4.271 12.468H96.5zm11.845 2.036h3.634l-3.114 8.906H109.5zm11.231 1.781H126l-1.846 5.089H122zM53.654 4.322H62l-7.154 20.356H46.5zM41.383 5.849h6.867L42.364 22.9H35.5zM28.77 8.139h4.982l-4.27 12.468H24.5zm-12.154 2.035h3.634l-3.115 8.906H13.5zm118.789 2.8h1.346l-1.151 3.307h-1.35zM5.346 11.956H7.5l-1.846 5.089H3.5z"/><animateTransform attributeName="transform" type="translate" values="12 0;24 0;36 0;48 0;60 0;72 0;84 0;96 0;108 0;120 0;132 0;144 0" calcMode="discrete" dur="1600ms" repeatCount="indefinite"/></g></svg>