<svg xmlns="http://www.w3.org/2000/svg" width="82.853" height="65.733" viewBox="0 0 82.853 65.733">
  <g id="Group_18957" data-name="Group 18957" transform="translate(0)" style="mix-blend-mode: normal;isolation: isolate">
    <path id="Path_47643" data-name="Path 47643" d="M1998.078,136.382a34.829,34.829,0,0,0-2.959-7.38,15.565,15.565,0,0,0-5.278-5.541c-4.536-2.8-10.176-3.334-15.391-3.144a46.786,46.786,0,0,0-9.046,1.217q-1.537.364-3.045.835a7.46,7.46,0,0,0-3.362-1.31,10.268,10.268,0,0,0-7.351,2.379c-4.559,3.532-6.331,9.362-10.223,13.472-1.878,1.983-4.27,3.3-6.414,4.96a12.868,12.868,0,0,0-4.556,6.161,11.929,11.929,0,0,0-.037,7.44,12.258,12.258,0,0,0,4.117,5.77,11.817,11.817,0,0,0,3.042,1.7c.466.178.709-.559.242-.736a11.256,11.256,0,0,1-7.2-10.738,11.426,11.426,0,0,1,2.429-6.663c1.564-1.976,3.79-3.282,5.815-4.723a20.851,20.851,0,0,0,2.954-2.467,24.128,24.128,0,0,0,2.5-3.109c1.524-2.212,2.8-4.589,4.375-6.767a15.15,15.15,0,0,1,5.782-5.126,7.514,7.514,0,0,1,6.848.014.877.877,0,0,1-.409.215,20.436,20.436,0,0,0-3.738,1.643c-2.243,1.327-4.206,3.53-4.322,6.253a4.848,4.848,0,0,0,3.867,5.034,5.1,5.1,0,0,0,3.593-1.093,13.658,13.658,0,0,0,2.913-2.844c1.524-1.986,2.394-4.6,1.265-6.983a6.247,6.247,0,0,0-1.41-1.9,46.287,46.287,0,0,1,8.517-1.673,42.831,42.831,0,0,1,8.274-.054,24.938,24.938,0,0,1,7.105,1.646,14.945,14.945,0,0,1,5.806,4.119,21.263,21.263,0,0,1,3.547,6.536c.91,2.494,1.643,5.073,2.32,7.639a29.087,29.087,0,0,1,1.194,8.449,15.11,15.11,0,0,1-.7,4.052.388.388,0,0,0,.736.243c1.858-5.788-.112-11.954-1.8-17.532m-33.919-8.234a7.9,7.9,0,0,1-1.617,3.308,12.632,12.632,0,0,1-2.763,2.658,4.072,4.072,0,0,1-3.38.8,3.928,3.928,0,0,1-2.335-2.054c-1.133-2.265.073-4.9,1.81-6.479a16.4,16.4,0,0,1,6.317-3.16,5.1,5.1,0,0,1,1.968,4.923" transform="translate(-1928.409 -118.615)" fill="#dadef1"/>
    <path id="Path_47644" data-name="Path 47644" d="M1999.193,174.807c-.464,1.056-1.919,3.11-6.224,3.137a5.91,5.91,0,0,1-5.253-4.077c1.577.1,2.607.248,2.607.248.087.008.175.015.259.021l1.3-4.585,5.3,1.555-.366,1.474-.187.756-.317,1.279c1.615.134,1.4.116,2.353.2a3,3,0,0,0,.527-.006" transform="translate(-1959.237 -144.863)" fill="#f6b399"/>
    <path id="Path_47645" data-name="Path 47645" d="M1978.787,140.8a.369.369,0,0,0,.152.357,2.466,2.466,0,0,0,1.241.335,7.669,7.669,0,0,0,.552,5.079,8.368,8.368,0,0,0,4.446,4.054.424.424,0,0,0,.535-.2,17.689,17.689,0,0,1,2.054-2.977,18.914,18.914,0,0,1,4.959-4.122c1.343-.774,3.4-1.419,4.135-2.856.97-1.309,1.836-2.837,1.172-4.344a2.246,2.246,0,0,0-1.461-1.277,2.276,2.276,0,0,0-1.141-.019,2.476,2.476,0,0,0-1.346-1.8,3.951,3.951,0,0,0-3-.1,2.606,2.606,0,0,0-3.154-.624,2.948,2.948,0,0,0-1.6,2.584c-.569.289-1.125.595-1.661.926a11.052,11.052,0,0,0-3.364,3.086,1.039,1.039,0,0,0-1.14-.367.9.9,0,0,0-.545.756,1.084,1.084,0,0,0,.3.85,4.9,4.9,0,0,0-.9.35.411.411,0,0,0-.247.306" transform="translate(-1954.479 -124.875)" fill="#36174d"/>
    <path id="Path_47646" data-name="Path 47646" d="M1994.849,154.639a6.279,6.279,0,1,0,7.343-4.992,6.277,6.277,0,0,0-7.343,4.992" transform="translate(-1962.976 -134.199)" fill="#f6b399"/>
    <path id="Path_47647" data-name="Path 47647" d="M1988.954,152.422c1.141,3.273,5.1,4.872,8.83,3.569,3.521-1.225,5.591-4.589,4.864-7.71a5.357,5.357,0,0,0-.525-1.386c-1.466-2.716-5.06-3.948-8.472-2.758-3.736,1.3-5.84,5.011-4.7,8.285" transform="translate(-1959.73 -131.082)" fill="#f6b399"/>
    <path id="Path_47648" data-name="Path 47648" d="M1987.243,166.893a2.548,2.548,0,1,0,2.956-1.914,2.492,2.492,0,0,0-2.956,1.914" transform="translate(-1958.963 -142.402)" fill="#f6b399"/>
    <path id="Path_47649" data-name="Path 47649" d="M1988.337,168.973a4.1,4.1,0,0,1,2.358-.381.387.387,0,1,1-.106.768c-.092-.012-.184-.022-.276-.028a3.954,3.954,0,0,0-.726.043c-.091.015-.182.034-.272.055a4.087,4.087,0,0,0-.683.26.39.39,0,0,1-.506-.211.4.4,0,0,1,.21-.506" transform="translate(-1959.441 -144.332)" fill="#ee796a"/>
    <path id="Path_47650" data-name="Path 47650" d="M2013.025,156.949a.721.721,0,1,0-.6.821.721.721,0,0,0,.6-.821" transform="translate(-1971.953 -137.823)" fill="#36174d"/>
    <path id="Path_47651" data-name="Path 47651" d="M2013.874,157.466a2.936,2.936,0,0,1-1.318-.322,2.4,2.4,0,0,1-1.258-1.4,2.3,2.3,0,0,1,1.7-3.084,2.251,2.251,0,0,1,1.791.157,2.581,2.581,0,0,1,1.2,1.428,2.4,2.4,0,0,1-1.36,3.1,2.316,2.316,0,0,1-.752.121m-.17-4.154a1.372,1.372,0,0,0-.457.079c-1.163.4-1.536,1.059-1.207,2.121a1.631,1.631,0,0,0,.867.941,1.961,1.961,0,0,0,1.465.159,1.626,1.626,0,0,0,.88-2.115,1.8,1.8,0,0,0-.834-1,1.5,1.5,0,0,0-.714-.186" transform="translate(-1971.721 -135.801)" fill="#fff"/>
    <path id="Path_47652" data-name="Path 47652" d="M2010.781,152.927a.391.391,0,0,1,.544-.065.4.4,0,0,1,.065.544,2.157,2.157,0,0,0,.131,2.4c.3.4.8.635.976,1.131a.943.943,0,0,1-.5,1.221c-.472.155-.771-.561-.3-.717.076-.025.1-.1.075-.208-.042-.207-.284-.37-.431-.5a2.9,2.9,0,0,1-.569-3.8" transform="translate(-1971.275 -135.929)" fill="#ee796a"/>
    <path id="Path_47653" data-name="Path 47653" d="M2011.152,151.059a.989.989,0,0,1,.578-.54c.525-.22,1.371-.346,1.63.351.165.94-1.39,1.4-1.9,1.047a.747.747,0,0,1-.312-.858" transform="translate(-1971.699 -134.631)" fill="#36174d"/>
    <path id="Path_47654" data-name="Path 47654" d="M2003.6,158.6a.721.721,0,1,0-.6.821.722.722,0,0,0,.6-.821" transform="translate(-1966.935 -138.704)" fill="#36174d"/>
    <path id="Path_47655" data-name="Path 47655" d="M2000.427,158.987a2.507,2.507,0,0,1-.471-.044,2.653,2.653,0,0,1-2.058-3.131,2.711,2.711,0,0,1,1.1-1.72,2.548,2.548,0,0,1,3.6.649,2.713,2.713,0,0,1,.419,2.047,2.672,2.672,0,0,1-2.592,2.2m.057-4.6a1.788,1.788,0,0,0-1.038.336,1.941,1.941,0,0,0-.786,1.233,1.833,1.833,0,1,0,3.6.685,1.937,1.937,0,0,0-.3-1.467,1.778,1.778,0,0,0-1.142-.756,1.865,1.865,0,0,0-.333-.032" transform="translate(-1964.634 -136.372)" fill="#fff"/>
    <path id="Path_47656" data-name="Path 47656" d="M1999.113,151.655a2.288,2.288,0,0,1,1.192-.073.833.833,0,0,1,.633.473.652.652,0,0,1-.118.685c-.169.405-.942.461-1.3.523-.583.1-1.148.243-1.723.389a.39.39,0,0,1-.406-.533,3.018,3.018,0,0,1,1.725-1.464" transform="translate(-1964.371 -135.264)" fill="#36174d"/>
    <path id="Path_47657" data-name="Path 47657" d="M2007.434,158.7a1.9,1.9,0,0,1,1.281-1.037,1.577,1.577,0,0,1,1.575.439c.214.245.225.49.042.648-.069.059-.09-.2-.5-.32a1.418,1.418,0,0,0-1.681.577.388.388,0,0,1-.712-.307" transform="translate(-1969.721 -138.501)" fill="#fff"/>
    <path id="Path_47658" data-name="Path 47658" d="M1999.289,142.88a5.2,5.2,0,0,1-2.677,1.506,33.748,33.748,0,0,1-6.94,1.205,13.32,13.32,0,0,0,1.136,7.343.389.389,0,0,1-.632.438,5.793,5.793,0,0,0-2.5-1.556.372.372,0,0,1-.291-.086c-.1-.025-.2-.052-.3-.074a.392.392,0,0,1-.246-.49c-.969-2.188-1.781-4.577-.732-6.772a5.817,5.817,0,0,1,2.213-2.295,15.022,15.022,0,0,1,3.068-1.513,9.058,9.058,0,0,1,6.6.011,4.916,4.916,0,0,1,1.405.826c.443.422.213,1.041-.111,1.457" transform="translate(-1958.12 -129.102)" fill="#36174d"/>
    <path id="Path_47659" data-name="Path 47659" d="M2008.946,166.835c1.788,0,1.957-1.335,1.957-1.335s-3.7-.183-3.683-.173a1.509,1.509,0,0,0,1.727,1.508" transform="translate(-1969.625 -142.612)" fill="#fff"/>
    <path id="Path_47660" data-name="Path 47660" d="M2052.787,200.731l-6.42,14.216-.982-.648-.441-.289,6.84-14.433c.073.083.147.168.22.254l.256.292.526.607" transform="translate(-1989.719 -160.859)" fill="#fff"/>
    <path id="Path_47661" data-name="Path 47661" d="M2073.429,148.5a1.94,1.94,0,0,0-2.285.783,5.033,5.033,0,0,0-.343.557,20.177,20.177,0,0,0,.376-2.459,3.286,3.286,0,0,0-.542-2.585,2.061,2.061,0,0,0-2.113-.571,2.053,2.053,0,0,0-1.035-1.445,2.022,2.022,0,0,0-2.164.217,3,3,0,0,0-1.032,1.981c-.16.839-.281,1.683-.417,2.524q-.329,2.009-.658,4.015c-.1-.034-.2-.062-.307-.089q.215-1.4.434-2.811.2-1.3.4-2.6a4.789,4.789,0,0,0,.079-2.465,1.657,1.657,0,0,0-1.748-1.043,2.18,2.18,0,0,0-1.707,1.336,11.126,11.126,0,0,0-.585,2.321q-.261,1.267-.484,2.542-.424,2.444-.685,4.9c-.238-.434-.43-.885-.652-1.324a4.512,4.512,0,0,0-1.962-2.158,2.716,2.716,0,0,0-2.7.159,1.639,1.639,0,0,0-.364,2.395c.292.439.655.835.942,1.277a8.494,8.494,0,0,1,.73,1.393,11.277,11.277,0,0,1,.638,3.192,6.341,6.341,0,0,0,1.013,3.3,4.155,4.155,0,0,0,.323.388c.036.165.058.332.079.5q-1.9,4.88-3.464,9.854-.214.684-.422,1.369l-4.779,10.584c2.733,1.8,5.265,4.035,8.678,4.138a7.266,7.266,0,0,0,7.278-5.158c1.75-5.8,2.745-12.539,3.9-16.472.13-.44.26-.881.387-1.32a91.314,91.314,0,0,0,4.237-10.067q.464-1.327.889-2.665a27.066,27.066,0,0,0,.776-2.641,1.528,1.528,0,0,0-.706-1.854" transform="translate(-1991.34 -130.447)" fill="#f6b399"/>
    <path id="Path_47662" data-name="Path 47662" d="M1996.556,188.365s-6.84,14.435-6.84,14.435l-.207-.135-5.272-3.469-1.492,4.151q-.154-.018-.308-.029a2.457,2.457,0,0,1-.6.533,4.566,4.566,0,0,1-1.574.562c-.63.126-1.268.225-1.905.307a31.017,31.017,0,0,1-3.884.252,30.634,30.634,0,0,1-7.234-.866c-5.432-.089-9.468-.27-14.876-.679l1.128-4.661.678-1.228.56-1.012-13.479-4.851c.613-1.44,1.276-2.887,1.995-4.314,1.952-3.866,5.831-7.332,9.923-8.226a35.361,35.361,0,0,1,8.657-.549,6.7,6.7,0,0,0,6.466,5.022,7.268,7.268,0,0,0,7.448-4.194,30.5,30.5,0,0,1,8.23-.8c4.913.486,6.024,2.236,12.581,9.751" transform="translate(-1934.489 -149.649)" fill="#f66957"/>
    <path id="Path_47663" data-name="Path 47663" d="M2008.5,224.691h-14.7a1.29,1.29,0,0,1-1.223-1.884l5.164-14.7a2.933,2.933,0,0,1,2.547-1.885h14.7a1.29,1.29,0,0,1,1.223,1.885l-5.164,14.7a2.934,2.934,0,0,1-2.547,1.884" transform="translate(-1961.766 -164.402)" fill="#fff"/>
    <path id="Path_47664" data-name="Path 47664" d="M2009.428,226.765h-14.7a1.29,1.29,0,0,1-1.222-1.884l5.164-14.7a2.933,2.933,0,0,1,2.547-1.884h14.7a1.29,1.29,0,0,1,1.223,1.884l-5.164,14.7a2.934,2.934,0,0,1-2.547,1.884" transform="translate(-1962.261 -165.507)" fill="#19c5ff"/>
    <path id="Path_47665" data-name="Path 47665" d="M2024.778,207.591h-7.827a.847.847,0,0,1-.8-1.238,1.927,1.927,0,0,1,1.673-1.237h7.827a.847.847,0,0,1,.8,1.237,1.926,1.926,0,0,1-1.673,1.238" transform="translate(-1974.341 -163.81)" fill="#36174d"/>
    <path id="Path_47666" data-name="Path 47666" d="M2002.7,175.085l-.186.756a10.555,10.555,0,0,1-3.508-.818c-.455-.2-.215-.932.245-.737a10.061,10.061,0,0,0,3.45.8" transform="translate(-1965.12 -147.368)" fill="#ee796a"/>
    <path id="Path_47667" data-name="Path 47667" d="M2070.1,165.513c-.353-.352-.93.166-.576.52,1.87,1.869,4.027,4.048,3.986,6.891-.007.5.767.54.775.039.044-3.076-2.152-5.417-4.186-7.45" transform="translate(-2002.751 -142.649)" fill="#ee796a"/>
    <path id="Path_47668" data-name="Path 47668" d="M2089.113,145.963a.391.391,0,0,0-.49.246q-.931,4.2-1.863,8.4a.4.4,0,0,0,.247.49.391.391,0,0,0,.49-.246l1.862-8.4a.4.4,0,0,0-.246-.49" transform="translate(-2011.985 -132.287)" fill="#ee796a"/>
    <path id="Path_47669" data-name="Path 47669" d="M1999.193,179.47a7.268,7.268,0,0,1-7.448,4.194,6.7,6.7,0,0,1-6.466-5.021l.374.019c.267.014.523.031.766.049a5.91,5.91,0,0,0,5.252,4.077c4.305-.027,5.76-2.081,6.224-3.137.457-.041.853-.1,1.3-.18" transform="translate(-1957.938 -149.706)" fill="#fff"/>
    <path id="Path_47670" data-name="Path 47670" d="M2059.492,184.819l-4.341,13.717q-.612,1.934-1.224,3.867a.388.388,0,0,0,.737.244L2059,188.93q.612-1.933,1.224-3.867a.388.388,0,0,0-.736-.244" transform="translate(-1994.493 -152.86)" fill="#ee796a"/>
    <path id="Path_47671" data-name="Path 47671" d="M1968.193,219.2l-.628,1.126.623-1.128Z" transform="translate(-1948.503 -171.312)" fill="#f6b399"/>
    <path id="Path_47672" data-name="Path 47672" d="M1980.559,223.07a1.986,1.986,0,0,1-1.583,2.062,3.751,3.751,0,0,1-1.349-.007,4.665,4.665,0,0,1-.678,1.5c-.06.073-.123.145-.19.215a3.919,3.919,0,0,1-1.209,2.878,2.132,2.132,0,0,1-.9,1.837,3.988,3.988,0,0,1-2.256.657c-10.418.489-23.783.227-34.209.483-5.258.128-10.127-.047-11.171-4.254-.8-3.224.61-5.569,2.149-9.51,1.367-3.494,2.667-6.312,3.412-7.852l13.214,5.025-1.868,4.4c5.407.409,13.09.852,18.516.949a29.322,29.322,0,0,1,2.514-2.277,8.707,8.707,0,0,1,5.359-2.067,5.169,5.169,0,0,1,4.733,3.358l.468.033,1.781.132c.217.015.436.031.653.056a4.572,4.572,0,0,1,.864.164,2.421,2.421,0,0,1,1.755,2.225" transform="translate(-1926.78 -166.983)" fill="#f6b399"/>
    <path id="Path_47673" data-name="Path 47673" d="M1939.942,208.315c-.184.443-.365.887-.537,1.327a10.313,10.313,0,0,1,.529-1.332Z" transform="translate(-1933.504 -165.512)" fill="#f6b399"/>
    <path id="Path_47674" data-name="Path 47674" d="M1953.748,211.5l-.56,1.012-.622,1.128c-.056.1-13.161-4.883-13.161-4.883.173-.44.353-.884.537-1.327q.16-.39.328-.779Z" transform="translate(-1933.504 -164.629)" fill="#fff"/>
    <path id="Path_47675" data-name="Path 47675" d="M1939.942,208.315c-.184.443-.365.887-.537,1.327a10.313,10.313,0,0,1,.529-1.332Z" transform="translate(-1933.504 -165.512)" fill="#fff"/>
    <path id="Path_47676" data-name="Path 47676" d="M1966.667,210.682q-1.407,4.814-3.245,9.487c-.183.465.554.706.737.244q1.836-4.668,3.245-9.487c.14-.478-.6-.723-.736-.244" transform="translate(-1946.281 -166.637)" fill="#36174d"/>
    <path id="Path_47677" data-name="Path 47677" d="M1980.442,231.82l-16.028-.318-4.538-.09c-.5-.01-.539.764-.04.774l16.028.318,4.538.09c.5.01.539-.764.039-.774" transform="translate(-1944.198 -177.819)" fill="#ee796a"/>
    <path id="Path_47678" data-name="Path 47678" d="M2016.543,227.158a5.519,5.519,0,0,0-4.167-3.068,8.464,8.464,0,0,0-5.958,1.5,17.448,17.448,0,0,0-2.677,2.223c-.353.351.165.927.52.575a12.645,12.645,0,0,1,4.663-3.2,6.094,6.094,0,0,1,5.193.358,4.406,4.406,0,0,1,1.738,1.967c.2.456.889.1.688-.357" transform="translate(-1967.709 -173.868)" fill="#ee796a"/>
    <path id="Path_47679" data-name="Path 47679" d="M2030.407,231.316a8.6,8.6,0,0,0-3.474-.657,17.385,17.385,0,0,0-4.285.377.388.388,0,0,0,.167.756,16.468,16.468,0,0,1,3.338-.371,11.844,11.844,0,0,1,3.2.319,2.338,2.338,0,0,1,1.858,1.669,1.485,1.485,0,0,1-1.224,1.593c-1.109.342-2.3.085-3.416.42-.474.142-.311.9.169.757,1.112-.334,2.305-.075,3.415-.42a2.364,2.364,0,0,0,1.849-2,2.688,2.688,0,0,0-1.594-2.439" transform="translate(-1977.687 -177.412)" fill="#ee796a"/>
    <path id="Path_47680" data-name="Path 47680" d="M2044.408,116.714h-14.85a4.723,4.723,0,1,0,0,9.446h.563a3.4,3.4,0,0,1-.488,1.028l-.953,1.321a5.779,5.779,0,0,0,4.111-1.961c.109-.132.217-.261.317-.389h11.3a4.723,4.723,0,1,0,0-9.446" transform="translate(-1979.007 -116.714)" fill="#19c5ff"/>
    <path id="Path_47681" data-name="Path 47681" d="M2051.2,123.03a.391.391,0,0,0-.523-.166c-.945.619-2.281,1.5-3.417.8-.513-.316-.607-1-1.145-1.285a1.3,1.3,0,0,0-.647-.15,1.337,1.337,0,0,0-.789-.456,2.321,2.321,0,0,0-1.8.74,1.363,1.363,0,0,0-.483-.592,1.147,1.147,0,0,0-1.525.246.982.982,0,0,0,.313,1.425,1.359,1.359,0,0,0,.927.188,3.57,3.57,0,0,1-.263.482,2.484,2.484,0,0,1-1.366,1.149,1.185,1.185,0,0,1-1.363-.433.9.9,0,0,1-.109-.617c.063-.3.337-.453.562-.628a1.349,1.349,0,0,0,.539-.777.825.825,0,0,0-.362-.918c-.579-.33-1.4.055-1.888.4a3.01,3.01,0,0,0-1.156,3.208c.143.474.9.311.757-.168a2.251,2.251,0,0,1,.969-2.495,1.923,1.923,0,0,1,.63-.258c.051-.011.256-.066.3-.025s-.029.183-.055.221c-.144.224-.429.346-.618.528a1.438,1.438,0,0,0-.44.829,1.682,1.682,0,0,0,.522,1.482,2.038,2.038,0,0,0,1.74.437,2.8,2.8,0,0,0,1.561-.945,3.724,3.724,0,0,0,.93-1.742c.442-.452.87-.947,1.408-.987.085.061.015.116-.048.177a2.988,2.988,0,0,0-.522.691,5.357,5.357,0,0,0-.469.98,1.147,1.147,0,0,0,.693,1.543c.686.149,1.106-.54,1.391-1.047a2.843,2.843,0,0,0,.445-1.685,7.171,7.171,0,0,1,.4.639,2.027,2.027,0,0,0,.775.616c1.392.656,2.805-.127,3.964-.885a.4.4,0,0,0,.166-.522m-9.657-.132a.189.189,0,0,1,.008-.325.383.383,0,0,1,.536.107.744.744,0,0,1,.141.279.588.588,0,0,1-.685-.061m3.583.629a3.274,3.274,0,0,1-.815,1.605c-.22-.071-.25-.162-.258-.24a1.927,1.927,0,0,1,.354-.94,2.2,2.2,0,0,1,.585-.778.34.34,0,0,1,.134.351" transform="translate(-1985.271 -119.388)" fill="#fff"/>
    <path id="Path_47682" data-name="Path 47682" d="M1950.058,159.965a2.617,2.617,0,1,1-.627-3.647,2.617,2.617,0,0,1,.627,3.647" transform="translate(-1936.645 -137.557)" fill="#19c5ff"/>
    <path id="Path_47683" data-name="Path 47683" d="M1952.508,143.765l-6.544,3.725a1.12,1.12,0,0,0-.092,1.889l5.219,3.687a1.121,1.121,0,0,0,1.75-.718l1.324-7.41a1.121,1.121,0,0,0-1.657-1.172" transform="translate(-1936.696 -131.046)" fill="#ffbb4d"/>
    <path id="Path_47684" data-name="Path 47684" d="M2039.618,160.914a1.3,1.3,0,0,0-1.751-.618,1.665,1.665,0,0,0-.608.465,1.068,1.068,0,0,0-.251.412,1.4,1.4,0,0,0-.012,1.133.374.374,0,0,0,.31.207,1.843,1.843,0,0,0,.282.286,1.378,1.378,0,0,0,.922.32,1.29,1.29,0,0,0,.938-.48,1.669,1.669,0,0,0,.17-1.724" transform="translate(-1985.424 -139.863)" fill="#f66957"/>
    <path id="Path_47685" data-name="Path 47685" d="M1934.682,175.008l-2.417-1.6a.355.355,0,0,0-.322-.046.4.4,0,0,0-.394.367q-.277,1.692-.554,3.385a.39.39,0,0,0,.566.364l3.087-1.805a.392.392,0,0,0,.034-.668m-2.448-.688,1.5.992-1.842,1.077q.17-1.034.339-2.069" transform="translate(-1929.022 -146.885)" fill="#f66957"/>
    <path id="Path_47686" data-name="Path 47686" d="M2045.768,171.649a1.2,1.2,0,0,0-1.118-.885,1.34,1.34,0,0,0-1.294.749,1.376,1.376,0,0,0,.5,1.56,1.188,1.188,0,0,0,1.5-.078,1.414,1.414,0,0,0,.411-1.347" transform="translate(-1988.836 -145.508)" fill="#19c5ff"/>
  </g>
</svg>
