<svg xmlns="http://www.w3.org/2000/svg" width="82.983" height="61.651" viewBox="0 0 82.983 61.651">
  <g id="Group_18956" data-name="Group 18956" transform="translate(0)">
    <path id="Path_47687" data-name="Path 47687" d="M2322.369,882.185l-8.5-1.8,4.655-5.918c.209-.266-.161-.681-.448-.5l-7.356,4.76.341-5.864a.347.347,0,0,0-.672-.126,27.656,27.656,0,0,1-3.985,6.945l-3.538-4.132c-.215-.251-.7-.029-.593.306l2.431,7.8c.131.42.806.276.674-.149q-.971-3.116-1.942-6.231l2.724,3.181a.35.35,0,0,0,.545-.043,28.159,28.159,0,0,0,3.556-5.657q-.135,2.305-.269,4.611a.347.347,0,0,0,.5.324l6.195-4.009-3.72,4.73a.346.346,0,0,0,.18.516l7.236,1.535-6.762,1.091a.347.347,0,0,0-.181.568l5.274,4.619-8.216-1.813-2.736-.6a.355.355,0,0,0-.436.219.348.348,0,0,0,.219.436l9.556,2.108,2.737.6a.358.358,0,0,0,.4-.138.345.345,0,0,0-.032-.42l-5.73-5.018,7.861-1.267c.323-.052.369-.593.034-.664" transform="translate(-2257.06 -872.514)" fill="#ffbb4d"/>
    <path id="Path_47688" data-name="Path 47688" d="M2313.676,923.245c-2.87,3.8-7.69,4.432-11.893,4.589-4.875.184-9.919.184-14.53-1.582a16.157,16.157,0,0,1-6.321-4.152c-1.7-1.913-1.522-5.582-2.165-8.055-1.011-3.89-2.242-11.379-2.242-11.379s-5.117-3.958-.172-10c3.1-3.793,8.188-4.165,11.99-3.689a10.2,10.2,0,0,1,5.156,2.235,10,10,0,0,1,1.941,2.123,11.4,11.4,0,0,1,1.271,2.59c.644,1.8,1,3.718,1.723,5.484a7.734,7.734,0,0,0,1.374,2.273,6.564,6.564,0,0,0,2.594,1.676c1.035.388,2.114.625,3.171.932a17.477,17.477,0,0,1,2.961,1.144,13.292,13.292,0,0,1,4.866,4.022c2.409,3.316,2.9,8.316.278,11.789" transform="translate(-2240.609 -882.069)" fill="#36174d"/>
    <path id="Path_47689" data-name="Path 47689" d="M2309.052,952.553a5.291,5.291,0,0,1,.111.954,3.7,3.7,0,0,1-1.05,2.734,5.912,5.912,0,0,1-2.5,1.312,7.916,7.916,0,0,1-3.311.459,3.584,3.584,0,0,1-.484-.1c.153.753.3,1.507.443,2.264.185.991.35,1.984.486,2.982.123.909.219,1.821.283,2.736a21.325,21.325,0,0,1,.06,2.272,3.84,3.84,0,0,1,1.095.1.228.228,0,0,1-.022.434,3.845,3.845,0,0,1-1.145.1.214.214,0,0,1-.34,0h-15.65q-2.729,0-5.46-.008c-.917,0-1.834,0-2.752-.007-.6-.007-1.208,0-1.812-.014-.193,0-.384-.015-.576-.029-.024-.162-.05-.324-.074-.488-.3-1.938-.592-3.86-.881-5.781-.238-1.576-.491-3.15-.7-4.73a10.277,10.277,0,0,1-2.906-3.017,10.515,10.515,0,0,1-1.578-6.972,16.593,16.593,0,0,1,.369-1.662,6.958,6.958,0,0,1-5-6.552,7.242,7.242,0,0,1,7.244-7.241c.189,0,.377.01.564.024a7.26,7.26,0,0,1,1.134.177l2.337.367a7.092,7.092,0,0,0,3.983,5.613,7.87,7.87,0,0,0,8.673-1.45,8.633,8.633,0,0,0,1.537-1.935l4.854.762c2.09.329,4.271.469,6.2,1.426a12.514,12.514,0,0,1,4.866,4.5c.866,1.1,2.5,3.638,4.26,6.416,1.253,1.979,2.547,4.04,3.68,5.805.824,1.319,1.407,2.257,1.84,3Z" transform="translate(-2235.598 -907.565)" fill="#36174d"/>
    <path id="Path_47690" data-name="Path 47690" d="M2295.767,907.2a7.769,7.769,0,0,1-.21.784.3.3,0,0,1-.172.179,6.034,6.034,0,0,1-11.83-1.057,7.7,7.7,0,0,1-.336-2.814,8.1,8.1,0,0,1,.92-3.3c.033-.1.069-.2.115-.3a4.175,4.175,0,0,1,.627-1.007.214.214,0,0,1,.362.017,12.211,12.211,0,0,0,1.65,2.012c2.4,2.371,5.548,3.721,8.6,5.029a.373.373,0,0,1,.271.457" transform="translate(-2245.889 -888.391)" fill="#f6b399"/>
    <path id="Path_47691" data-name="Path 47691" d="M2314.32,914.944a2.285,2.285,0,0,1-2.317,2.251,2.322,2.322,0,0,1-1.277-.376,6.714,6.714,0,0,0,1.575-4.107,2.273,2.273,0,0,1,2.019,2.232" transform="translate(-2262.021 -896.081)" fill="#f6b399"/>
    <path id="Path_47692" data-name="Path 47692" d="M2305.279,930.1q-1.837.525-3.668,1.06c-.441.13-.576-.145-.5-.338-.407-.8-.769-1.619-1.152-2.426-.193-.409-.389-.818-.581-1.227-.067-.143-.133-.285-.2-.428q-.236-.517-.452-1.04a.184.184,0,0,1,.262-.235c.048-.074.105-.145.152-.205a3.66,3.66,0,0,1,.369-.412,4.14,4.14,0,0,1,.875-.648,4.064,4.064,0,0,1,2.125-.513.272.272,0,0,1,.2.436,2.142,2.142,0,0,1,.357.6c.114.228.226.459.338.688.228.474.452.948.678,1.424q.687,1.443,1.371,2.888a.266.266,0,0,1-.176.376" transform="translate(-2254.979 -902.516)" fill="#f6b399"/>
    <path id="Path_47693" data-name="Path 47693" d="M2250.715,941.031c-.709,1.544-1.523,3.059-2.313,4.583a.515.515,0,0,1-.557.2,25.255,25.255,0,0,0-4.838-.479c-1.767-.01-3.4.083-5.022.169a108.883,108.883,0,0,1-12.031.1c-2.2-.276-4.209-4.79-4.193-6.445.021-1.733,2.985-6.486,8.526-6.51,1.7-.007,5.745-.674,10.273-.886,4.346-.2,10.856,7.739,10.152,9.271" transform="translate(-2209.872 -907.247)" fill="#f6b399"/>
    <path id="Path_47694" data-name="Path 47694" d="M2224.04,917.73c-1.274,2.009-4.083,2.215-6.206,1.869a8.854,8.854,0,0,1-3.367-1.247,7.106,7.106,0,0,1-2.389-2.615c-1.185-2.187-1.39-4.768-1.7-7.188q-.583-4.542-1.166-9.085c-.365-2.852-.734-5.7-1.06-8.559-.281.213-.613-.181-.348-.381.1-.074.194-.146.29-.218a.193.193,0,0,1,.2-.146c.359-.269.722-.531,1.1-.779,2.086-1.388,4.553-2.383,7.08-1.745a5.064,5.064,0,0,1,2.851,1.882,9.54,9.54,0,0,1,1.406,3.281c.741,2.786,1.4,5.6,2.02,8.416.639,2.887,1.2,5.794,1.586,8.726.187,1.415.36,2.844.418,4.271a6.016,6.016,0,0,1-.7,3.519" transform="translate(-2201.632 -881.264)" fill="#f6b399"/>
    <path id="Path_47695" data-name="Path 47695" d="M2217.585,903.417a2.74,2.74,0,0,1-2.737,2.872h-.47a.73.73,0,0,0-.73.73V912.8h-6.121a.731.731,0,0,1-.731-.73v-.811a2.742,2.742,0,0,0-2.873-2.738,2.793,2.793,0,0,0-2.61,2.816v.734a.73.73,0,0,1-.73.73h-5.78V895.731a1.772,1.772,0,0,1,1.773-1.773h17.071v6.122a.73.73,0,0,0,.73.73h.392a2.791,2.791,0,0,1,2.814,2.607" transform="translate(-2194.07 -885.086)" fill="#f66957"/>
    <path id="Path_47696" data-name="Path 47696" d="M2220.423,978.76a2.8,2.8,0,0,0,2.824,2.618l1.79,0a.691.691,0,0,1,.694.691v5.812c-.01.01-17.584.01-17.584.01a1.261,1.261,0,0,1-1.261-1.26V969.056c.01-.01,5.618-.01,5.618-.01a.721.721,0,0,0,.721-.721v-1.077a2.8,2.8,0,0,1,2.619-2.824,2.74,2.74,0,0,1,2.863,2.738v1.163a.721.721,0,0,0,.721.721h6.293c.01.01.01,6.15.01,6.15a.7.7,0,0,1-.7.7h-1.869a2.74,2.74,0,0,0-2.738,2.863" transform="translate(-2201.152 -926.398)" fill="#19c5ff"/>
    <path id="Path_47697" data-name="Path 47697" d="M2210.826,887.326a.218.218,0,0,1-.321.112.753.753,0,0,1-.272-.448c-.247.022-.5.005-.744,0-.177,0-.355,0-.532,0-.116,0-.23-.012-.345-.023a12.558,12.558,0,0,1-.3,1.995,7.084,7.084,0,0,1-.686,1.974,1.4,1.4,0,0,1-1.2.784,1.476,1.476,0,0,1-1.241-.915,2.525,2.525,0,0,1-.1-.288,2.716,2.716,0,0,1-.411.957,1.511,1.511,0,0,1-1.632.653,1.475,1.475,0,0,1-.85-.76,1.584,1.584,0,0,1-.212.267,1.56,1.56,0,0,1-1.679.312c-1-.433-1.222-1.653-1.409-2.606-.113-.58-.217-1.181-.284-1.784-.19.069-.407.09-.6.152a4.985,4.985,0,0,0-.735.328c-.472.245-.924.531-1.4.76-.812.388-2.027.752-2.616-.181-.569-.9.01-1.9.622-2.6a6.992,6.992,0,0,1,5.188-2.378,3.243,3.243,0,0,1,1.04-1.2,2.33,2.33,0,0,1,2.692-.021,1.6,1.6,0,0,1,.442-.236,2.346,2.346,0,0,1,2.3.554,1.773,1.773,0,0,1,1.121-.562,1.611,1.611,0,0,1,.9.177,5.515,5.515,0,0,1,1.185,1.091,10.841,10.841,0,0,1,.89,1.186,11.7,11.7,0,0,1,.747,1.326c.088.185.168.371.245.56a.2.2,0,0,1,.1.249.764.764,0,0,1,.092.563" transform="translate(-2193.029 -878.075)" fill="#f6b399"/>
    <path id="Path_47698" data-name="Path 47698" d="M2290.124,916.463a1.056,1.056,0,0,1-.317-1.1,3.241,3.241,0,0,0,.011-1.477,2.224,2.224,0,0,0-.717-1.041c-.265-.217-.8-.53-1.147-.37a.2.2,0,0,0-.056.308c.148.136.366.155.542.251a1.869,1.869,0,0,1,.458.351,1.609,1.609,0,0,1,.457,1.045c.012.509-.182,1-.128,1.508a1.214,1.214,0,0,0,.659,1.026c.292.134.493-.326.239-.5" transform="translate(-2248.609 -895.914)" fill="#ee796a"/>
    <path id="Path_47699" data-name="Path 47699" d="M2298.354,920.964c-.213.235-.257.278-.3.326a2.79,2.79,0,0,1-.468.425,2.589,2.589,0,0,1-.917.328.248.248,0,0,0-.254.228.243.243,0,0,0,.229.253,2.388,2.388,0,0,0,1.231-.357,2.169,2.169,0,0,0,.516-.45,1.289,1.289,0,0,0,.179-.279.78.78,0,0,0,.1-.324.191.191,0,0,0-.315-.149" transform="translate(-2253.635 -900.893)" fill="#ee796a"/>
    <path id="Path_47700" data-name="Path 47700" d="M2314.925,918.557a1.072,1.072,0,0,0-.417-.017c-.141.008-.283.016-.424.029a4.54,4.54,0,0,0-.744.093.231.231,0,0,0,.038.455,4.585,4.585,0,0,0,.753.011c.126,0,.252-.011.377-.017a1.2,1.2,0,0,0,.456-.07.266.266,0,0,0-.039-.484" transform="translate(-2263.449 -899.491)" fill="#ee796a"/>
    <path id="Path_47701" data-name="Path 47701" d="M2303.209,928.112a5.344,5.344,0,0,1-3.167,1.409c-.067-.143-.133-.285-.2-.428a5.986,5.986,0,0,0,1.052-.219,5.741,5.741,0,0,0,1.988-1.119.241.241,0,0,1,.324.357" transform="translate(-2255.642 -904.866)" fill="#ee796a"/>
    <path id="Path_47702" data-name="Path 47702" d="M2288.471,915.579a.575.575,0,1,1-.575-.575.575.575,0,0,1,.575.575" transform="translate(-2248.302 -897.425)" fill="#36174d"/>
    <path id="Path_47703" data-name="Path 47703" d="M2300.28,913.7a.575.575,0,1,1-.575-.575.575.575,0,0,1,.575.575" transform="translate(-2255.224 -896.325)" fill="#36174d"/>
    <path id="Path_47704" data-name="Path 47704" d="M2283.786,910.615a1.462,1.462,0,0,0-1.025-.181,2.525,2.525,0,0,0-.935.415.965.965,0,0,0-.715.593.252.252,0,0,0,.292.324,4.914,4.914,0,0,1,2.066-.217c.2.021.43.1.611-.011.395-.243-.043-.766-.294-.923" transform="translate(-2244.656 -894.731)" fill="#36174d"/>
    <path id="Path_47705" data-name="Path 47705" d="M2296.528,908.458a2.1,2.1,0,0,0-1.289-.337,1.954,1.954,0,0,0-1.127.269.558.558,0,0,0-.024.883.551.551,0,0,0,.567-.01,3.052,3.052,0,0,1,.515-.172,6.279,6.279,0,0,1,1.269-.161.243.243,0,0,0,.089-.473" transform="translate(-2252.147 -893.39)" fill="#36174d"/>
    <path id="Path_47706" data-name="Path 47706" d="M2307.1,935.9a8.652,8.652,0,0,1-1.537,1.935,7.869,7.869,0,0,1-8.673,1.45,7.09,7.09,0,0,1-3.983-5.613l.711.11,12.7,1.995Z" transform="translate(-2251.576 -908.37)" fill="#f6b399"/>
    <path id="Path_47707" data-name="Path 47707" d="M2364.737,983.968c0,3.348-10.175,5.69-11.554,4.828-.663-.414-2.516-3.25-4.267-6.09-1.894-3.074-3.667-6.152-3.667-6.152l2.2-1.007,5.038-2.311,5.473-2.508c.156.23.909,1.369,3.68,5.8.825,1.319,1.407,2.257,1.84,3a6.426,6.426,0,0,1,1.257,4.438" transform="translate(-2282.259 -930.095)" fill="#f6b399"/>
    <path id="Path_47708" data-name="Path 47708" d="M2314.4,926.249a1.035,1.035,0,1,1-1.035-1.035,1.035,1.035,0,0,1,1.035,1.035" transform="translate(-2262.959 -903.411)" fill="#f5f5fa"/>
    <path id="Path_47709" data-name="Path 47709" d="M2221.639,885.562c.055-.339.121-.678.2-1.013.081-.356.15-.727.249-1.078a.2.2,0,0,0-.386-.128c-.062.174-.149.335-.2.513s-.1.353-.148.53c-.093.354-.168.71-.232,1.07a15.111,15.111,0,0,0-.221,2.154,15.364,15.364,0,0,0,.093,2.159c.041.365.1.73.163,1.091.034.18.072.36.112.54a.858.858,0,0,0,.193.48.238.238,0,0,0,.4-.084.908.908,0,0,0-.042-.517c-.041-.18-.079-.359-.113-.54q-.1-.5-.156-1.012a14.883,14.883,0,0,1-.094-2.089,15.076,15.076,0,0,1,.191-2.077" transform="translate(-2209.36 -878.784)" fill="#ee796a"/>
    <path id="Path_47710" data-name="Path 47710" d="M2214.723,882.655a9.448,9.448,0,0,0-.72,2.312,17.721,17.721,0,0,0-.335,2.338,17.208,17.208,0,0,0-.012,2.367q.037.589.112,1.174.041.313.094.625a2.028,2.028,0,0,0,.148.6.256.256,0,0,0,.478-.1,2.555,2.555,0,0,0-.083-.616c-.031-.182-.059-.364-.084-.547q-.075-.55-.113-1.1a17.268,17.268,0,0,1,0-2.328,16.651,16.651,0,0,1,.313-2.273c.161-.762.417-1.5.589-2.255.05-.221-.271-.429-.392-.189" transform="translate(-2205.1 -878.397)" fill="#ee796a"/>
    <path id="Path_47711" data-name="Path 47711" d="M2206.546,885.454a3.425,3.425,0,0,0-.323,1c-.077.362-.139.727-.181,1.1a10.834,10.834,0,0,0-.015,2.188.258.258,0,0,0,.305.194.263.263,0,0,0,.195-.305,10.829,10.829,0,0,1,.025-2.052c.035-.336.085-.67.153-1a7.607,7.607,0,0,0,.206-1,.2.2,0,0,0-.366-.119" transform="translate(-2200.621 -880.048)" fill="#ee796a"/>
    <path id="Path_47712" data-name="Path 47712" d="M2221.4,890.533a.282.282,0,0,0-.339.026c-.251.193-.143.853-.15,1.129-.031,1.282.165,3.154-.823,4.156a1.353,1.353,0,0,1-.934.442,1.387,1.387,0,0,1-.93-.372c-.055-.224-.388-.331-.5-.11-.063.121-.1.253-.167.372a1.439,1.439,0,0,1-.231.3,1.391,1.391,0,0,1-.672.374,1.408,1.408,0,0,1-.783-.06c-.273-.1-.466-.334-.735-.43a.2.2,0,0,0-.254.229c.058.363.487.595.8.716a1.908,1.908,0,0,0,1.1.091,1.933,1.933,0,0,0,.91-.492,2.133,2.133,0,0,0,.382-.487,1.427,1.427,0,0,0,1.02.426,1.88,1.88,0,0,0,1.282-.49c1.454-1.286,1.174-3.6,1.2-5.334a.511.511,0,0,0-.17-.488" transform="translate(-2205.837 -883.051)" fill="#fff"/>
    <path id="Path_47713" data-name="Path 47713" d="M2236.4,894.3c-.073,1.294-.761,3.3-1.822,4.027-.185.127-.317-.419-.319-.609-.008-.654-.071-1.706-.063-2.374-.234-.131-.467-.271-.707-.381-.412-.194-.833-.368-1.26-.519a4.327,4.327,0,0,1-1.953-.855,1.5,1.5,0,0,1,.14-1.978c1.219-1.366,3.928-1.149,5.116.138a3.412,3.412,0,0,1,.867,2.551" transform="translate(-2214.679 -883.167)" fill="#f6b399"/>
    <path id="Path_47714" data-name="Path 47714" d="M2209.5,899.616a.958.958,0,0,1-.969.434,1.576,1.576,0,0,1-1.024-.721c-.639-.953-.416-2.162-.847-3.182-.087-.2-.452-.134-.437.1a17,17,0,0,0,.244,2.024,3.573,3.573,0,0,0,.751,1.718,1.975,1.975,0,0,0,1.477.716,1.579,1.579,0,0,0,1.344-.732c.21-.355-.326-.707-.537-.351" transform="translate(-2200.763 -886.298)" fill="#fff"/>
    <path id="Path_47715" data-name="Path 47715" d="M2199.721,895.852a4.456,4.456,0,0,1-.738.157,3.966,3.966,0,0,0-.676.274c-.426.212-.826.47-1.252.683a2.821,2.821,0,0,1-2.252.3v-.552a2.551,2.551,0,0,0,1.147.045,4.411,4.411,0,0,0,1.2-.519,11.358,11.358,0,0,1,1.224-.657,3.951,3.951,0,0,1,.621-.207,1.173,1.173,0,0,1,.683-.026.278.278,0,0,1,.04.505" transform="translate(-2194.069 -885.875)" fill="#fff"/>
    <path id="Path_47716" data-name="Path 47716" d="M2277.346,940.937c-.709,1.544-1.523,3.059-2.313,4.583a.516.516,0,0,1-.557.2,25.258,25.258,0,0,0-4.837-.479,25.13,25.13,0,0,1-.546-2.836q-.963-5.367-1.9-10.733a40.83,40.83,0,0,1,9.709.566c.222.033,1.147,7.174.443,8.705" transform="translate(-2236.503 -907.153)" fill="#36174d"/>
    <path id="Path_47717" data-name="Path 47717" d="M2280.689,969.352a9.424,9.424,0,0,1-3.9-5,9.311,9.311,0,0,1,1.958-9.062.372.372,0,0,0,.181-.2q.155-.163.317-.317c.323-.305-.139-.818-.462-.512a4.33,4.33,0,0,1-.667-1.095.348.348,0,0,0-.465-.148.352.352,0,0,0-.148.465q.339.7.678,1.4a10.2,10.2,0,0,0-2.49,5.745,10.038,10.038,0,0,0,4.619,9.3c.376.237.754-.34.378-.577" transform="translate(-2241.46 -919.688)" fill="#fff"/>
    <path id="Path_47718" data-name="Path 47718" d="M2263.392,975.609v1.961a2.8,2.8,0,0,1-2.619,2.823,2.74,2.74,0,0,1-2.864-2.738v-2.046c-.01-.009-6.33-.009-6.33-.009s-.009,6.359-.009,6.359a.492.492,0,0,1-.492.492h-1.992a2.8,2.8,0,0,0-2.824,2.616,2.74,2.74,0,0,0,2.738,2.864h2.078a.492.492,0,0,1,.492.492v6.007c.009.009,17.056.009,17.056.009a1.789,1.789,0,0,0,1.789-1.788V975.609c-.009-.009-7.015-.009-7.015-.009a.009.009,0,0,0-.009.009" transform="translate(-2224.233 -932.951)" fill="#ffbb4d"/>
    <path id="Path_47719" data-name="Path 47719" d="M2333.688,985.842c-.194-.359-.394-.715-.585-1.075a15.851,15.851,0,0,0-.844-1.359c-.209-.31-.422-.615-.642-.919a3.386,3.386,0,0,0-.741-.86c-.16-.112-.441.05-.369.255a3,3,0,0,0,.469.772c.19.257.378.517.559.781.2.288.389.578.574.874a5.977,5.977,0,0,0-3.489-1.126,6.123,6.123,0,0,0-4.769,2.334c-3.064.314-6.058.833-9.092,1.162-2.56.278-5.919.072-8.2-1.273-2.12-1.251-3.177-3.919-5.267-5.324a3.482,3.482,0,0,0-1.775-.692,1.826,1.826,0,0,0-1.447.619,1.374,1.374,0,0,0-.141,1.552,3.354,3.354,0,0,0,1.419,1.207,5.619,5.619,0,0,1,2.114,2.147,11.688,11.688,0,0,0-1.131-.348,11.824,11.824,0,0,0-2.989-.4,3.683,3.683,0,0,0-2.685.935,2.316,2.316,0,0,0-.559,2.464,1.719,1.719,0,0,0-.519.724,1.449,1.449,0,0,0,.868,1.931.4.4,0,0,0,.208-.012,1.413,1.413,0,0,0-.472,1.662,1.747,1.747,0,0,0,1.605.881c.752,0,1.468-.291,2.219-.315a5.478,5.478,0,0,1,3.21.91c.328.219.6.491.919.724.734.1,1.3.957,1.687,1.321a2.8,2.8,0,0,0,2.061.832q3.283.323,6.58.46a139.546,139.546,0,0,0,15.342-.156c4.346-.3,7.846-3.419,6.95-8.015a9.467,9.467,0,0,0-1.073-2.674" transform="translate(-2251.918 -935.175)" fill="#f6b399"/>
    <path id="Path_47720" data-name="Path 47720" d="M2301.4,996.793a1.953,1.953,0,0,0-.526-.192c-.184-.054-.369-.108-.557-.154-.372-.094-.75-.17-1.128-.236a9.156,9.156,0,0,0-2.184-.136,6.688,6.688,0,0,0-1.887.391,3.67,3.67,0,0,0-1.621,1.019c-.156.2.113.483.328.364.259-.145.485-.345.745-.492a4.923,4.923,0,0,1,.811-.369,6.186,6.186,0,0,1,1.732-.332,9.455,9.455,0,0,1,2.045.146c.355.061.7.142,1.054.224.161.038.323.075.484.114a2.223,2.223,0,0,0,.554.113.253.253,0,0,0,.15-.46" transform="translate(-2251.895 -944.945)" fill="#ee796a"/>
    <path id="Path_47721" data-name="Path 47721" d="M2302.509,991.431a4.588,4.588,0,0,0-1.048-.477,9.411,9.411,0,0,0-1.065-.323,9.805,9.805,0,0,0-2.249-.276c-1.35,0-2.926.267-3.714,1.492a2.024,2.024,0,0,0-.225,2,.229.229,0,0,0,.425-.154,1.968,1.968,0,0,1,.257-1.509,2.526,2.526,0,0,1,1.374-.98,7.514,7.514,0,0,1,3.866-.01,9.467,9.467,0,0,1,1.067.315c.36.13.7.323,1.062.443a.292.292,0,0,0,.251-.52" transform="translate(-2252.235 -941.602)" fill="#ee796a"/>
    <path id="Path_47722" data-name="Path 47722" d="M2293.7,1001.513a1.411,1.411,0,0,1-.617-.337,1.2,1.2,0,0,1-.328-.6,1.368,1.368,0,0,1,.543-1.276c.171-.149-.024-.393-.217-.312a1.574,1.574,0,0,0-.817,1.7,1.658,1.658,0,0,0,1.344,1.328c.288.033.362-.409.093-.5" transform="translate(-2251.188 -946.652)" fill="#ee796a"/>
    <path id="Path_47723" data-name="Path 47723" d="M2302.059,1006.994a2.952,2.952,0,0,0-1.788-.891,9.122,9.122,0,0,0-2.1-.092,10.249,10.249,0,0,1-2.328-.055c-.491-.093-1.157-.218-1.283-.792-.147-.674.612-1.322,1.145-1.58a6.144,6.144,0,0,1,2.1-.479,8.65,8.65,0,0,1,2.166.073,8.236,8.236,0,0,1,1.057.244c.292.087.7.346.972.141a.219.219,0,0,0,.068-.211c-.038-.218-.228-.275-.414-.342s-.392-.133-.591-.189a9.5,9.5,0,0,0-1.139-.242,8.925,8.925,0,0,0-2.4-.03,5.768,5.768,0,0,0-2.6.9c-.689.486-1.393,1.691-.616,2.432a3.157,3.157,0,0,0,1.772.671c1.282.163,2.575-.115,3.856.062a4.053,4.053,0,0,1,.949.245,5.078,5.078,0,0,1,.867.494.238.238,0,0,0,.306-.358" transform="translate(-2252.198 -948.712)" fill="#ee796a"/>
    <path id="Path_47724" data-name="Path 47724" d="M2307.689,985.175c-.281-1.155-1.377-1.669-2.3-2.237a2.734,2.734,0,0,1-1.1-1.06,1.238,1.238,0,0,1,.105-1.24.257.257,0,0,0-.386-.33,1.447,1.447,0,0,0-.391,1.424,2.459,2.459,0,0,0,.9,1.333c.836.7,2.288,1.059,2.576,2.243a.308.308,0,0,0,.6-.133" transform="translate(-2257.83 -935.677)" fill="#ee796a"/>
    <path id="Path_47725" data-name="Path 47725" d="M2332.17,985.5c-1.117.044-2.235.053-3.353.1s-2.208.1-3.312.149c-2.214.1-4.428.2-6.641.309-1.812.09-3.8.167-5.419-.782-1.518-.888-2.448-2.458-3.574-3.756a7.321,7.321,0,0,0-2.367-1.856,3.526,3.526,0,0,0-2.831-.221c-.2.086-.077.4.129.355a3.634,3.634,0,0,1,2.5.369,7.3,7.3,0,0,1,2.059,1.724c1.125,1.314,2.038,2.863,3.509,3.837a9.091,9.091,0,0,0,5.375,1.077c2.166-.065,4.331-.193,6.5-.294,1.219-.057,2.438-.11,3.657-.172,1.25-.064,2.5-.17,3.746-.236.379-.02.417-.613.03-.6" transform="translate(-2258.412 -935.081)" fill="#fff"/>
    <path id="Path_47726" data-name="Path 47726" d="M2234.42,895.954a6,6,0,0,0-1.7-1.133,13.865,13.865,0,0,0-1.914-.528,1.413,1.413,0,0,1-1.158-1.2,1.262,1.262,0,0,1,.2-.786,3.712,3.712,0,0,1,.6-.6.2.2,0,0,0-.125-.35c-.694.015-1.192.773-1.286,1.4a1.914,1.914,0,0,0,.823,1.839,7.979,7.979,0,0,0,2.1.674,5.163,5.163,0,0,1,1.935,1.149c.324.307.844-.159.518-.468" transform="translate(-2214.128 -883.565)" fill="#fff"/>
    <path id="Path_47727" data-name="Path 47727" d="M2345.181,984.654a3.511,3.511,0,0,0-.565-.95c-.2-.308-.408-.614-.609-.923q-.58-.893-1.135-1.8c-.37-.607-.735-1.216-1.09-1.83a14.294,14.294,0,0,0-1.144-1.886.277.277,0,0,0-.273-.087c-.2.125-.244.249-.216.339a10.58,10.58,0,0,0,.975,1.975c.355.631.717,1.257,1.093,1.875s.761,1.231,1.155,1.838c.194.3.386.6.588.888.112.161.225.321.337.482a1.578,1.578,0,0,0,.372.436.34.34,0,0,0,.513-.354" transform="translate(-2279.264 -933.87)" fill="#fff"/>
    <path id="Path_47728" data-name="Path 47728" d="M2362.94,918.665a.806.806,0,0,0-.231-.461,1.878,1.878,0,0,0-.8-.467,2.019,2.019,0,0,0-1.852.378.422.422,0,0,0-.2.209,1.662,1.662,0,0,0,1.946,2.234,1.789,1.789,0,0,0,1.151-1.417,1.484,1.484,0,0,0-.009-.476m-.676.412c-1.551.582-1.594.529-1.638.476a1.88,1.88,0,0,1-.147-.273c.512-.9.615-.917.719-.93a2.23,2.23,0,0,1,.328.008c.749.621.743.669.739.719" transform="translate(-2290.74 -898.982)" fill="#19c5ff"/>
  </g>
</svg>
