<svg id="Group_18954" data-name="Group 18954" xmlns="http://www.w3.org/2000/svg" width="86.415" height="75.501" viewBox="0 0 86.415 75.501">
  <path id="Path_47729" data-name="Path 47729" d="M2035.284,674.544l-9.3-21.766c1.027-4.587-2.125-9.153-7.017-10.29-7.972-1.852-16.909,5.67-11.827,12.5,0,0-1.273,17.764-1.286,18.347Z" transform="translate(-1966.465 -622.601)" fill="#36174d"/>
  <path id="Path_47730" data-name="Path 47730" d="M2041.666,672.639a2.05,2.05,0,1,1-1.217-2.631,2.05,2.05,0,0,1,1.217,2.631" transform="translate(-1985.321 -638.896)" fill="#f6b399"/>
  <path id="Path_47731" data-name="Path 47731" d="M2025.95,661.91a6.381,6.381,0,0,1-8.19,3.788,5.939,5.939,0,0,1-3.525-7.9,8.329,8.329,0,0,1,.456-1.689,10.293,10.293,0,0,1,3.367-2.654,19.877,19.877,0,0,0,2.546,3.927,16.992,16.992,0,0,0,5.429,4.286c-.026.081-.053.162-.083.241" transform="translate(-1971.263 -629.226)" fill="#f6b399"/>
  <path id="Path_47732" data-name="Path 47732" d="M2031.451,685.315l-4.39.01-.7-4.04-.134-.777-.067-.384,4.054-2.173Z" transform="translate(-1978.533 -643.646)" fill="#f6b399"/>
  <path id="Path_47733" data-name="Path 47733" d="M1976.71,604.638q-2.653,2.668-5.473,5.162a5.468,5.468,0,0,0,.912.171,12.348,12.348,0,0,0,1.748,0,3.535,3.535,0,0,1,2.593.5,1.679,1.679,0,0,1,.833,1.351c-.041.494.212.771-.226.948a9.564,9.564,0,0,1-1.592.377q-.9.19-1.794.409-1.743.427-3.46.96a58.373,58.373,0,0,0-6.4,2.405l-3.527,6.276-10.242-5.645c1.222-1.957,3.031-4.859,3.031-4.859a29.527,29.527,0,0,1,2.222-5.893c1.865-2.841,4.311-3.587,5.47-5.173q.427-1.816.929-3.614c.177-.632.344-1.273.558-1.9a2.3,2.3,0,0,1,1.008-1.356,1.7,1.7,0,0,1,1.627-.025,1.4,1.4,0,0,1,.582,1.45c-.135,1.3-.386,2.6-.584,3.89.384-.746.786-1.484,1.207-2.209a9.332,9.332,0,0,1,1.432-2.065,2.385,2.385,0,0,1,1.956-.736,1.8,1.8,0,0,1,1.327.81c.075-.035.154-.066.233-.093a1.9,1.9,0,0,1,1.686.227,1.574,1.574,0,0,1,.518,1.661,8.759,8.759,0,0,1-.889,1.965q-.548,1.084-1.1,2.167-.866,1.707-1.732,3.413c.544.132,1.294-.581,1.648-.85q1.226-.934,2.453-1.867a13.812,13.812,0,0,1,2.033-1.455,2.1,2.1,0,0,1,2.034-.035,1.367,1.367,0,0,1,.585,1.761,3.294,3.294,0,0,1-.681.925q-.458.476-.927.942" transform="translate(-1933.754 -594.543)" fill="#f6b399"/>
  <path id="Path_47734" data-name="Path 47734" d="M2021.262,664.28a.563.563,0,1,1-.563-.563.563.563,0,0,1,.563.563" transform="translate(-1974.988 -635.266)" fill="#36174d"/>
  <path id="Path_47735" data-name="Path 47735" d="M2033.261,665.649a.563.563,0,1,1-.563-.563.563.563,0,0,1,.563.563" transform="translate(-1982.05 -636.072)" fill="#36174d"/>
  <path id="Path_47736" data-name="Path 47736" d="M2022.741,660.316a.4.4,0,0,0-.459-.292.387.387,0,0,0-.292.459c.212.66.5,1.537-.134,2.055a1.548,1.548,0,0,0-.725.957.769.769,0,0,0,.7.87.384.384,0,0,0,.067-.763.638.638,0,0,1,.264-.327,2.111,2.111,0,0,0,.7-.808,3.03,3.03,0,0,0-.116-2.15" transform="translate(-1975.569 -633.086)" fill="#ee796a"/>
  <path id="Path_47737" data-name="Path 47737" d="M2019.168,658.471a1.582,1.582,0,0,0-.542-.329,2.156,2.156,0,0,0-1.1-.114,2.037,2.037,0,0,0-1.108.534.39.39,0,0,0-.027.543.416.416,0,0,0,.169.1.339.339,0,0,0,.3.063,2.976,2.976,0,0,1,.292-.069,3.173,3.173,0,0,1,.555-.028c.663.107,1.113.413,1.475.1a.556.556,0,0,0-.017-.808" transform="translate(-1972.728 -631.903)" fill="#36174d"/>
  <path id="Path_47738" data-name="Path 47738" d="M2031.417,661.362a4.353,4.353,0,0,0-1.686-.566.978.978,0,0,0-.716.6.388.388,0,0,0,.346.5q.487.037.969.121c.242.048.327.067.412.086.545.127,1.575-.192.675-.741" transform="translate(-1980.198 -633.544)" fill="#36174d"/>
  <path id="Path_47739" data-name="Path 47739" d="M2025.64,670.717a.39.39,0,0,0-.543-.028,2.457,2.457,0,0,1-.192.172,2.677,2.677,0,0,1-.37.227,1.945,1.945,0,0,1-1.107.18.387.387,0,0,0-.4.364.394.394,0,0,0,.365.4,2.772,2.772,0,0,0,2.224-.777.391.391,0,0,0,.028-.543" transform="translate(-1976.688 -639.314)" fill="#ee796a"/>
  <path id="Path_47740" data-name="Path 47740" d="M2041.634,673.589a.394.394,0,0,0-.458-.292l-1.8.288a.388.388,0,0,0-.292.459.394.394,0,0,0,.459.292l1.8-.288a.387.387,0,0,0,.292-.459" transform="translate(-1986.135 -640.902)" fill="#ee796a"/>
  <path id="Path_47741" data-name="Path 47741" d="M2029.892,683.093a7.073,7.073,0,0,1-3.436.79l-.135-.777a6.307,6.307,0,0,0,3.218-.7.384.384,0,0,1,.354.682" transform="translate(-1978.628 -646.244)" fill="#ee796a"/>
  <path id="Path_47742" data-name="Path 47742" d="M1993.888,695.085a7.259,7.259,0,0,1-5.354,7,7.646,7.646,0,0,1-1.073.3,17.622,17.622,0,0,1-3.995.321,19.129,19.129,0,0,1-4.067-.554,5.26,5.26,0,0,1-2.881-1.507c-8.452-.035-24.946-.087-25.215.021s-4.665-8.977-7.267-14.387q-.185-.384-.356-.742c-.637.054-1.2.1-1.775.146q-2.265.181-4.533.336l-.235.018c-.438.028-.875.059-1.313.086-2.757.177-5.515.321-8.277.415-3.2.109-6.4.153-9.6.109a.335.335,0,0,1-.281-.139,7.958,7.958,0,0,1-6.8-10.647.793.793,0,0,1,.173-.54,51.434,51.434,0,0,1,1.906-5.187,51.9,51.9,0,0,1,12.579-17.732c.409-.658.812-1.3,1.194-1.913l10.242,5.645-7.653,13.624-.379.672c.108-.025.217-.048.325-.071l.677-.146,2.286-.494,1.508-.327q2.582-.557,5.161-1.115a36.793,36.793,0,0,1,7.206-1.006c2.854-.054,5.7.206,8.547.365l13.811.779c3.864.219,8.054-.694,11.323,1.765,2.81,2.113,6.286,7.781,9.033,12.887.144.271.288.54.429.807,2.467,4.668,4.244,8.669,4.219,8.729a7.249,7.249,0,0,1,.434,2.476" transform="translate(-1910.389 -627.482)" fill="#19c5ff"/>
  <path id="Path_47743" data-name="Path 47743" d="M2082.275,728.863q-.79,1.431-1.583,2.861a.385.385,0,0,1-.606.046l-3.4-3.714q-.8,2.927-1.606,5.854a.387.387,0,0,1-.65.137l-3.644-4.217a13.1,13.1,0,0,0-1.484,2.56c-.137.311-.262.63-.372.953-.159-.31-.32-.619-.477-.93.121-.3.255-.6.4-.9a13.529,13.529,0,0,1,1.593-2.505.389.389,0,0,1,.605-.046q1.742,2.013,3.483,4.029.8-2.915,1.6-5.831a.389.389,0,0,1,.651-.137q1.753,1.918,3.507,3.834.777-1.4,1.552-2.8c.144.271.289.54.429.807" transform="translate(-2003.429 -672.464)" fill="#fff"/>
  <path id="Path_47744" data-name="Path 47744" d="M1952.442,638.678a13.163,13.163,0,0,0,4.234,3.745,16.473,16.473,0,0,0,5.726,1.869l-3.466,6.167a11.987,11.987,0,0,1-6.1-1.965c-3.158-2.023-3.9-4.2-3.9-4.2Z" transform="translate(-1933.081 -620.526)" fill="#fff"/>
  <path id="Path_47745" data-name="Path 47745" d="M2020.489,687.385l4.4-.47,1.3,2.7-1.494,7.106-3.279-4.9-5.471,4.117,3.725-6.723Z" transform="translate(-1972.519 -648.924)" fill="#fff"/>
  <path id="Path_47746" data-name="Path 47746" d="M1970.319,709.77q-2.235,1.032-4.471,2.069,1.408.551,2.756,1.242l-.235.018c-.439.029-.875.06-1.313.086q-1.14-.524-2.323-.946a.388.388,0,0,1-.056-.706l4.779-2.211a15.956,15.956,0,0,0-4.313-2.717.39.39,0,0,1-.058-.707,34.569,34.569,0,0,0,4.213-2.7,22.1,22.1,0,0,0-4.85-1.771.387.387,0,0,1-.138-.649,24.2,24.2,0,0,1,3.544-2.6q-2.2-.7-4.406-1.4c.5-.11,1.006-.217,1.508-.327q1.981.631,3.961,1.261a.389.389,0,0,1,.056.707,23.211,23.211,0,0,0-3.592,2.455,22.85,22.85,0,0,1,4.842,1.944.385.385,0,0,1,.048.605,36.294,36.294,0,0,1-4.157,2.778,17,17,0,0,1,4.315,2.965.388.388,0,0,1-.109.6" transform="translate(-1941.62 -654.539)" fill="#fff"/>
  <path id="Path_47747" data-name="Path 47747" d="M1951.082,697.8q-2.166,3.608-4.06,7.37a.387.387,0,0,1-.533.111.4.4,0,0,1-.112-.533q1.9-3.777,4.081-7.4l-.379.673c.108-.025.218-.048.325-.071l.677-.146" transform="translate(-1931.541 -655.062)" fill="#36174d"/>
  <path id="Path_47748" data-name="Path 47748" d="M2068.364,739.413q-.939-1.828-1.877-3.661-1.336-2.6-2.674-5.212c-.159-.31-.32-.619-.477-.931-.3-.586-.6-1.17-.9-1.757q-.747-1.457-1.494-2.913l-1.135-2.213c-.226-.441.437-.831.664-.391q.937,1.832,1.877,3.663c.246.479.49.957.736,1.437.217.425.437.851.654,1.277.141.273.279.544.419.817,1.644,3.2,3.257,6.349,4.871,9.5.225.44-.438.828-.662.388" transform="translate(-1998.31 -669.662)" fill="#36174d"/>
  <path id="Path_47749" data-name="Path 47749" d="M1996,712.67a14.463,14.463,0,0,0-4.288,6.61,14.234,14.234,0,0,0-.052,8.128,14.538,14.538,0,0,0,2.055,4.28.387.387,0,0,0,.543.028.4.4,0,0,0,.028-.543,13.633,13.633,0,0,1-2.425-7.456,13.586,13.586,0,0,1,4.654-10.474c.374-.326-.142-.9-.516-.571" transform="translate(-1957.892 -664.028)" fill="#fff"/>
  <path id="Path_47750" data-name="Path 47750" d="M2002.8,710.653q-.292-.8-.585-1.6a.382.382,0,0,0-.22-.188.39.39,0,0,0-.3.023.383.383,0,0,0-.188.22.453.453,0,0,0,.023.3l.585,1.6a.379.379,0,0,0,.22.188.4.4,0,0,0,.3-.023.389.389,0,0,0,.188-.221.452.452,0,0,0-.024-.3" transform="translate(-1964.014 -661.833)" fill="#fff"/>
  <path id="Path_47751" data-name="Path 47751" d="M1993.052,629.718c-1.219-.446-2.55-.023-3.805-.108-2.573-.173-4.916-1.781-7.553-1.384a4.088,4.088,0,0,0-2.921,1.8c-.257.423.386.845.644.421,1.154-1.9,3.7-1.636,5.524-1.118a33.994,33.994,0,0,0,3.455.949,7.723,7.723,0,0,0,1.811.094,15.208,15.208,0,0,1,1.762-.078c.9.048,2.15.6,1.994,1.69-.07.49.7.526.769.039a2.307,2.307,0,0,0-1.678-2.306" transform="translate(-1950.606 -614.335)" fill="#ee796a"/>
  <path id="Path_47752" data-name="Path 47752" d="M2005.624,609.345c-.837-1.109-2.42-.905-3.484-.29a18.305,18.305,0,0,0-1.816,1.3l-1.933,1.459-1.1.83-.569.429c-.053.04-.11.079-.166.121a.391.391,0,0,0-.649.357.628.628,0,0,0,.638.489.648.648,0,0,0,.431-.195c.155-.129.325-.25.489-.373l2.008-1.516,2.009-1.516a5.416,5.416,0,0,1,1.856-1.063,1.612,1.612,0,0,1,1.713.486c.3.4.868-.123.571-.515" transform="translate(-1960.721 -602.791)" fill="#ee796a"/>
  <path id="Path_47753" data-name="Path 47753" d="M1993.036,597.1a28.374,28.374,0,0,0-5.053,7.783.386.386,0,0,0,.244.486.392.392,0,0,0,.486-.244,27.3,27.3,0,0,1,4.839-7.454c.331-.363-.182-.936-.515-.57" transform="translate(-1956.047 -595.981)" fill="#ee796a"/>
  <path id="Path_47754" data-name="Path 47754" d="M1989.385,595.746a1.941,1.941,0,0,0-1.554-1,2.647,2.647,0,0,0-1.879.54,5.973,5.973,0,0,0-1.453,1.734c-.484.776-.958,1.558-1.436,2.338l-1.7,2.764c-.26.422.384.844.643.421l2.67-4.349c.618-1.007,1.319-2.489,2.631-2.679a1.311,1.311,0,0,1,1.392.589.385.385,0,0,0,.683-.354" transform="translate(-1952.132 -594.65)" fill="#ee796a"/>
  <path id="Path_47755" data-name="Path 47755" d="M2065.364,759.647c-1.89.071-3.384-1.33-4.606-2.594-.631-.654-1.332-1.256-1.921-1.948a4.236,4.236,0,0,1-.8-1.37c-.339-.083-.444-.3-.383-.5a8,8,0,0,1,1.385-2.615l-.89-.45a.388.388,0,0,1-.111-.533.4.4,0,0,1,.532-.111c1.96.99,3.394,1.216,5.255,2.383a7.649,7.649,0,0,1,1.458.995c.685.582,2.668,2.7,2.85,3.6a2.734,2.734,0,0,1-2.769,3.146" transform="translate(-1997.062 -685.749)" fill="#f6b399"/>
  <path id="Path_47756" data-name="Path 47756" d="M2054.578,751.086a5.535,5.535,0,0,0-1.836-1.43c-1.521-.883-2.857-2.148-4.675-2.37-.173-.121-.35-.238-.531-.347a8.2,8.2,0,0,0-5.422-1.213,4.569,4.569,0,0,0-2.536,1.236,2.068,2.068,0,0,0-.438,2.678,1.386,1.386,0,0,0,1.171.586,2.045,2.045,0,0,0,1.221-.619,3.862,3.862,0,0,1,1.115-.783,2.89,2.89,0,0,1,1.24-.192,4.88,4.88,0,0,0-1.3,2,4.633,4.633,0,0,0,.144,3.438,1.859,1.859,0,0,0,1.383,1.107,1.344,1.344,0,0,0,1.154-.408,1.636,1.636,0,0,0,.9.771,1.738,1.738,0,0,0,1.639-.341,1.508,1.508,0,0,0,1.578.819,2.093,2.093,0,0,0,1.425-1.484,2.751,2.751,0,0,1,.465-1.1c.275-.278.573-.132.881.014,1.317.626,3.1-.067,2.7-1.755a1.817,1.817,0,0,0-.272-.6" transform="translate(-1985.979 -683.498)" fill="#f6b399"/>
  <path id="Path_47757" data-name="Path 47757" d="M2061.009,754.434a.771.771,0,0,0-1.182-.141,2.947,2.947,0,0,0-.779,1.184c-.31.739-.5,1.869-1.378,2.157a.816.816,0,0,1-.923-.326,1.256,1.256,0,0,1-.171-.31.366.366,0,0,0-.078-.269,2.41,2.41,0,0,1-.033-.6,9.657,9.657,0,0,1,.576-2.605,4.491,4.491,0,0,1,1.512-2.194c.4-.294-.121-.862-.516-.571-1.483,1.092-1.987,3.033-2.272,4.758a3.863,3.863,0,0,0,0,1.411.862.862,0,0,1-1.076.156,1.863,1.863,0,0,1-.8-1.565,8.161,8.161,0,0,1,.224-2.191,5.809,5.809,0,0,1,.805-1.976,3.682,3.682,0,0,1,1.609-1.361c.456-.194.1-.876-.354-.683a5.249,5.249,0,0,0-2.819,3.907c-.312,1.485-.613,3.8,1.075,4.6a1.7,1.7,0,0,0,1.646-.125,1.849,1.849,0,0,0,.457.473,1.767,1.767,0,0,0,2.427-.614,6.333,6.333,0,0,0,.695-1.528,4.273,4.273,0,0,1,.328-.724,1.888,1.888,0,0,1,.249-.339c.248.02.431.084.606-.007a.388.388,0,0,0,.165-.519" transform="translate(-1994.402 -685.636)" fill="#ee796a"/>
  <path id="Path_47758" data-name="Path 47758" d="M2049.662,747.782a6.331,6.331,0,0,0-2.863,1.836.4.4,0,0,0-.214-.083,2.822,2.822,0,0,0-1.508.3.385.385,0,1,0,.354.683c.069-.035.14-.067.213-.1a2.725,2.725,0,0,1,.54-.12,6.746,6.746,0,0,0-.9,3.864.4.4,0,0,0,.364.4.387.387,0,0,0,.4-.365,5.524,5.524,0,0,1,.973-3.64,5.432,5.432,0,0,1,2.808-2.031c.469-.145.308-.9-.167-.751" transform="translate(-1989.545 -684.745)" fill="#ee796a"/>
  <path id="Path_47759" data-name="Path 47759" d="M2069.254,762.923s2.6,1.275,4.2.4.773-3.742-.034-4.641a23.2,23.2,0,0,0-1.787-1.825l3.242.856s4.227,2.514,2.55,5.537c-.988,1.781-4.16,1.567-5.648,1.093a7.5,7.5,0,0,1-2.523-1.421" transform="translate(-2003.899 -690.1)" fill="#fff"/>
  <path id="Path_47760" data-name="Path 47760" d="M2021.835,771.156h-33.55a1.431,1.431,0,1,0,0,2.862h33.55a1.431,1.431,0,1,0,0-2.862" transform="translate(-1955.397 -698.516)" fill="#36174d"/>
  <path id="Path_47761" data-name="Path 47761" d="M2001.355,742.936a1.179,1.179,0,0,1-.236.023l-.806-.033a2.162,2.162,0,0,1-.361.033h-24.046a3.863,3.863,0,0,1-3.331-2.444l-5.934-16.3a2.024,2.024,0,0,1-.006-1.553,2.977,2.977,0,0,1,2.6-1.836h24.044a3.864,3.864,0,0,1,3.333,2.442l5.933,16.3c.462,1.267-.011,3.145-1.189,3.369" transform="translate(-1943.407 -668.887)" fill="#19c5ff"/>
  <path id="Path_47762" data-name="Path 47762" d="M2001.355,744.984a1.179,1.179,0,0,1-.236.023l-.806-.033a2.168,2.168,0,0,1-.361.033h-24.046a3.863,3.863,0,0,1-3.331-2.444l-5.934-16.3a2.024,2.024,0,0,1-.006-1.553,2.738,2.738,0,0,1,1.35-.406h24.046a3.864,3.864,0,0,1,3.331,2.441l5.934,16.3a3.342,3.342,0,0,1,.06,1.936" transform="translate(-1943.407 -670.936)" fill="#36174d"/>
  <path id="Path_47763" data-name="Path 47763" d="M2005.94,747.324a1.26,1.26,0,0,1-1.185,1.862,2.946,2.946,0,0,1-2.541-1.862,1.26,1.26,0,0,1,1.184-1.862,2.946,2.946,0,0,1,2.541,1.862" transform="translate(-1964.368 -683.39)" fill="#fff"/>
  <path id="Path_47764" data-name="Path 47764" d="M2081.016,642.234h-11.3a6.024,6.024,0,0,0-.569,12.021l-1.375,3.377,4.573-3.35h8.668a6.024,6.024,0,1,0,0-12.048" transform="translate(-2000.627 -622.619)" fill="#f66957"/>
  <path id="Path_47765" data-name="Path 47765" d="M2077.446,654.713a1.332,1.332,0,1,1-1.332-1.332,1.332,1.332,0,0,1,1.332,1.332" transform="translate(-2007.153 -629.181)" fill="#fff"/>
  <path id="Path_47766" data-name="Path 47766" d="M2091.807,654.713a1.332,1.332,0,1,1-1.332-1.332,1.332,1.332,0,0,1,1.332,1.332" transform="translate(-2015.606 -629.181)" fill="#fff"/>
  <path id="Path_47767" data-name="Path 47767" d="M2105.548,654.713a1.332,1.332,0,1,1-1.333-1.332,1.332,1.332,0,0,1,1.333,1.332" transform="translate(-2023.695 -629.181)" fill="#fff"/>
  <path id="Path_47768" data-name="Path 47768" d="M2096.786,689.615a1.768,1.768,0,0,0-1.852-.666.386.386,0,0,0-.309.09,2.145,2.145,0,0,0-.688,1.922,2.05,2.05,0,0,0,.142.5,1.052,1.052,0,0,0,.34.461,1.555,1.555,0,0,0,.843.291,1.888,1.888,0,0,0,1.6-.744,1.438,1.438,0,0,0,.281-.873,1.691,1.691,0,0,0-.354-.979m-.414.968c-1.671.3-1.681.234-1.69.163a2.314,2.314,0,0,1,.021-.372,3.1,3.1,0,0,1,.111-.344,1.97,1.97,0,0,1,.186-.283c.907.083.957.119,1.005.157a2.606,2.606,0,0,1,.367.68" transform="translate(-2018.415 -650.087)" fill="#ffbb4d"/>
  <path id="Path_47769" data-name="Path 47769" d="M1988.182,671.215a1.243,1.243,0,0,0-1.084-.809,1.365,1.365,0,0,0-1.3.656.413.413,0,0,0-.054.294.391.391,0,0,0,.165.238c-.11.091-.293.3-.221.5a1.352,1.352,0,0,0,.443.628,1.423,1.423,0,0,0,1.256.237,1.259,1.259,0,0,0,.618-.443,1.412,1.412,0,0,0,.173-1.3m-.687.573c-1.086.043-1.125-.037-1.216-.1.013-.055.114-.107.167-.207,1.054.241,1.052.273,1.049.3" transform="translate(-1954.704 -639.201)" fill="#19c5ff"/>
  <path id="Path_47770" data-name="Path 47770" d="M2044.346,629.168a.389.389,0,0,0-.4.364v1.748a.385.385,0,0,0,.768.04v-1.749a.391.391,0,0,0-.365-.4" transform="translate(-1989 -614.927)" fill="#19c5ff"/>
  <path id="Path_47771" data-name="Path 47771" d="M2052.225,631.36a.4.4,0,0,0-.533.111l-1.312,1.748a.386.386,0,0,0,.111.532.393.393,0,0,0,.532-.111l1.312-1.749a.387.387,0,0,0-.111-.532" transform="translate(-1992.753 -616.182)" fill="#19c5ff"/>
  <path id="Path_47772" data-name="Path 47772" d="M2055.566,640.86h-2.186a.384.384,0,1,0-.039.768h2.187a.384.384,0,1,0,.039-.768" transform="translate(-1994.318 -621.81)" fill="#19c5ff"/>
</svg>
