<svg id="Group_20352" data-name="Group 20352" xmlns="http://www.w3.org/2000/svg" xmlns:xlink="http://www.w3.org/1999/xlink" width="304.209" height="305.059" viewBox="0 0 304.209 305.059">
  <defs>
    <clipPath id="clip-path">
      <rect id="Rectangle_10455" data-name="Rectangle 10455" width="304.209" height="305.059" fill="none"/>
    </clipPath>
  </defs>
  <g id="Group_20351" data-name="Group 20351" clip-path="url(#clip-path)">
    <path id="Path_48513" data-name="Path 48513" d="M283.759,113.187C267.853,50.709,212.218,6.035,153.844.573,91.181-5.29,38.294,35.242,28.373,55.637A79.327,79.327,0,0,0,23.39,69.05c-3.726,18.148,5.672,32.881-3.634,82C9.861,203.262-7.458,221.957,3.519,248.57c8.974,21.758,29.948,32.049,43.354,38.626,47.852,23.478,132.279,31.419,190.9-24.41,4.093-3.9,67.23-66.139,45.982-149.6" transform="translate(0 0)" fill="#ebf0f1"/>
    <path id="Path_48514" data-name="Path 48514" d="M61.624,227.144l-12.882,1.776a4.1,4.1,0,0,0-3.367,2.877l-2.358,7.8-5.228-7.018a4.1,4.1,0,0,0-3.85-1.613L22.091,232.6a4.1,4.1,0,0,1-4.624-3.5L14,203.934a4.1,4.1,0,0,1,3.5-4.626l39.533-5.452a4.1,4.1,0,0,1,4.624,3.505l3.467,25.156a4.1,4.1,0,0,1-3.5,4.626" transform="translate(-8.835 -122.684)" fill="#17bdba"/>
    <path id="Path_48515" data-name="Path 48515" d="M72.952,228.948a4.625,4.625,0,0,0-3.6-1.048,4.328,4.328,0,0,0-2.563,1.27,5.524,5.524,0,0,0-.939,1.271,5.544,5.544,0,0,0-1.23-.993,4.326,4.326,0,0,0-2.8-.582,4.626,4.626,0,0,0-3.223,1.925,5.38,5.38,0,0,0-.886,3.818,6.407,6.407,0,0,0,2.226,3.942,36.369,36.369,0,0,0,4.747,3.434c.651.425,1.389.907,2.158,1.423a1.01,1.01,0,0,0,1.319-.169c.614-.693,1.207-1.346,1.73-1.922a36.381,36.381,0,0,0,3.727-4.522,6.405,6.405,0,0,0,1.159-4.376,5.381,5.381,0,0,0-1.821-3.47" transform="translate(-36.486 -144.233)" fill="#fff"/>
    <path id="Path_48516" data-name="Path 48516" d="M280.486,348.149H149.43a8.8,8.8,0,0,1-8.936-10.188l32.27-254.809a11.933,11.933,0,0,1,11.516-10.188L308.758,71.51c14.289,0,16.227,6.015,15.514,11.642L292,337.961a11.933,11.933,0,0,1-11.516,10.188" transform="translate(-88.854 -45.265)" fill="#00434f"/>
    <path id="Path_48517" data-name="Path 48517" d="M259.009,349.145H127.953a8.819,8.819,0,0,1-8.936-10.221L151.288,83.3A11.946,11.946,0,0,1,162.8,73.083H293.86A8.819,8.819,0,0,1,302.8,83.3l-32.27,255.62a11.946,11.946,0,0,1-11.516,10.221" transform="translate(-75.263 -46.261)" fill="#fff"/>
    <path id="Path_48518" data-name="Path 48518" d="M139.465,373.355l30.813-244.074a2.757,2.757,0,0,1,2.658-2.36H304.7a2.036,2.036,0,0,1,2.063,2.36L275.948,373.355a2.758,2.758,0,0,1-2.659,2.359H141.528a2.036,2.036,0,0,1-2.063-2.359" transform="translate(-88.243 -80.34)" fill="#10394b" opacity="0.139"/>
    <path id="Path_48519" data-name="Path 48519" d="M406.57,95.3a3.3,3.3,0,0,1-3.347-3.829,4.475,4.475,0,0,1,4.314-3.829,3.3,3.3,0,0,1,3.347,3.829A4.475,4.475,0,0,1,406.57,95.3" transform="translate(-255.143 -55.476)" fill="#dde3e5"/>
    <path id="Path_48520" data-name="Path 48520" d="M258.058,348.746H127a9.483,9.483,0,0,1-7.241-3.151,9.614,9.614,0,0,1-2.241-7.689l.415-3.287a.551.551,0,0,1,1.093.138l-.415,3.287a8.527,8.527,0,0,0,1.974,6.823A8.4,8.4,0,0,0,127,347.645H258.058a11.4,11.4,0,0,0,10.969-9.739L301.3,82.286a8.529,8.529,0,0,0-1.975-6.823,8.4,8.4,0,0,0-6.414-2.779H161.853a11.4,11.4,0,0,0-10.97,9.739l-11.554,91.526a.551.551,0,0,1-1.093-.138L149.79,82.286a12.526,12.526,0,0,1,12.063-10.7H292.909a9.482,9.482,0,0,1,7.241,3.152,9.612,9.612,0,0,1,2.241,7.689l-32.27,255.62a12.527,12.527,0,0,1-12.063,10.7" transform="translate(-74.312 -45.311)"/>
    <path id="Path_48521" data-name="Path 48521" d="M358.292,366.956a4.912,4.912,0,0,1,4.975,5.752L357.9,412.292a6.8,6.8,0,0,1-6.535,5.752H260.025a4.912,4.912,0,0,1-4.975-5.752l5.365-39.584a6.8,6.8,0,0,1,6.535-5.752Z" transform="translate(-161.363 -232.278)" fill="#fff"/>
    <path id="Path_48522" data-name="Path 48522" d="M276.741,417.645H259.075a5.525,5.525,0,0,1-4.24-1.855,5.608,5.608,0,0,1-1.281-4.522l5.365-39.584A7.378,7.378,0,0,1,266,365.455h21.537a.551.551,0,1,1,0,1.1H266a6.244,6.244,0,0,0-5.989,5.276l-5.365,39.584a4.525,4.525,0,0,0,1.019,3.65,4.44,4.44,0,0,0,3.41,1.478h17.666a.551.551,0,1,1,0,1.1" transform="translate(-160.413 -231.328)"/>
    <path id="Path_48523" data-name="Path 48523" d="M433.57,417.645H385.449a.551.551,0,1,1,0-1.1H433.57a6.244,6.244,0,0,0,5.989-5.275l5.365-39.584a4.528,4.528,0,0,0-1.019-3.65,4.441,4.441,0,0,0-3.41-1.478H422.6a.551.551,0,1,1,0-1.1h17.9a5.525,5.525,0,0,1,4.24,1.855,5.61,5.61,0,0,1,1.282,4.522l-5.365,39.584a7.377,7.377,0,0,1-7.081,6.229" transform="translate(-243.566 -231.328)"/>
    <path id="Path_48524" data-name="Path 48524" d="M371.184,403.429l-73.811.682c-2.093.019-3.571-1.172-3.3-2.662s2.185-2.712,4.278-2.732l73.811-.682c2.093-.019,3.571,1.172,3.3,2.662s-2.185,2.712-4.278,2.732" transform="translate(-186.071 -251.951)" fill="#b8efd5"/>
    <path id="Path_48525" data-name="Path 48525" d="M349.422,435.5l-57.717.533a2.384,2.384,0,0,1-2.587-2.668,3.408,3.408,0,0,1,3.34-2.723l57.717-.533a2.384,2.384,0,0,1,2.587,2.668,3.408,3.408,0,0,1-3.34,2.723" transform="translate(-182.941 -272.253)" fill="#e6faf1"/>
    <path id="Path_48526" data-name="Path 48526" d="M357.231,466.835l-69.009.638c-1.957.018-3.339-1.175-3.088-2.664s2.042-2.711,4-2.729l69.009-.638c1.957-.018,3.339,1.175,3.088,2.664s-2.041,2.711-4,2.729" transform="translate(-180.417 -292.086)" fill="#e6faf1"/>
    <path id="Path_48527" data-name="Path 48527" d="M440.313,208.175a4.066,4.066,0,0,1,4.118,4.762L439.99,245.7a5.631,5.631,0,0,1-5.409,4.762H325.759a4.066,4.066,0,0,1-4.118-4.762l4.441-32.766a5.631,5.631,0,0,1,5.409-4.762Z" transform="translate(-203.509 -131.772)" fill="#fff"/>
    <path id="Path_48528" data-name="Path 48528" d="M478.779,250.066H391.993a.551.551,0,1,1,0-1.1h86.787a5.07,5.07,0,0,0,4.863-4.285l4.441-32.766a3.652,3.652,0,0,0-.822-2.946,3.582,3.582,0,0,0-2.751-1.191h-3.473a.551.551,0,1,1,0-1.1h3.473a4.667,4.667,0,0,1,3.581,1.568,4.736,4.736,0,0,1,1.083,3.818l-4.441,32.767a6.2,6.2,0,0,1-5.955,5.238" transform="translate(-247.708 -130.823)"/>
    <path id="Path_48529" data-name="Path 48529" d="M458.2,236.5H367.887a2.069,2.069,0,0,1-2.235-2.328,2.968,2.968,0,0,1,2.936-2.328H458.9a2.07,2.07,0,0,1,2.235,2.328A2.968,2.968,0,0,1,458.2,236.5" transform="translate(-231.372 -146.754)" fill="#b8efd5"/>
    <path id="Path_48530" data-name="Path 48530" d="M438.76,263.82H363.714a1.95,1.95,0,0,1-1.892-2.328,2.647,2.647,0,0,1,2.484-2.328h75.047a1.949,1.949,0,0,1,1.891,2.328,2.647,2.647,0,0,1-2.484,2.328" transform="translate(-228.951 -164.047)" fill="#e6faf1"/>
    <path id="Path_48531" data-name="Path 48531" d="M431.916,291.142H359.822A1.931,1.931,0,0,1,358,288.814a2.593,2.593,0,0,1,2.4-2.328h72.095a1.931,1.931,0,0,1,1.825,2.328,2.593,2.593,0,0,1-2.4,2.328" transform="translate(-226.531 -181.342)" fill="#e6faf1"/>
    <path id="Path_48532" data-name="Path 48532" d="M392.081,573.452c2.9,0,4.925,2.744,4.533,6.128l-4.888,42.172c-.392,3.385-3.058,6.128-5.953,6.128H282.5c-2.9,0-4.925-2.744-4.533-6.128l4.888-42.172c.392-3.385,3.058-6.128,5.953-6.128Z" transform="translate(-175.869 -362.988)" fill="#fff"/>
    <path id="Path_48533" data-name="Path 48533" d="M376.2,600.357H322.941c-1.009,0-1.716-1.205-1.579-2.692s1.066-2.692,2.075-2.692h53.258c1.009,0,1.716,1.205,1.58,2.692s-1.066,2.692-2.075,2.692" transform="translate(-203.35 -376.61)" fill="#e6faf1"/>
    <path id="Path_48534" data-name="Path 48534" d="M403.046,631.954H317.715a2.331,2.331,0,0,1-2.422-2.692,3.27,3.27,0,0,1,3.181-2.692H403.8a2.332,2.332,0,0,1,2.422,2.692,3.271,3.271,0,0,1-3.181,2.692" transform="translate(-199.504 -396.611)" fill="#e6faf1"/>
    <path id="Path_48535" data-name="Path 48535" d="M390.3,663.551H312.588a2.328,2.328,0,0,1-2.414-2.692,3.263,3.263,0,0,1,3.17-2.692h77.717a2.328,2.328,0,0,1,2.414,2.692,3.263,3.263,0,0,1-3.17,2.692" transform="translate(-196.264 -416.611)" fill="#e6faf1"/>
    <path id="Path_48536" data-name="Path 48536" d="M395.446,692.292h-85.5A2.417,2.417,0,0,1,307.3,689.6a3.494,3.494,0,0,1,3.473-2.692h85.5a2.418,2.418,0,0,1,2.645,2.692,3.494,3.494,0,0,1-3.474,2.692" transform="translate(-194.446 -434.804)" fill="#e6faf1"/>
    <path id="Path_48537" data-name="Path 48537" d="M254.053,233.109a17.411,17.411,0,1,1-17.411-17.4,17.407,17.407,0,0,1,17.411,17.4" transform="translate(-138.731 -136.539)" fill="#fff"/>
    <path id="Path_48538" data-name="Path 48538" d="M259.143,288.315v-3.254a4.232,4.232,0,0,0-4.221-4.219H242.614a4.232,4.232,0,0,0-4.221,4.219v3.355c0,1.733,10.375,3.332,10.375,3.332s10.375-1.5,10.375-3.433" transform="translate(-150.857 -177.769)" fill="#35d188"/>
    <path id="Path_48539" data-name="Path 48539" d="M235.693,250.112a17.953,17.953,0,1,1,17.962-17.953,17.978,17.978,0,0,1-17.962,17.953m0-34.8a16.852,16.852,0,1,0,16.86,16.852,16.876,16.876,0,0,0-16.86-16.852" transform="translate(-137.782 -135.59)"/>
    <path id="Path_48540" data-name="Path 48540" d="M280.128,238.972a.551.551,0,0,1-.551-.551v-2.359a.551.551,0,0,1,1.1,0v2.359a.551.551,0,0,1-.551.551" transform="translate(-176.919 -149.076)" fill="#aeedcf"/>
    <path id="Path_48541" data-name="Path 48541" d="M278.521,232.837a1.548,1.548,0,1,1,1.549-1.548,1.55,1.55,0,0,1-1.549,1.548m0-2a.447.447,0,1,0,.448.448.448.448,0,0,0-.448-.448" transform="translate(-175.27 -145.422)" fill="#aeedcf"/>
    <path id="Path_48542" data-name="Path 48542" d="M251.044,238.972a.551.551,0,0,1-.551-.551v-2.359a.551.551,0,0,1,1.1,0v2.359a.551.551,0,0,1-.551.551" transform="translate(-158.514 -149.076)" fill="#aeedcf"/>
    <path id="Path_48543" data-name="Path 48543" d="M249.436,232.837a1.548,1.548,0,1,1,1.549-1.548,1.55,1.55,0,0,1-1.549,1.548m0-2a.447.447,0,1,0,.448.448.448.448,0,0,0-.448-.448" transform="translate(-156.865 -145.422)" fill="#aeedcf"/>
    <path id="Path_48544" data-name="Path 48544" d="M254.922,254.746H242.614a4.232,4.232,0,0,1-4.221-4.219v-3.909a4.232,4.232,0,0,1,4.221-4.219h12.308a4.232,4.232,0,0,1,4.221,4.219v3.909a4.232,4.232,0,0,1-4.221,4.219" transform="translate(-150.857 -153.436)" fill="#35d188"/>
    <path id="Path_48545" data-name="Path 48545" d="M259.742,255.084H247.351a1.407,1.407,0,0,1-1.407-1.406v-2.4a1.407,1.407,0,0,1,1.407-1.406h12.391a1.407,1.407,0,0,1,1.407,1.406v2.4a1.407,1.407,0,0,1-1.407,1.406" transform="translate(-155.635 -158.163)"/>
    <path id="Path_48546" data-name="Path 48546" d="M255.513,255.091a1.1,1.1,0,1,1-1.1-1.1,1.1,1.1,0,0,1,1.1,1.1" transform="translate(-160.293 -160.77)" fill="#35d188"/>
    <path id="Path_48547" data-name="Path 48547" d="M276.186,255.091a1.1,1.1,0,1,1-1.1-1.1,1.1,1.1,0,0,1,1.1,1.1" transform="translate(-173.375 -160.77)" fill="#35d188"/>
    <path id="Path_48548" data-name="Path 48548" d="M213.057,610.558a17.411,17.411,0,1,1-17.411-17.4,17.407,17.407,0,0,1,17.411,17.4" transform="translate(-112.788 -375.459)" fill="#fff"/>
    <path id="Path_48549" data-name="Path 48549" d="M218.146,665.764V662.51a4.232,4.232,0,0,0-4.221-4.219H201.617a4.232,4.232,0,0,0-4.221,4.219v3.355c0,1.733,10.375,3.332,10.375,3.332s10.375-1.5,10.375-3.433" transform="translate(-124.914 -416.69)" fill="#35d188"/>
    <path id="Path_48550" data-name="Path 48550" d="M194.7,627.561a17.953,17.953,0,1,1,17.962-17.953A17.978,17.978,0,0,1,194.7,627.561m0-34.8a16.852,16.852,0,1,0,16.86,16.852,16.875,16.875,0,0,0-16.86-16.852" transform="translate(-111.839 -374.51)"/>
    <path id="Path_48551" data-name="Path 48551" d="M239.131,616.421a.551.551,0,0,1-.551-.551v-2.359a.551.551,0,0,1,1.1,0v2.359a.551.551,0,0,1-.551.551" transform="translate(-150.975 -387.996)" fill="#aeedcf"/>
    <path id="Path_48552" data-name="Path 48552" d="M237.523,610.287a1.549,1.549,0,1,1,1.549-1.549,1.551,1.551,0,0,1-1.549,1.549m0-2a.448.448,0,1,0,.448.447.448.448,0,0,0-.448-.447" transform="translate(-149.326 -384.343)" fill="#aeedcf"/>
    <path id="Path_48553" data-name="Path 48553" d="M210.047,616.421a.551.551,0,0,1-.551-.551v-2.359a.551.551,0,0,1,1.1,0v2.359a.551.551,0,0,1-.551.551" transform="translate(-132.571 -387.996)" fill="#aeedcf"/>
    <path id="Path_48554" data-name="Path 48554" d="M208.439,610.287a1.549,1.549,0,1,1,1.549-1.549,1.551,1.551,0,0,1-1.549,1.549m0-2a.448.448,0,1,0,.448.447.448.448,0,0,0-.448-.447" transform="translate(-130.922 -384.343)" fill="#aeedcf"/>
    <path id="Path_48555" data-name="Path 48555" d="M213.925,632.2H201.617a4.232,4.232,0,0,1-4.221-4.219v-3.909a4.232,4.232,0,0,1,4.221-4.219h12.308a4.232,4.232,0,0,1,4.221,4.219v3.909a4.232,4.232,0,0,1-4.221,4.219" transform="translate(-124.914 -392.356)" fill="#35d188"/>
    <path id="Path_48556" data-name="Path 48556" d="M218.745,632.533H206.354a1.407,1.407,0,0,1-1.407-1.406v-2.4a1.407,1.407,0,0,1,1.407-1.406h12.391a1.407,1.407,0,0,1,1.407,1.406v2.4a1.407,1.407,0,0,1-1.407,1.406" transform="translate(-129.692 -397.083)"/>
    <path id="Path_48557" data-name="Path 48557" d="M214.516,632.54a1.1,1.1,0,1,1-1.1-1.1,1.1,1.1,0,0,1,1.1,1.1" transform="translate(-134.35 -399.691)" fill="#35d188"/>
    <path id="Path_48558" data-name="Path 48558" d="M235.189,632.54a1.1,1.1,0,1,1-1.1-1.1,1.1,1.1,0,0,1,1.1,1.1" transform="translate(-147.432 -399.691)" fill="#35d188"/>
    <path id="Path_48559" data-name="Path 48559" d="M424.212,627.482h-85a.551.551,0,1,1,0-1.1h85c2.621,0,5.046-2.531,5.406-5.641l4.887-42.172a5.412,5.412,0,0,0-1.173-4.243,3.677,3.677,0,0,0-2.812-1.271h-1.154a.551.551,0,1,1,0-1.1h1.154a4.815,4.815,0,0,1,3.635,1.64,6.509,6.509,0,0,1,1.445,5.1l-4.888,42.172c-.423,3.648-3.339,6.615-6.5,6.615" transform="translate(-214.309 -362.038)"/>
    <path id="Path_48560" data-name="Path 48560" d="M104.905,768.763,102.7,783.222l-5.34-2.714,1.526-14.426Z" transform="translate(-61.609 -484.92)" fill="#fff"/>
    <path id="Path_48561" data-name="Path 48561" d="M101.749,782.824a.55.55,0,0,1-.25-.06l-5.34-2.714a.55.55,0,0,1-.3-.548l1.526-14.426a.551.551,0,0,1,.772-.445l6.021,2.682a.55.55,0,0,1,.321.586l-2.207,14.459a.552.552,0,0,1-.545.468M97,779.24l4.323,2.2,2.029-13.291-4.945-2.2Z" transform="translate(-60.66 -483.97)"/>
    <path id="Path_48562" data-name="Path 48562" d="M77.7,795.305a38.234,38.234,0,0,1,1.775,7.465,2.685,2.685,0,0,1-2.675,3.111H57.155a1.451,1.451,0,0,1-.983-2.538,62.934,62.934,0,0,1,15.065-9.531l1.973,2.784s4.319-1.68,4.49-1.291" transform="translate(-35.233 -502.473)" fill="#17bdba"/>
    <path id="Path_48563" data-name="Path 48563" d="M75.851,805.483H56.207a2.008,2.008,0,0,1-1.9-1.3,1.979,1.979,0,0,1,.548-2.2,63.846,63.846,0,0,1,15.21-9.623.55.55,0,0,1,.669.186l1.724,2.434c4.421-1.694,4.594-1.3,4.793-.844a37.57,37.57,0,0,1,1.813,7.593,3.185,3.185,0,0,1-.711,2.594,3.273,3.273,0,0,1-2.506,1.16M70.1,793.548a62.844,62.844,0,0,0-14.511,9.259.864.864,0,0,0-.247.985.9.9,0,0,0,.865.589H75.851a2.171,2.171,0,0,0,1.664-.769,2.085,2.085,0,0,0,.467-1.7,42.1,42.1,0,0,0-1.616-7.044,30.675,30.675,0,0,0-3.905,1.29.551.551,0,0,1-.649-.195Z" transform="translate(-34.286 -501.523)"/>
    <path id="Path_48564" data-name="Path 48564" d="M81.394,820.206H63.828a.55.55,0,1,1,0-1.1H81.394a.55.55,0,1,1,0,1.1" transform="translate(-40.042 -518.483)"/>
    <path id="Path_48565" data-name="Path 48565" d="M87,804.492a.551.551,0,0,1-.475-.271L84.508,800.8a.551.551,0,1,1,.949-.559l2.016,3.416a.55.55,0,0,1-.474.83" transform="translate(-53.429 -506.374)"/>
    <path id="Path_48566" data-name="Path 48566" d="M80.175,807.708a.55.55,0,0,1-.481-.282l-1.307-2.339a.551.551,0,1,1,.962-.537l1.307,2.339a.55.55,0,0,1-.48.819" transform="translate(-49.559 -509.091)"/>
    <path id="Path_48567" data-name="Path 48567" d="M120.009,687.842a38.273,38.273,0,0,1,7.628-.862,2.685,2.685,0,0,1,2.768,3.029L128.039,709.5a1.452,1.452,0,0,1-2.639.669,62.875,62.875,0,0,1-7.652-16.1l3-1.622s-1.148-4.488-.741-4.61" transform="translate(-74.512 -434.848)" fill="#17bdba"/>
    <path id="Path_48568" data-name="Path 48568" d="M125.633,710.4a1.983,1.983,0,0,1-1.637-.868,63.813,63.813,0,0,1-7.726-16.251.55.55,0,0,1,.266-.642l2.625-1.418c-1.149-4.591-.736-4.715-.26-4.857a37.552,37.552,0,0,1,7.76-.884,3.176,3.176,0,0,1,2.491,1.018,3.269,3.269,0,0,1,.85,2.627l-2.367,19.491a2.008,2.008,0,0,1-1.52,1.725,2.038,2.038,0,0,1-.482.059m-8.177-17.006a62.8,62.8,0,0,0,7.447,15.514.869.869,0,0,0,.949.365.9.9,0,0,0,.69-.788l2.367-19.491a2.171,2.171,0,0,0-.563-1.744,2.111,2.111,0,0,0-1.631-.668,42.081,42.081,0,0,0-7.191.755,30.63,30.63,0,0,0,.812,4.031.55.55,0,0,1-.272.621Zm1.6-6.5h0Z" transform="translate(-73.562 -433.898)"/>
    <path id="Path_48569" data-name="Path 48569" d="M139.388,712.113a.582.582,0,0,1-.067,0,.55.55,0,0,1-.48-.613l2.116-17.43a.551.551,0,0,1,1.094.133l-2.116,17.43a.551.551,0,0,1-.546.484" transform="translate(-87.857 -439.029)"/>
    <path id="Path_48570" data-name="Path 48570" d="M122.946,716.127a.55.55,0,0,1-.221-1.055l3.636-1.589a.55.55,0,1,1,.441,1.008l-3.636,1.589a.546.546,0,0,1-.22.046" transform="translate(-77.452 -451.596)"/>
    <path id="Path_48571" data-name="Path 48571" d="M126.469,723.707a.55.55,0,0,1-.209-1.06l2.48-1.015a.551.551,0,1,1,.417,1.019l-2.481,1.016a.556.556,0,0,1-.208.041" transform="translate(-79.682 -456.758)"/>
    <path id="Path_48572" data-name="Path 48572" d="M48.018,521.752S31.885,543.514,26.8,557.824a7.219,7.219,0,0,0,1.9,7.715c5.909,5.471,18.548,17.04,26.661,23.5l2.425-6.151s-2.929-14.242-13.915-20.657L57.5,541.91l3-15.813Z" transform="translate(-16.697 -330.262)"/>
    <path id="Path_48573" data-name="Path 48573" d="M102.255,527.318a9.1,9.1,0,0,1,7.388,10.242c-1.517,10.589-3.922,27.8-4.377,33.6-.675,8.6,1.064,18.17,1.4,25.193s-7.639,23.351-7.639,23.351l-7.685-.53-1.425-79.934L87.846,524.6Z" transform="translate(-55.59 -332.066)"/>
    <path id="Path_48574" data-name="Path 48574" d="M93.578,680.16a.551.551,0,0,1-.55-.542l-.2-12.648a.551.551,0,0,1,.542-.56.558.558,0,0,1,.56.542l.2,12.649a.551.551,0,0,1-.543.559Z" transform="translate(-58.74 -421.829)" fill="#caddff"/>
    <path id="Path_48575" data-name="Path 48575" d="M86.222,586.233a.551.551,0,0,1-.551-.547l-.033-5.761a6.791,6.791,0,0,0-2.823-5.463l-.4-.287a.55.55,0,0,1,.643-.894l.4.286a7.9,7.9,0,0,1,3.282,6.351l.033,5.76a.551.551,0,0,1-.548.554Z" transform="translate(-52.009 -362.814)" fill="#caddff"/>
    <path id="Path_48576" data-name="Path 48576" d="M84.129,363.923A10.4,10.4,0,0,1,94.37,361.07c4.018,1.1,6.045,4.572,7.473,7.022,2.526,4.332,1.306,5.9,3.292,8.417,3.516,4.457,9.029,1.671,13.314,4.926,6.537,4.967,7.426,21.821-1.42,28.238-5.9,4.279-13.924,1.8-16.107,1.131-6.626-2.044-14.87-7.748-16.053-15.48-.979-6.394,3.237-11.713-.29-17.072-.9-1.365-1.642-1.735-2.31-3.442a10.619,10.619,0,0,1,1.86-10.886" transform="translate(-51.597 -228.329)"/>
    <path id="Path_48577" data-name="Path 48577" d="M110.572,353.145c-1.51-1.224-.554-4.834.412-6.782.362-.73,1.982-4,4.113-3.869,2.188.13,4.284,3.8,3.5,6.712-.976,3.637-6.259,5.373-8.028,3.939" transform="translate(-69.473 -216.792)"/>
    <path id="Path_48578" data-name="Path 48578" d="M15.285,432.878l-5.628.037L2.841,420.946l5.538-.046Z" transform="translate(-1.798 -266.424)" fill="#35d188"/>
    <path id="Path_48579" data-name="Path 48579" d="M8.708,432.515a.551.551,0,0,1-.479-.278L1.413,420.268a.551.551,0,0,1,.474-.823l5.538-.046h0a.552.552,0,0,1,.477.276l6.907,11.978a.55.55,0,0,1-.474.825l-5.628.037ZM2.835,420.538l6.192,10.874,4.359-.029L7.113,420.5Z" transform="translate(-0.849 -265.474)"/>
    <path id="Path_48580" data-name="Path 48580" d="M38.207,430.659c-3.626.1-7.5,8.914-16.145,14.6-.894.589-1.9.949-2.734.273-2.785-2.261-8.487-7.189-9.406-10.323-.185-.63-.506-4.41-1.787-5.977-.8-.982-1.508.175-1.508.175s-3.776,5.135.35,8.336a5.117,5.117,0,0,1,1.457,1.807c1.536,3.154,6.448,11.469,8.659,14.051,2.884,3.367,3.951,3.251,6.845,1.714l13.232-7.794s3.483-16.935,1.038-16.867" transform="translate(-3.193 -271.451)" fill="#fff"/>
    <path id="Path_48581" data-name="Path 48581" d="M20.035,455.956c-1.339,0-2.521-.861-4.3-2.941C13.445,450.343,8.47,441.874,7,438.847a4.593,4.593,0,0,0-1.3-1.613c-3.589-2.784-1.881-7.148-.468-9.081a1.725,1.725,0,0,1,1.207-.808,1.381,1.381,0,0,1,1.183.595c1.092,1.336,1.522,3.99,1.754,5.416.054.333.105.648.136.754.889,3.032,6.748,8.039,9.225,10.05.311.253.867.5,2.085-.306a47.825,47.825,0,0,0,9.959-9.437c2.581-3.019,4.446-5.2,6.474-5.257a1.06,1.06,0,0,1,.847.4c1.677,2-.814,14.622-1.33,17.133a.549.549,0,0,1-.26.363l-13.232,7.794a7.291,7.291,0,0,1-3.241,1.111M6.516,428.443h0c-.1.006-.273.171-.36.309-.007.011-.017.026-.024.036-.141.193-3.406,4.745.244,7.576a5.7,5.7,0,0,1,1.614,2c1.454,2.986,6.344,11.32,8.583,13.934,2.748,3.21,3.547,2.978,6.168,1.586l13-7.658c1.458-7.165,2.4-15.188,1.519-15.965-1.534.066-3.348,2.188-5.642,4.871a48.737,48.737,0,0,1-10.191,9.642c-1.348.888-2.487.97-3.385.241-3.177-2.579-8.646-7.386-9.587-10.595-.05-.172-.1-.457-.166-.888-.2-1.229-.614-3.789-1.519-4.9-.117-.143-.207-.193-.25-.193m30.751,1.267h0Z" transform="translate(-2.252 -270.502)"/>
    <path id="Path_48582" data-name="Path 48582" d="M94.473,428.135a26.689,26.689,0,0,0-21.278-.8,1.812,1.812,0,0,0-1.136,1.845,6.619,6.619,0,0,1-1.3,4.5c-4.858,6.783-1.951,9.618-2.787,12.993-1.7,6.85-3.366,11.16-6.915,20.253-1.337,3.425,4.111,3.43,8.748,2.69s16.02-.733,20.79,1.89,5.26-3.8,4.722-8.077-.843-35.293-.843-35.293" transform="translate(-38.506 -269.324)" fill="#17bdba"/>
    <path id="Path_48583" data-name="Path 48583" d="M108.691,456.794l-10.9-6.494a5.154,5.154,0,0,0-4.434-.4l-5.107,1.9a.817.817,0,0,0,.214,1.58,3.106,3.106,0,0,0,1.063-.1,4.52,4.52,0,0,1,3.916.665,2.1,2.1,0,0,0,1.909.323,1.31,1.31,0,0,1,1.388.506c2.185,3.011,10.1,13.207,17.195,13.452,6.773.234,4.583-21.978,2.354-32.444-.434-2.035-2.7-3.749-4.641-4.491l-2.493-.95,1.276,25.413a1.152,1.152,0,0,1-1.74,1.047" transform="translate(-55.509 -272.396)" fill="#fff"/>
    <path id="Path_48584" data-name="Path 48584" d="M113.093,467.822l-.127,0c-7.322-.253-15.339-10.534-17.622-13.679a.763.763,0,0,0-.8-.3,2.6,2.6,0,0,1-2.4-.429,4.057,4.057,0,0,0-3.431-.558,3.645,3.645,0,0,1-1.251.113,1.368,1.368,0,0,1-.355-2.644l5.108-1.9a5.68,5.68,0,0,1,4.908.448l10.9,6.494a.6.6,0,0,0,.908-.546l-1.276-25.413a.551.551,0,0,1,.746-.542l2.493.95c2.135.814,4.5,2.642,4.983,4.891,1.753,8.231,4.023,26.836-.151,31.812a3.338,3.338,0,0,1-2.634,1.3m-18.36-15.1a1.857,1.857,0,0,1,1.5.776c2.208,3.043,9.944,12.989,16.768,13.225a2.262,2.262,0,0,0,1.878-.9c3.533-4.211,2.04-20.914-.082-30.875-.391-1.835-2.5-3.407-4.3-4.092l-1.7-.65,1.234,24.571a1.7,1.7,0,0,1-2.573,1.548h0l-10.9-6.494a4.583,4.583,0,0,0-3.96-.361l-5.107,1.9a.247.247,0,0,0-.171.281.258.258,0,0,0,.246.235,2.6,2.6,0,0,0,.875-.084,5.156,5.156,0,0,1,4.4.772,1.532,1.532,0,0,0,1.421.216,1.859,1.859,0,0,1,.47-.061" transform="translate(-54.559 -271.446)"/>
    <path id="Path_48585" data-name="Path 48585" d="M94.741,391.181a1.746,1.746,0,0,1-2.013-.307,10.3,10.3,0,0,1-1.534-1.952l-.775.016a.456.456,0,0,1-.465-.436l-.134-3.025c-1.782-2.9-.379-4.462-.379-4.462.886-1.541,3.921-2.4,6,.493.722,1,1.854.257,2.468-.28a2.826,2.826,0,0,0,.615-.785c.416-.765,1.458-2.353,2.285-.858a4.888,4.888,0,0,1-.782,5.732l1.866,7.948a5.685,5.685,0,0,0,3.5,4.009l1.793.687s-2.8,9.17-10.733,9c-6.054-.13-3.444-8.307-3.444-8.307l.795-.35a4.752,4.752,0,0,0,2.719-5.4L96,390.551Z" transform="translate(-56.268 -239.881)" fill="#fff"/>
    <path id="Path_48586" data-name="Path 48586" d="M104.988,405.9a.55.55,0,0,1-.241-1.046c1.936-.941,2.185-3.487,2.187-3.512a.551.551,0,0,1,1.1.1c-.012.13-.312,3.194-2.8,4.4a.547.547,0,0,1-.241.055" transform="translate(-66.088 -253.73)"/>
    <path id="Path_48587" data-name="Path 48587" d="M27.583,368.619a.551.551,0,0,1-.441-.879L43.1,346.327a.551.551,0,1,1,.883.658L28.025,368.4a.551.551,0,0,1-.442.222" transform="translate(-17.106 -219.08)"/>
    <path id="Path_48588" data-name="Path 48588" d="M14.9,378.468a.55.55,0,0,1-.52-.733l4.559-13a.551.551,0,1,1,1.039.364l-4.558,13a.551.551,0,0,1-.52.368" transform="translate(-9.078 -230.64)"/>
    <path id="Path_48589" data-name="Path 48589" d="M34.568,402.5a.551.551,0,0,1-.294-1.017l11.663-7.339a.551.551,0,1,1,.587.932l-11.663,7.339a.547.547,0,0,1-.293.085" transform="translate(-21.526 -249.434)"/>
    <path id="Path_48590" data-name="Path 48590" d="M383.021,112.175a.55.55,0,0,1-.551-.551v-2.847a.551.551,0,0,1,1.1,0v2.847a.55.55,0,0,1-.551.551" transform="translate(-242.03 -68.506)"/>
    <path id="Path_48591" data-name="Path 48591" d="M383.021,130.247a.551.551,0,0,1-.551-.551V126.85a.551.551,0,0,1,1.1,0V129.7a.551.551,0,0,1-.551.551" transform="translate(-242.03 -79.946)"/>
    <path id="Path_48592" data-name="Path 48592" d="M372.955,122.243h-2.848a.551.551,0,1,1,0-1.1h2.848a.551.551,0,1,1,0,1.1" transform="translate(-233.858 -76.681)"/>
    <path id="Path_48593" data-name="Path 48593" d="M391.026,122.243h-2.849a.551.551,0,1,1,0-1.1h2.849a.551.551,0,1,1,0,1.1" transform="translate(-245.293 -76.681)"/>
    <path id="Path_48594" data-name="Path 48594" d="M330.178,505.332a.551.551,0,0,1-.551-.551v-2.847a.551.551,0,0,1,1.1,0v2.847a.551.551,0,0,1-.551.551" transform="translate(-208.591 -317.37)"/>
    <path id="Path_48595" data-name="Path 48595" d="M330.178,523.4a.551.551,0,0,1-.551-.55v-2.847a.551.551,0,0,1,1.1,0v2.847a.551.551,0,0,1-.551.55" transform="translate(-208.591 -328.808)"/>
    <path id="Path_48596" data-name="Path 48596" d="M320.111,515.4h-2.849a.551.551,0,1,1,0-1.1h2.849a.551.551,0,1,1,0,1.1" transform="translate(-200.418 -325.545)"/>
    <path id="Path_48597" data-name="Path 48597" d="M338.184,515.4h-2.849a.551.551,0,1,1,0-1.1h2.849a.551.551,0,1,1,0,1.1" transform="translate(-211.854 -325.545)"/>
    <path id="Path_48598" data-name="Path 48598" d="M727.238,69.361a.551.551,0,0,1-.551-.551V65.964a.551.551,0,0,1,1.1,0V68.81a.551.551,0,0,1-.551.551" transform="translate(-459.853 -41.406)"/>
    <path id="Path_48599" data-name="Path 48599" d="M727.238,87.432a.551.551,0,0,1-.551-.551V84.035a.551.551,0,0,1,1.1,0v2.847a.551.551,0,0,1-.551.551" transform="translate(-459.853 -52.844)"/>
    <path id="Path_48600" data-name="Path 48600" d="M717.17,79.428h-2.849a.551.551,0,1,1,0-1.1h2.849a.551.551,0,1,1,0,1.1" transform="translate(-451.68 -49.58)"/>
    <path id="Path_48601" data-name="Path 48601" d="M735.243,79.428h-2.849a.551.551,0,1,1,0-1.1h2.849a.551.551,0,1,1,0,1.1" transform="translate(-463.116 -49.58)"/>
    <path id="Path_48602" data-name="Path 48602" d="M29.322,639.8a4.374,4.374,0,0,1-1.587-.3,4.446,4.446,0,0,1-2.484-2.406,4.558,4.558,0,0,1,2.275-5.954,4.345,4.345,0,0,1,3.379-.087,4.444,4.444,0,0,1,2.484,2.406,4.56,4.56,0,0,1-2.275,5.954,4.372,4.372,0,0,1-1.793.387m0-7.945a3.275,3.275,0,0,0-1.342.29,3.454,3.454,0,0,0-1.715,4.514,3.354,3.354,0,0,0,1.872,1.816,3.26,3.26,0,0,0,2.529-.065,3.454,3.454,0,0,0,1.715-4.514,3.353,3.353,0,0,0-1.872-1.816,3.276,3.276,0,0,0-1.187-.224m-1.568-.212h0Z" transform="translate(-15.742 -399.261)" fill="#fff"/>
    <path id="Path_48603" data-name="Path 48603" d="M55.124,79.178a.54.54,0,0,1-.181-.031.551.551,0,0,1-.339-.7A53.382,53.382,0,0,1,67.543,58.34,63.68,63.68,0,0,1,94.861,42.527a.55.55,0,1,1,.311,1.056C67,51.886,57.795,72.644,55.645,78.809a.552.552,0,0,1-.52.369" transform="translate(-34.534 -26.905)"/>
    <path id="Path_48604" data-name="Path 48604" d="M34.259,64.209a.54.54,0,0,1-.164-.025.55.55,0,0,1-.362-.689,60.031,60.031,0,0,1,10.23-17.717C50.936,37.186,63.647,25.932,84.6,21.121a.55.55,0,1,1,.247,1.073c-20.629,4.736-33.139,15.8-40,24.239A58.946,58.946,0,0,0,34.785,63.823a.551.551,0,0,1-.526.387" transform="translate(-21.331 -13.361)"/>
    <path id="Path_48605" data-name="Path 48605" d="M636.893,691.683a.551.551,0,0,1-.3-1.01c11.393-7.544,25.439-23.314,34.157-38.35a.551.551,0,0,1,.953.552c-8.794,15.168-22.981,31.088-34.5,38.717a.551.551,0,0,1-.3.091" transform="translate(-402.682 -412.738)"/>
    <path id="Path_48606" data-name="Path 48606" d="M613.521,696.742a.551.551,0,0,1-.238-1.047c18.847-9.01,32.115-24.088,39.927-35.151a122.158,122.158,0,0,0,12.56-22.062.551.551,0,0,1,1.022.411,123.3,123.3,0,0,1-12.682,22.287c-7.888,11.169-21.291,26.4-40.352,35.51a.553.553,0,0,1-.237.054" transform="translate(-387.892 -403.932)"/>
    <path id="Path_48607" data-name="Path 48607" d="M597.814,63.268a.6.6,0,0,0,.231-.712l-1.431-3.791a.6.6,0,0,1,.143-.635,18.561,18.561,0,0,0,1.576-1.765.594.594,0,0,1,.612-.214l3.934.972a.6.6,0,0,0,.679-.313l1.592-3.172a.6.6,0,0,0-.156-.731l-3.138-2.569a.6.6,0,0,1-.2-.62,18.72,18.72,0,0,0,.476-2.313.6.6,0,0,1,.423-.492l3.9-1.125a.6.6,0,0,0,.432-.611l-.209-3.541a.6.6,0,0,0-.5-.556l-4-.655a.594.594,0,0,1-.478-.438,18.653,18.653,0,0,0-.751-2.241.6.6,0,0,1,.12-.64l2.814-2.92a.6.6,0,0,0,.069-.745L602,30.483a.6.6,0,0,0-.712-.231l-3.8,1.431a.6.6,0,0,1-.635-.142,18.744,18.744,0,0,0-1.765-1.573.594.594,0,0,1-.215-.612l.974-3.929a.6.6,0,0,0-.313-.68l-3.174-1.588a.6.6,0,0,0-.732.156l-2.573,3.138a.6.6,0,0,1-.619.195,18.875,18.875,0,0,0-2.315-.475.6.6,0,0,1-.492-.423l-1.124-3.895a.6.6,0,0,0-.611-.432l-3.545.21a.6.6,0,0,0-.556.5l-.658,3.994a.6.6,0,0,1-.439.478,18.625,18.625,0,0,0-2.245.751.6.6,0,0,1-.639-.12l-2.922-2.81a.6.6,0,0,0-.745-.069l-2.965,1.953a.6.6,0,0,0-.231.711l1.431,3.791a.6.6,0,0,1-.142.635,18.671,18.671,0,0,0-1.576,1.765.594.594,0,0,1-.612.214l-3.933-.972a.6.6,0,0,0-.68.313l-1.591,3.172a.6.6,0,0,0,.156.731l3.138,2.569a.594.594,0,0,1,.195.619,18.785,18.785,0,0,0-.476,2.312.6.6,0,0,1-.423.492l-3.9,1.125a.6.6,0,0,0-.432.61l.209,3.541a.6.6,0,0,0,.5.555l4,.655a.6.6,0,0,1,.478.439,18.591,18.591,0,0,0,.75,2.241.6.6,0,0,1-.12.639L563.11,55.39a.6.6,0,0,0-.069.745L565,59.1a.6.6,0,0,0,.712.231l3.8-1.432a.6.6,0,0,1,.635.142,18.693,18.693,0,0,0,1.766,1.573.6.6,0,0,1,.214.612l-.974,3.929a.6.6,0,0,0,.314.68l3.174,1.588a.6.6,0,0,0,.732-.156l2.573-3.137a.6.6,0,0,1,.619-.195,18.861,18.861,0,0,0,2.315.475.6.6,0,0,1,.492.423l1.124,3.9a.6.6,0,0,0,.611.432l3.546-.21a.6.6,0,0,0,.555-.5l.658-3.994a.594.594,0,0,1,.438-.477,18.629,18.629,0,0,0,2.245-.751.6.6,0,0,1,.639.12l2.922,2.81a.6.6,0,0,0,.745.069Zm-25.044-13.4a11.87,11.87,0,1,1,15.809,5.648,11.863,11.863,0,0,1-15.809-5.648" transform="translate(-354.44 -13.56)" fill="#17bdba"/>
    <path id="Path_48608" data-name="Path 48608" d="M686.124,147.794a.448.448,0,0,0,.112-.549l-1.386-2.7a.446.446,0,0,1,.052-.484,13.939,13.939,0,0,0,1.023-1.446.445.445,0,0,1,.437-.211l3.009.391a.449.449,0,0,0,.479-.29l.916-2.495a.448.448,0,0,0-.178-.531l-2.553-1.646a.446.446,0,0,1-.2-.444,14.05,14.05,0,0,0,.159-1.761.447.447,0,0,1,.273-.4l2.808-1.167a.449.449,0,0,0,.269-.491l-.455-2.617a.449.449,0,0,0-.42-.371l-3.03-.149a.445.445,0,0,1-.393-.286,13.965,13.965,0,0,0-.748-1.6.446.446,0,0,1,.035-.486l1.847-2.411a.448.448,0,0,0-.012-.56l-1.7-2.038a.449.449,0,0,0-.549-.112l-2.7,1.386a.447.447,0,0,1-.484-.052,13.969,13.969,0,0,0-1.447-1.021.446.446,0,0,1-.212-.437l.393-3.005a.449.449,0,0,0-.291-.479l-2.5-.913a.448.448,0,0,0-.531.178l-1.649,2.552a.446.446,0,0,1-.444.2,14.188,14.188,0,0,0-1.763-.158.446.446,0,0,1-.4-.273l-1.166-2.8a.448.448,0,0,0-.491-.27l-2.62.456a.448.448,0,0,0-.371.42l-.151,3.027a.445.445,0,0,1-.286.392,13.955,13.955,0,0,0-1.607.748.448.448,0,0,1-.486-.035L664.3,121a.449.449,0,0,0-.56.012l-2.042,1.7a.449.449,0,0,0-.112.549l1.386,2.7a.446.446,0,0,1-.053.484,14,14,0,0,0-1.023,1.446.445.445,0,0,1-.437.211l-3.009-.391a.449.449,0,0,0-.479.29l-.916,2.495a.448.448,0,0,0,.178.531l2.553,1.646a.445.445,0,0,1,.2.444,14.155,14.155,0,0,0-.159,1.761.446.446,0,0,1-.273.4l-2.807,1.167a.448.448,0,0,0-.27.491l.455,2.617a.448.448,0,0,0,.42.371l3.03.15a.445.445,0,0,1,.393.286,13.906,13.906,0,0,0,.748,1.6.447.447,0,0,1-.035.486l-1.847,2.411a.448.448,0,0,0,.012.56l1.7,2.038a.449.449,0,0,0,.549.112l2.7-1.386a.447.447,0,0,1,.484.052,13.971,13.971,0,0,0,1.447,1.021.446.446,0,0,1,.211.437l-.392,3.005a.449.449,0,0,0,.29.479l2.5.913a.448.448,0,0,0,.531-.178l1.649-2.552a.445.445,0,0,1,.444-.2,14.258,14.258,0,0,0,1.763.158.445.445,0,0,1,.4.273l1.166,2.8a.448.448,0,0,0,.491.27l2.62-.456a.449.449,0,0,0,.371-.419l.151-3.027a.445.445,0,0,1,.286-.392,13.953,13.953,0,0,0,1.607-.748.447.447,0,0,1,.486.035l2.412,1.844a.449.449,0,0,0,.56-.012Zm-19.768-7.855A8.888,8.888,0,1,1,678.6,142.8a8.883,8.883,0,0,1-12.241-2.866" transform="translate(-415.417 -74.583)" fill="#17bdba"/>
    <path id="Path_48609" data-name="Path 48609" d="M626.065,407.6a.55.55,0,0,1-.295-1.015c.916-.581,1.835-1.188,2.732-1.8a.55.55,0,1,1,.625.907c-.908.625-1.839,1.24-2.767,1.828a.547.547,0,0,1-.294.086m6.018-4.175a.55.55,0,0,1-.333-.989c.87-.659,1.736-1.341,2.576-2.026a.551.551,0,1,1,.7.853c-.85.694-1.727,1.384-2.608,2.05a.547.547,0,0,1-.332.112m5.658-4.658a.551.551,0,0,1-.367-.961c.809-.722,1.619-1.472,2.407-2.227a.551.551,0,1,1,.763.794c-.8.765-1.617,1.523-2.436,2.255a.549.549,0,0,1-.366.14m5.271-5.1a.551.551,0,0,1-.4-.931c.752-.786,1.5-1.6,2.226-2.41a.551.551,0,0,1,.822.733c-.734.823-1.492,1.643-2.252,2.438a.55.55,0,0,1-.4.17m4.862-5.49a.551.551,0,0,1-.426-.9c.692-.843,1.378-1.709,2.039-2.572a.551.551,0,0,1,.875.669c-.668.873-1.362,1.748-2.061,2.6a.551.551,0,0,1-.426.2m4.437-5.839a.551.551,0,0,1-.45-.867c.627-.891,1.247-1.8,1.844-2.716a.551.551,0,0,1,.922.6c-.6.921-1.231,1.845-1.865,2.745a.549.549,0,0,1-.451.234m4-6.148a.551.551,0,0,1-.472-.834c.557-.927,1.111-1.883,1.645-2.84a.551.551,0,0,1,.962.536c-.54.968-1.1,1.934-1.662,2.871a.552.552,0,0,1-.473.267m3.551-6.417a.543.543,0,0,1-.249-.06.55.55,0,0,1-.241-.74c.491-.965.975-1.957,1.44-2.949a.551.551,0,0,1,1,.468c-.47,1-.96,2.005-1.456,2.98a.55.55,0,0,1-.491.3m3.091-6.648a.55.55,0,0,1-.507-.765c.425-1.005.84-2.028,1.231-3.041a.551.551,0,0,1,1.028.4c-.4,1.024-.815,2.057-1.245,3.073a.551.551,0,0,1-.507.336m2.62-6.845a.551.551,0,0,1-.521-.73c.353-1.028.7-2.078,1.016-3.118a.551.551,0,0,1,1.053.324c-.325,1.052-.67,2.113-1.027,3.152a.551.551,0,0,1-.521.372m2.134-7.01a.543.543,0,0,1-.142-.019.55.55,0,0,1-.39-.673c.28-1.052.547-2.122.793-3.181a.551.551,0,0,1,1.073.249c-.248,1.07-.518,2.152-.8,3.215a.55.55,0,0,1-.532.409m1.632-7.148a.562.562,0,0,1-.1-.01.55.55,0,0,1-.438-.644c.2-1.069.393-2.158.561-3.236a.551.551,0,0,1,1.089.17c-.17,1.091-.361,2.192-.567,3.273a.551.551,0,0,1-.54.447m1.1-7.256a.527.527,0,0,1-.063,0,.55.55,0,0,1-.485-.609c.123-1.079.229-2.179.315-3.269a.551.551,0,0,1,1.1.086c-.087,1.1-.194,2.216-.319,3.308a.55.55,0,0,1-.546.488m.545-7.318h-.019a.551.551,0,0,1-.532-.569c.036-1.022.054-2.055.054-3.07V323.7a.551.551,0,0,1,1.1,0v.21c0,1.031-.018,2.077-.054,3.111a.551.551,0,0,1-.55.532m-.051-7.338a.55.55,0,0,1-.55-.523c-.054-1.1-.131-2.2-.227-3.273a.551.551,0,0,1,1.1-.1c.1,1.091.175,2.207.23,3.317a.551.551,0,0,1-.523.577h-.027m-.69-7.305a.551.551,0,0,1-.545-.473l-.039-.27c-.141-.973-.312-1.967-.509-2.957a.551.551,0,0,1,1.081-.214c.2,1.008.374,2.022.518,3.012l.039.273a.551.551,0,0,1-.468.623.626.626,0,0,1-.078.005m-1.464-7.189a.551.551,0,0,1-.532-.41c-.274-1.034-.582-2.093-.915-3.147a.551.551,0,0,1,1.05-.331c.338,1.071.651,2.146.929,3.2a.55.55,0,0,1-.533.691m-2.238-6.99a.551.551,0,0,1-.516-.357c-.378-1.009-.785-2.035-1.209-3.05a.551.551,0,1,1,1.016-.425c.43,1.028.843,2.067,1.225,3.089a.55.55,0,0,1-.516.743m-2.861-6.759a.551.551,0,0,1-.5-.316c-.459-.974-.947-1.966-1.451-2.949a.551.551,0,0,1,.98-.5c.509.993,1,2,1.468,2.982a.55.55,0,0,1-.5.785m-3.372-6.523a.549.549,0,0,1-.48-.281c-.532-.945-1.088-1.9-1.655-2.843a.551.551,0,0,1,.944-.568c.572.951,1.135,1.917,1.671,2.872a.55.55,0,0,1-.48.82m-3.807-6.281a.552.552,0,0,1-.462-.25c-.6-.915-1.212-1.834-1.834-2.732a.551.551,0,0,1,.906-.626c.628.907,1.251,1.835,1.852,2.758a.551.551,0,0,1-.462.851m-4.2-6.027a.549.549,0,0,1-.442-.222c-.663-.889-1.339-1.765-2.008-2.6a.55.55,0,1,1,.861-.686c.676.848,1.36,1.734,2.03,2.632a.551.551,0,0,1-.441.88m-4.61-5.721a.549.549,0,0,1-.414-.187c-.816-.928-1.567-1.732-2.232-2.39a.551.551,0,1,1,.775-.782c.683.676,1.451,1.5,2.285,2.446a.55.55,0,0,1-.413.914" transform="translate(-395.831 -167.045)" fill="#5479f7"/>
    <path id="Path_48610" data-name="Path 48610" d="M715.251,380.888a32.414,32.414,0,1,1-32.414-32.4,32.406,32.406,0,0,1,32.414,32.4" transform="translate(-411.593 -220.59)" fill="#fff"/>
    <path id="Path_48611" data-name="Path 48611" d="M681.888,412.886a32.948,32.948,0,1,1,32.964-32.949,32.994,32.994,0,0,1-32.964,32.949m0-64.8a31.847,31.847,0,1,0,31.863,31.847,31.891,31.891,0,0,0-31.863-31.847" transform="translate(-410.644 -219.64)"/>
    <path id="Path_48612" data-name="Path 48612" d="M739.545,432.341a.551.551,0,0,1-.161-1.077l16.951-5.18-16.95-5.12a.55.55,0,1,1,.319-1.054l18.684,5.644a.55.55,0,0,1,0,1.053l-18.685,5.71a.558.558,0,0,1-.161.024" transform="translate(-467.641 -265.783)"/>
    <path id="Path_48613" data-name="Path 48613" d="M739.546,423.473a.55.55,0,0,1-.371-.957l18.242-16.633-18.246-16.946a.551.551,0,1,1,.75-.806l18.685,17.353a.55.55,0,0,1,0,.81l-18.685,17.036a.55.55,0,0,1-.371.144" transform="translate(-467.642 -245.589)"/>
    <path id="Path_48614" data-name="Path 48614" d="M701.69,428.669a.551.551,0,0,1-.307-.094l-12.975-8.723a.551.551,0,1,1,.615-.914L702,427.662a.551.551,0,0,1-.308,1.007" transform="translate(-435.476 -265.124)"/>
    <path id="Path_48615" data-name="Path 48615" d="M691.666,403.359a.551.551,0,0,1-.323-1l13.967-10.1a.551.551,0,1,1,.646.893l-13.967,10.1a.551.551,0,0,1-.322.1" transform="translate(-437.343 -248.234)"/>
    <path id="Path_48616" data-name="Path 48616" d="M705.787,462.542a.55.55,0,0,1-.32-.1l-14.122-10.088a.55.55,0,0,1,.32-1h13.967a.551.551,0,1,1,0,1.1H693.384l12.724,9.089a.551.551,0,0,1-.321,1" transform="translate(-437.343 -285.701)"/>
    <path id="Path_48617" data-name="Path 48617" d="M704.242,420.988H689.468a.55.55,0,1,1,0-1.1h14.774a.55.55,0,1,1,0,1.1" transform="translate(-435.952 -265.783)"/>
    <path id="Path_48618" data-name="Path 48618" d="M680.576,415.158a3.614,3.614,0,1,1,3.614,3.612,3.613,3.613,0,0,1-3.614-3.612" transform="translate(-430.674 -260.503)" fill="#17bdba"/>
    <path id="Path_48619" data-name="Path 48619" d="M683.24,418.37a4.162,4.162,0,1,1,4.165-4.162,4.168,4.168,0,0,1-4.165,4.162m0-7.224a3.061,3.061,0,1,0,3.063,3.062,3.066,3.066,0,0,0-3.063-3.062" transform="translate(-429.725 -259.553)"/>
    <path id="Path_48620" data-name="Path 48620" d="M730.654,415.158a3.614,3.614,0,1,1,3.613,3.612,3.613,3.613,0,0,1-3.613-3.612" transform="translate(-462.364 -260.503)" fill="#a9edcd"/>
    <path id="Path_48621" data-name="Path 48621" d="M733.318,418.37a4.162,4.162,0,1,1,4.164-4.162,4.168,4.168,0,0,1-4.164,4.162m0-7.224a3.061,3.061,0,1,0,3.063,3.062,3.066,3.066,0,0,0-3.063-3.062" transform="translate(-461.414 -259.553)"/>
    <path id="Path_48622" data-name="Path 48622" d="M730.654,383.253a3.614,3.614,0,1,1,3.613,3.612,3.613,3.613,0,0,1-3.613-3.612" transform="translate(-462.364 -240.308)" fill="#a9edcd"/>
    <path id="Path_48623" data-name="Path 48623" d="M733.318,386.466a4.162,4.162,0,1,1,4.164-4.162,4.168,4.168,0,0,1-4.164,4.162m0-7.224a3.061,3.061,0,1,0,3.063,3.062,3.066,3.066,0,0,0-3.063-3.062" transform="translate(-461.414 -239.358)"/>
    <path id="Path_48624" data-name="Path 48624" d="M730.654,476.952a3.614,3.614,0,1,1,3.613,3.612,3.613,3.613,0,0,1-3.613-3.612" transform="translate(-462.364 -299.618)" fill="#a9edcd"/>
    <path id="Path_48625" data-name="Path 48625" d="M733.318,480.165A4.162,4.162,0,1,1,737.482,476a4.168,4.168,0,0,1-4.164,4.163m0-7.224A3.061,3.061,0,1,0,736.38,476a3.065,3.065,0,0,0-3.063-3.061" transform="translate(-461.414 -298.669)"/>
    <path id="Path_48626" data-name="Path 48626" d="M688.715,436.431a.55.55,0,0,1-.319-1l12.975-9.209a.55.55,0,1,1,.637.9l-12.975,9.209a.548.548,0,0,1-.318.1" transform="translate(-435.475 -269.729)"/>
    <path id="Path_48627" data-name="Path 48627" d="M730.654,446.091a3.614,3.614,0,1,1,3.613,3.612,3.613,3.613,0,0,1-3.613-3.612" transform="translate(-462.364 -280.083)" fill="#a9edcd"/>
    <path id="Path_48628" data-name="Path 48628" d="M733.318,449.3a4.162,4.162,0,1,1,4.164-4.162,4.168,4.168,0,0,1-4.164,4.162m0-7.224a3.061,3.061,0,1,0,3.063,3.062,3.066,3.066,0,0,0-3.063-3.062" transform="translate(-461.414 -279.134)"/>
    <path id="Path_48629" data-name="Path 48629" d="M781.539,430.535a3.614,3.614,0,1,1,3.613,3.612,3.613,3.613,0,0,1-3.613-3.612" transform="translate(-494.564 -270.237)" fill="#fff"/>
    <path id="Path_48630" data-name="Path 48630" d="M784.2,433.748a4.162,4.162,0,1,1,4.165-4.162,4.168,4.168,0,0,1-4.165,4.162m0-7.224a3.061,3.061,0,1,0,3.063,3.061,3.065,3.065,0,0,0-3.063-3.061" transform="translate(-493.615 -269.287)"/>
    <path id="Path_48631" data-name="Path 48631" d="M680.576,446.091a3.614,3.614,0,1,1,3.614,3.612,3.613,3.613,0,0,1-3.614-3.612" transform="translate(-430.674 -280.083)" fill="#17bdba"/>
    <path id="Path_48632" data-name="Path 48632" d="M683.24,449.3a4.162,4.162,0,1,1,4.165-4.162,4.168,4.168,0,0,1-4.165,4.162m0-7.224a3.061,3.061,0,1,0,3.063,3.062,3.066,3.066,0,0,0-3.063-3.062" transform="translate(-429.725 -279.134)"/>
  </g>
</svg>
