<svg id="Group_20350" data-name="Group 20350" xmlns="http://www.w3.org/2000/svg" xmlns:xlink="http://www.w3.org/1999/xlink" width="283.375" height="283.132" viewBox="0 0 283.375 283.132">
  <defs>
    <clipPath id="clip-path">
      <rect id="Rectangle_10454" data-name="Rectangle 10454" width="283.375" height="283.132" fill="none" opacity="0.4"/>
    </clipPath>
  </defs>
  <g id="Group_20349" data-name="Group 20349" clip-path="url(#clip-path)">
    <path id="Path_48453" data-name="Path 48453" d="M69.85,72.336C99.445,42.561,90.972,23.9,111.222,10.114,142.38-11.1,200.532,7.151,234.84,36.328c42.019,35.735,63.7,100.983,39,160.012-26.3,62.863-95.5,95.5-157.25,85.661C61.452,273.219,7.247,229.775,1.815,177.67c-.589-5.648-3.187-36.177,15.039-62.5,15.065-21.756,29.537-19.234,53-42.836" transform="translate(-0.888 -0.597)" fill="#ebf0f1"/>
    <path id="Path_48454" data-name="Path 48454" d="M72.158,114.812c19.629-3.611,37.755,5.483,40.485,20.313,1.222,6.636-.848,13.294-5.265,18.952l8.833,13.578-18.55-5.04a45.682,45.682,0,0,1-15.616,5.9c-19.629,3.611-37.755-5.483-40.485-20.313s10.969-29.78,30.6-33.391" transform="translate(-27.132 -75.074)" fill="#8ce5bb"/>
    <path id="Path_48455" data-name="Path 48455" d="M89.394,120.578a.512.512,0,0,1-.286-.938c.436-.293.883-.58,1.327-.855a.512.512,0,1,1,.538.872c-.434.268-.869.548-1.294.833a.51.51,0,0,1-.286.087" transform="translate(-58.512 -78.162)"/>
    <path id="Path_48456" data-name="Path 48456" d="M80.938,175.093c-16.327,0-30.079-8.654-32.448-21.519-1.584-8.606,2.127-17.489,10.183-24.37a.513.513,0,1,1,.666.779c-7.77,6.637-11.357,15.168-9.841,23.405,2.675,14.528,20.568,23.458,39.889,19.9,1.448-.267,2.891-.6,4.288-.995a.512.512,0,1,1,.278.986c-1.428.4-2.9.744-4.381,1.017a47.789,47.789,0,0,1-8.634.8" transform="translate(-31.685 -84.99)"/>
    <path id="Path_48457" data-name="Path 48457" d="M170.621,153.593a.5.5,0,0,1-.134-.018l-18.337-4.982a43.627,43.627,0,0,1-4.173,2.227.512.512,0,1,1-.433-.929A42.518,42.518,0,0,0,151.8,147.6a.512.512,0,0,1,.4-.058l17.253,4.687-8.1-12.452a.512.512,0,0,1,.026-.594c4.476-5.734,6.31-12.319,5.164-18.544-1.291-7.01-6.132-12.944-13.631-16.707-7.547-3.787-16.872-4.922-26.257-3.194a47.262,47.262,0,0,0-6.5,1.675.512.512,0,0,1-.326-.971,48.425,48.425,0,0,1,6.637-1.712c9.6-1.766,19.157-.6,26.9,3.287,7.794,3.911,12.83,10.1,14.18,17.437,1.18,6.411-.645,13.17-5.141,19.07L171.05,152.8a.512.512,0,0,1-.43.791" transform="translate(-78.66 -65.139)"/>
    <path id="Path_48458" data-name="Path 48458" d="M156.3,172.225a.512.512,0,0,1,0-1.025l24.692-.058h0a.512.512,0,0,1,0,1.025l-24.692.058Z" transform="translate(-102.556 -112.685)"/>
    <path id="Path_48459" data-name="Path 48459" d="M73.45,170a.512.512,0,0,1,0-1.025l23.593-.131h0a.512.512,0,0,1,0,1.025L73.453,170Z" transform="translate(-48.016 -111.171)"/>
    <path id="Path_48460" data-name="Path 48460" d="M163.282,190.362h-.007l-32.261-.4a.512.512,0,0,1,.006-1.025h.006l32.261.4a.512.512,0,0,1-.007,1.025" transform="translate(-85.916 -124.403)"/>
    <path id="Path_48461" data-name="Path 48461" d="M84.809,189.393H84.8l-14.484-.179a.512.512,0,0,1,.006-1.025h.006l14.484.179a.512.512,0,0,1-.006,1.025" transform="translate(-45.958 -123.909)"/>
    <path id="Path_48462" data-name="Path 48462" d="M205.358,207.023h0l-11.821-.073a.512.512,0,0,1,0-1.025h0l11.821.073a.512.512,0,0,1,0,1.025" transform="translate(-127.071 -135.587)"/>
    <path id="Path_48463" data-name="Path 48463" d="M111.38,205.874h-.009l-38.362-.625a.512.512,0,0,1-.5-.521.507.507,0,0,1,.521-.5l38.362.625a.512.512,0,0,1-.008,1.025" transform="translate(-47.732 -134.466)"/>
    <path id="Path_48464" data-name="Path 48464" d="M441.591,269.2H314.482a8.526,8.526,0,0,1-8.666-9.864l31.3-246.7a11.567,11.567,0,0,1,11.169-9.864L469.011,1.361c13.858,0,15.738,5.823,15.046,11.271l-31.3,246.7a11.567,11.567,0,0,1-11.169,9.864" transform="translate(-201.271 -0.896)" fill="#10394b"/>
    <path id="Path_48465" data-name="Path 48465" d="M419.206,269.289H292.1a8.554,8.554,0,0,1-8.666-9.914l31.3-247.959A11.587,11.587,0,0,1,325.9,1.5H453.007a8.554,8.554,0,0,1,8.667,9.914l-31.3,247.959a11.586,11.586,0,0,1-11.169,9.914" transform="translate(-186.535 -0.988)" fill="#fff"/>
    <path id="Path_48466" data-name="Path 48466" d="M304.748,296.664,334.632,59.9a2.675,2.675,0,0,1,2.578-2.289H465a1.975,1.975,0,0,1,2,2.289l-29.884,236.76a2.675,2.675,0,0,1-2.579,2.289H306.748a1.975,1.975,0,0,1-2-2.289" transform="translate(-200.608 -37.936)" fill="#35d188" opacity="0.12"/>
    <path id="Path_48467" data-name="Path 48467" d="M582.9,24.1a3.2,3.2,0,0,1-3.247-3.714,4.341,4.341,0,0,1,4.184-3.714,3.2,3.2,0,0,1,3.247,3.714A4.341,4.341,0,0,1,582.9,24.1" transform="translate(-381.577 -10.979)" fill="#e6faf1"/>
    <path id="Path_48468" data-name="Path 48468" d="M438.994,268.813H334.08a.512.512,0,1,1,0-1.025H438.994a11.074,11.074,0,0,0,10.661-9.466l31.3-247.959a8.3,8.3,0,0,0-1.92-6.636,8.163,8.163,0,0,0-6.238-2.7H345.687a11.074,11.074,0,0,0-10.66,9.466L314.432,173.65a.512.512,0,0,1-1.017-.128L334.009,10.363A12.127,12.127,0,0,1,345.687,0H472.8A9.177,9.177,0,0,1,479.8,3.049a9.306,9.306,0,0,1,2.168,7.442l-31.3,247.959a12.128,12.128,0,0,1-11.678,10.363" transform="translate(-206.323)"/>
    <path id="Path_48469" data-name="Path 48469" d="M451.316,298.477h-41.6a.512.512,0,1,1,0-1.025h41.6a2.152,2.152,0,0,0,2.07-1.84L483.27,58.852a1.526,1.526,0,0,0-.348-1.222,1.5,1.5,0,0,0-1.144-.49H353.986a2.152,2.152,0,0,0-2.07,1.841L331.233,222.842a.513.513,0,0,1-1.017-.128L350.9,58.852a3.206,3.206,0,0,1,3.087-2.737H481.778a2.508,2.508,0,0,1,1.913.837,2.538,2.538,0,0,1,.6,2.028L454.4,295.74a3.2,3.2,0,0,1-3.087,2.737" transform="translate(-217.384 -36.948)"/>
    <path id="Path_48470" data-name="Path 48470" d="M353.274,418.666V418.6c.13-6.711,4.286-13.552,12.352-20.331A73.974,73.974,0,0,1,377.08,390.4a3.83,3.83,0,1,1,3.612,6.756c-5.437,2.915-19.579,12.474-19.754,21.592v.041a8.8,8.8,0,0,0,2.618,6.879c4.329,4.157,13.109,4.6,16.127,4.419a3.83,3.83,0,1,1,.457,7.646c-.58.035-14.284.764-21.892-6.541a16.283,16.283,0,0,1-4.971-12.528" transform="translate(-232.564 -256.753)"/>
    <path id="Path_48471" data-name="Path 48471" d="M432.77,503.088l.372-22.681a3.831,3.831,0,0,1,7.662.125l-.372,22.681a3.831,3.831,0,0,1-7.662-.125" transform="translate(-284.899 -313.833)" fill="#5479f7"/>
    <path id="Path_48472" data-name="Path 48472" d="M342.513,225.27h.687a1.737,1.737,0,0,0,1.738-1.737v-21.6A1.737,1.737,0,0,0,343.2,200.2h-.687a9.2,9.2,0,0,0-9.2,9.2v6.678a9.2,9.2,0,0,0,9.2,9.2" transform="translate(-219.425 -131.817)" fill="#10394b"/>
    <path id="Path_48473" data-name="Path 48473" d="M668.355,229.939H666.72V207.29h1.635a9.988,9.988,0,0,1,9.989,9.986v2.677a9.988,9.988,0,0,1-9.989,9.986" transform="translate(-438.912 -136.485)" fill="#fff"/>
    <path id="Path_48474" data-name="Path 48474" d="M667.367,229.463h-1.635a.513.513,0,0,1-.513-.512V206.3a.513.513,0,0,1,.513-.512h1.635a10.512,10.512,0,0,1,10.5,10.5v2.677a10.512,10.512,0,0,1-10.5,10.5m-1.123-1.025h1.123a9.486,9.486,0,0,0,9.477-9.473v-2.677a9.486,9.486,0,0,0-9.477-9.474h-1.123Z" transform="translate(-437.924 -135.498)"/>
    <path id="Path_48475" data-name="Path 48475" d="M466.236,142.264c0-24.337-24.539-49.512-54.81-49.512s-54.81,25.175-54.81,49.512,24.539,38.621,54.81,38.621,54.81-14.284,54.81-38.621" transform="translate(-234.767 -61.07)" fill="#fff"/>
    <path id="Path_48476" data-name="Path 48476" d="M410.439,180.409c-15.243,0-29.107-3.647-39.041-10.27-10.652-7.1-16.282-17.082-16.282-28.863,0-12.07,5.91-24.556,16.215-34.255a56.378,56.378,0,0,1,78.215,0c10.3,9.7,16.215,22.185,16.215,34.255,0,11.78-5.63,21.761-16.282,28.863-9.933,6.623-23.8,10.27-39.04,10.27m0-88.133c-31.077,0-54.3,25.869-54.3,49,0,11.422,5.472,21.108,15.825,28.01,9.767,6.511,23.43,10.1,38.472,10.1s28.705-3.587,38.472-10.1c10.353-6.9,15.825-16.588,15.825-28.01,0-23.13-23.221-49-54.3-49" transform="translate(-233.779 -60.083)"/>
    <path id="Path_48477" data-name="Path 48477" d="M434.864,372.177h27.457a21.787,21.787,0,0,1,21.791,21.783,122.2,122.2,0,0,1-2.316,23.675l-3.948,19.986a29.823,29.823,0,0,1-58.512,0l-3.947-19.986a122.167,122.167,0,0,1-2.316-23.675,21.787,21.787,0,0,1,21.791-21.783" transform="translate(-271.932 -245.052)" fill="#fff"/>
    <path id="Path_48478" data-name="Path 48478" d="M447.606,461.184a30.4,30.4,0,0,1-29.759-24.449L413.9,416.748a123,123,0,0,1-2.325-23.775,22.324,22.324,0,0,1,22.3-22.3h27.457a22.324,22.324,0,0,1,22.3,22.3,122.975,122.975,0,0,1-2.325,23.775l-3.948,19.986a30.4,30.4,0,0,1-29.759,24.449M433.877,371.7A21.3,21.3,0,0,0,412.6,392.973a121.922,121.922,0,0,0,2.306,23.576l3.948,19.986a29.31,29.31,0,0,0,57.506,0l3.948-19.986a121.949,121.949,0,0,0,2.306-23.576A21.3,21.3,0,0,0,461.334,371.7Z" transform="translate(-270.946 -244.065)"/>
    <path id="Path_48479" data-name="Path 48479" d="M486.464,420.443H490a13.177,13.177,0,0,0,13.179-13.175v-35.09H473.285v35.09a13.177,13.177,0,0,0,13.179,13.175" transform="translate(-311.571 -245.052)" fill="#35d188" opacity="0.35"/>
    <path id="Path_48480" data-name="Path 48480" d="M502.189,371.7H472.3a.512.512,0,1,1,0-1.025h29.892a.512.512,0,1,1,0,1.025" transform="translate(-310.583 -244.065)"/>
    <path id="Path_48481" data-name="Path 48481" d="M390.053,216.321h52.78c5.483,0,9.928,4.788,9.928,10.695v6.977c0,4.5-2.405,9.279-6.553,10.058-14.627,2.747-44.9,2.747-59.53,0-4.148-.779-6.553-5.553-6.553-10.058v-6.977c0-5.906,4.445-10.695,9.928-10.695" transform="translate(-250.242 -142.432)"/>
    <path id="Path_48482" data-name="Path 48482" d="M522.713,250.523a3.335,3.335,0,1,0,3.326-3.583,3.462,3.462,0,0,0-3.326,3.583" transform="translate(-344.11 -162.592)" fill="#35d188"/>
    <path id="Path_48483" data-name="Path 48483" d="M419.145,250.523a3.335,3.335,0,1,0,3.326-3.583,3.462,3.462,0,0,0-3.326,3.583" transform="translate(-275.93 -162.592)" fill="#35d188"/>
    <path id="Path_48484" data-name="Path 48484" d="M579.773,255.078a.512.512,0,0,1-.16-1l16.852-5.546a16.44,16.44,0,0,0,11.146-18.157l-1.214-7.922a.512.512,0,0,1,1.013-.155l1.213,7.922a17.461,17.461,0,0,1-11.838,19.286l-16.852,5.546a.523.523,0,0,1-.16.025" transform="translate(-381.336 -146.081)" fill="#10394b"/>
    <path id="Path_48485" data-name="Path 48485" d="M587.273,133.16a.513.513,0,0,1-.5-.381,69.832,69.832,0,0,0-10.28-20.7c-6.825-9.321-19.052-20.294-38.578-19.595a.518.518,0,0,1-.53-.494.512.512,0,0,1,.494-.53,43.993,43.993,0,0,1,24.127,5.854A51.058,51.058,0,0,1,577.345,111.5a70.914,70.914,0,0,1,10.424,21.018.512.512,0,0,1-.5.644" transform="translate(-353.772 -60.197)" fill="#10394b"/>
    <path id="Path_48486" data-name="Path 48486" d="M641.094,220.212c-.9-7.133,3.669-13.587,10.212-14.414a40.439,40.439,0,0,1,4.076-.112c5.677.381,8.6,5.178,9.406,11.529.867,6.849-1.744,13.249-7.87,14.466-.254.051-2.068.2-2.331.2-7.171.024-12.59-4.533-13.493-11.666" transform="translate(-421.967 -135.419)" fill="#578498"/>
    <path id="Path_48487" data-name="Path 48487" d="M649.44,220.046c-.763-7.149,3.935-13.513,10.492-14.212s12.493,4.53,13.256,11.679-3.935,13.513-10.493,14.212S650.2,227.2,649.44,220.046" transform="translate(-427.483 -135.486)" fill="#10394b"/>
    <path id="Path_48488" data-name="Path 48488" d="M562.4,314.1l-9.434.9a2.778,2.778,0,0,1-3.02-2.5l-.033-.346a2.778,2.778,0,0,1,2.5-3.019l9.434-.9a2.779,2.779,0,0,1,3.02,2.5l.033.346a2.778,2.778,0,0,1-2.5,3.019" transform="translate(-362.008 -202.946)" fill="#10394b"/>
    <path id="Path_48489" data-name="Path 48489" d="M396.139,495.2h51.1l-19.85-53.661h-51.1Z" transform="translate(-247.717 -290.723)" fill="#35d188"/>
    <path id="Path_48490" data-name="Path 48490" d="M446.256,494.728h-51.1a.513.513,0,0,1-.481-.334l-19.85-53.661a.513.513,0,0,1,.481-.69h51.1a.513.513,0,0,1,.481.335l19.85,53.661a.513.513,0,0,1-.481.69M395.509,493.7H445.52l-19.471-52.637H376.038Z" transform="translate(-246.73 -289.736)"/>
    <path id="Path_48491" data-name="Path 48491" d="M589.983,461.8c7.507,0,17.663-1.068,24.173-6.058a16.3,16.3,0,0,0,6.515-11.285c2.562-20.707-22.435-32.559-23.5-33.054a3.83,3.83,0,0,0-3.231,6.946c.21.1,21,10.005,19.126,25.168a8.78,8.78,0,0,1-3.572,6.146c-7.158,5.486-26.036,5.348-31.446,4.588-2.095-.295-3.122,1.093-3.417,3.188a3.906,3.906,0,0,0,3.417,4.327c3.036.334,6.59.034,11.935.034" transform="translate(-378.266 -270.643)"/>
    <path id="Path_48492" data-name="Path 48492" d="M521.544,539.93H528.9a7.766,7.766,0,0,0,7.753-7.014l.256-2.56a7.79,7.79,0,0,0-7.753-8.564H517.421a3.83,3.83,0,1,0,0,7.66h11.737a.129.129,0,0,1,.128.142l-.256,2.56a.129.129,0,0,1-.128.117h-7.358a3.83,3.83,0,1,0,0,7.66" transform="translate(-338.104 -343.562)"/>
    <path id="Path_48493" data-name="Path 48493" d="M248.15,24.963l1.014,3.235,3.692-.3a14.026,14.026,0,0,0,1.263,2L252.275,33.1l2.5,2.3,3.047-2.108a14.188,14.188,0,0,0,2.091,1.093l.007,3.7,3.31.74,1.582-3.343a14.061,14.061,0,0,0,2.361-.1l1.858,3.2,3.236-1.014-.3-3.691a14.061,14.061,0,0,0,2-1.262l3.208,1.843,2.3-2.5-2.109-3.046a14.224,14.224,0,0,0,1.093-2.09l3.7-.007.74-3.309-3.345-1.581a14.052,14.052,0,0,0-.1-2.36l3.2-1.857-1.014-3.235-3.692.3a14.047,14.047,0,0,0-1.263-2l1.844-3.206-2.5-2.3L272.98,9.385a14.249,14.249,0,0,0-2.091-1.093l-.007-3.7-3.31-.74L265.99,7.192a14.1,14.1,0,0,0-2.361.1l-1.858-3.2-3.236,1.014.3,3.69a14.067,14.067,0,0,0-2,1.262l-3.208-1.843-2.3,2.5,2.109,3.045a14.26,14.26,0,0,0-1.093,2.091l-3.7.007-.74,3.309,3.345,1.581a14.012,14.012,0,0,0,.1,2.36Zm14.638-11.956a8.728,8.728,0,1,1-5.72,10.938,8.731,8.731,0,0,1,5.72-10.938" transform="translate(-163.201 -2.534)" fill="#8ce5bb"/>
    <path id="Path_48494" data-name="Path 48494" d="M163.978,18.893l.672,2.145,2.449-.2a9.31,9.31,0,0,0,.837,1.324l-1.223,2.126,1.656,1.522,2.02-1.4a9.44,9.44,0,0,0,1.387.725l0,2.457,2.195.49,1.049-2.217a9.313,9.313,0,0,0,1.566-.068l1.232,2.124,2.146-.672-.2-2.448a9.325,9.325,0,0,0,1.324-.837l2.127,1.222,1.522-1.655-1.4-2.02a9.45,9.45,0,0,0,.725-1.386l2.457,0,.491-2.194L184.8,16.879a9.338,9.338,0,0,0-.068-1.565l2.125-1.232-.673-2.145-2.448.2a9.311,9.311,0,0,0-.837-1.324l1.223-2.126-1.655-1.522-2.02,1.4a9.442,9.442,0,0,0-1.387-.725l0-2.456-2.2-.49-1.049,2.217a9.311,9.311,0,0,0-1.566.068l-1.232-2.125-2.146.673.2,2.447a9.339,9.339,0,0,0-1.324.837l-2.127-1.222-1.522,1.655,1.4,2.02a9.451,9.451,0,0,0-.725,1.387l-2.457,0-.491,2.194,2.218,1.049a9.34,9.34,0,0,0,.068,1.565Zm9.708-7.929a5.788,5.788,0,1,1-3.793,7.254,5.79,5.79,0,0,1,3.793-7.254" transform="translate(-107.843 -3.22)" fill="#8ce5bb" opacity="0.4"/>
    <path id="Path_48495" data-name="Path 48495" d="M689.406,91.462a.532.532,0,0,1-.08-.006.512.512,0,0,1-.427-.586l.414-2.624a.512.512,0,0,1,1.012.16l-.414,2.624a.512.512,0,0,1-.505.433" transform="translate(-453.509 -57.819)"/>
    <path id="Path_48496" data-name="Path 48496" d="M685.167,118.349a.491.491,0,0,1-.08-.007.512.512,0,0,1-.427-.585l.414-2.624a.512.512,0,0,1,1.012.16l-.414,2.624a.512.512,0,0,1-.505.433" transform="translate(-450.719 -75.522)"/>
    <path id="Path_48497" data-name="Path 48497" d="M673.484,103.632a.555.555,0,0,1-.088-.007l-2.58-.446a.513.513,0,1,1,.175-1.01l2.58.446a.513.513,0,0,1-.087,1.018" transform="translate(-441.329 -67.266)"/>
    <path id="Path_48498" data-name="Path 48498" d="M699.91,108.2a.552.552,0,0,1-.088-.007l-2.58-.446a.513.513,0,1,1,.175-1.01l2.58.446a.512.512,0,0,1-.087,1.017" transform="translate(-458.725 -70.274)"/>
    <path id="Path_48499" data-name="Path 48499" d="M650.43,623.015a.492.492,0,0,1-.081-.006.512.512,0,0,1-.426-.585l.414-2.624a.512.512,0,0,1,1.012.159l-.414,2.624a.512.512,0,0,1-.505.433" transform="translate(-427.85 -407.808)"/>
    <path id="Path_48500" data-name="Path 48500" d="M646.191,649.9a.485.485,0,0,1-.08-.007.512.512,0,0,1-.426-.585l.414-2.624a.512.512,0,0,1,1.012.16l-.414,2.624a.512.512,0,0,1-.505.433" transform="translate(-425.06 -425.511)"/>
    <path id="Path_48501" data-name="Path 48501" d="M634.507,635.184a.564.564,0,0,1-.088-.007l-2.58-.446a.513.513,0,0,1,.175-1.01l2.58.446a.513.513,0,0,1-.087,1.018" transform="translate(-415.67 -417.254)"/>
    <path id="Path_48502" data-name="Path 48502" d="M660.933,639.753a.55.55,0,0,1-.088-.007l-2.58-.446a.513.513,0,1,1,.175-1.01l2.58.445a.512.512,0,0,1-.087,1.018" transform="translate(-433.066 -420.263)"/>
    <path id="Path_48503" data-name="Path 48503" d="M520.083,669.307a6.039,6.039,0,0,1,2.785.29L535,672.265s-2.678,3.289-5.469,3.477a31.363,31.363,0,0,1,2.377,4.434s5.374,1.333,6.482,1.825,2.7,1.033,3.475,2.187a5.5,5.5,0,0,1,.688,2.9l-12.871-.809-11.552-9.668-21.2,10.513.942-13.056Z" transform="translate(-327.137 -440.655)" fill="#fff"/>
    <path id="Path_48504" data-name="Path 48504" d="M495.944,686.65a.513.513,0,0,1-.511-.549l.942-13.056a.512.512,0,0,1,.4-.464l22.21-4.761.036-.007a6.565,6.565,0,0,1,2.993.3l12.1,2.661a.512.512,0,0,1,.287.824c-.1.128-2.374,2.883-5.023,3.536a32.351,32.351,0,0,1,1.9,3.616c1.084.272,5.31,1.344,6.32,1.793.151.068.312.136.479.206a6.942,6.942,0,0,1,3.214,2.164,5.981,5.981,0,0,1,.775,3.212.513.513,0,0,1-.544.485l-12.871-.809a.516.516,0,0,1-.3-.119l-11.295-9.453-20.9,10.364a.511.511,0,0,1-.228.054m32.947-1.858,12.149.763a4.384,4.384,0,0,0-.592-2.068,6.2,6.2,0,0,0-2.763-1.792c-.172-.073-.338-.143-.494-.213-.876-.389-4.915-1.428-6.4-1.8a.513.513,0,0,1-.35-.3,31.139,31.139,0,0,0-2.335-4.353.512.512,0,0,1,.4-.789c1.815-.122,3.631-1.734,4.529-2.655l-11.263-2.477-.052-.014a5.562,5.562,0,0,0-2.534-.271L497.369,673.5l-.85,11.778,20.392-10.114a.513.513,0,0,1,.557.066Z" transform="translate(-326.15 -439.668)"/>
    <path id="Path_48505" data-name="Path 48505" d="M192.332,558.373l-7.7-11.972c-.605-.941-5.659.561-6.594.616a61.644,61.644,0,0,1-10.178-.722q-10.7-1.186-21.248-3.438c-5.732-1.225-11.5-2.716-16.577-5.641-6.687-3.851-10.2-9.851-12.874-16.851a82.02,82.02,0,0,0-7.458-14.554,47.191,47.191,0,0,0-18.048-16.1c-9.57-4.746-20.7-7.038-31.3-4.923a83.405,83.405,0,0,0-34.451,16C14.773,509.67-5.788,540.647,1.543,555.563c8.99,18.293,33.226,7.591,33.226,7.591s2.353,3.841-2.7,15.518c-6.142,14.187,2.758,16.085,2.758,16.085,20.688,10.111,75.492,7.851,70.819-3.44-5-12.087-5.086-27.408-5.086-27.408,6.914,6.835,21.891,8.28,21.891,8.28s12.642,1.2,20.672-.171c44.931-6.661,49.212-13.646,49.212-13.646" transform="translate(0 -318.675)" fill="#10394b"/>
    <path id="Path_48506" data-name="Path 48506" d="M93.252,618.828a.513.513,0,0,1-.485-.345c-6.849-19.81-3.668-35.813-3.635-35.972a.512.512,0,0,1,1,.207c-.032.157-3.152,15.9,3.6,35.431a.512.512,0,0,1-.485.68" transform="translate(-58.173 -383.272)"/>
    <path id="Path_48507" data-name="Path 48507" d="M256.783,649.286a.511.511,0,0,1-.358-.146c-10.707-10.452-18.16-34.731-18.472-35.759a.513.513,0,0,1,.981-.3c.076.249,7.69,25.056,18.207,35.324a.512.512,0,0,1-.358.879" transform="translate(-156.634 -403.431)"/>
    <path id="Path_48508" data-name="Path 48508" d="M167.765,344.483a11.673,11.673,0,0,1,10.021,5.829c.962,1.656,1.835,3.2,2.012,3.635a18.6,18.6,0,0,0,4.538,7.544.884.884,0,0,1,.088,1.175l-2.082,2.662a.82.82,0,0,0-.163.647c.248,1.42,1.488,6.573,1.121,7.5-.777,1.97-5.491,2.5-6.887,2.621a.782.782,0,0,0-.623.4c-.453.817-1.648,3.157-2.628,9-1.494,8.9,6.989,10.28,5.261,11.152-12.053,6.082-34.247,4.7-32.96,2.169,1.059-2.081,13.237-7.466,14.37-22.1.707-9.125-12.076-9.875-2.865-27.245,2.141-4.037,6.775-5.005,10.8-4.986" transform="translate(-95.726 -226.817)" fill="#fff"/>
    <path id="Path_48509" data-name="Path 48509" d="M155.115,400.482c-5.521,0-9.872-.7-10.873-1.705a.977.977,0,0,1-.226-1.183,9.429,9.429,0,0,1,2.394-2.225c3.868-3.028,11.069-8.666,11.922-19.682.244-3.151-1.238-5.28-2.807-7.534-2.809-4.036-5.993-8.611,0-19.911,1.825-3.442,5.675-5.259,11.137-5.259h.115a12.223,12.223,0,0,1,10.462,6.084,39.383,39.383,0,0,1,2.044,3.7c.054.134.117.308.192.517a17.337,17.337,0,0,0,4.232,6.855,1.4,1.4,0,0,1,.131,1.855l-2.082,2.662a.307.307,0,0,0-.062.244c.055.315.163.835.289,1.437.759,3.634,1.091,5.613.8,6.34-.86,2.179-5.406,2.785-7.322,2.944a.271.271,0,0,0-.217.136c-1.29,2.328-2.11,6.089-2.571,8.832-.972,5.786,2.446,8.175,4.283,9.459.782.546,1.254.876,1.217,1.4a.813.813,0,0,1-.513.67c-6.338,3.2-15.42,4.368-22.55,4.368m-10.169-2.452a2.051,2.051,0,0,0,.874.46c4.333,1.509,20.924,1.852,31.147-3.173-.165-.129-.394-.289-.593-.428-1.878-1.313-5.786-4.044-4.707-10.468a30.265,30.265,0,0,1,2.685-9.159,1.294,1.294,0,0,1,1.029-.661c2.645-.22,5.922-.954,6.453-2.3.224-.588-.531-4.209-.854-5.756-.127-.611-.237-1.139-.3-1.47a1.334,1.334,0,0,1,.264-1.051l2.082-2.662a.37.37,0,0,0-.045-.495,18.3,18.3,0,0,1-4.476-7.238c-.07-.194-.127-.355-.177-.479-.08-.2-.445-.925-1.98-3.57a11.2,11.2,0,0,0-9.58-5.574h-.107c-3.555,0-8.173.827-10.235,4.714-5.7,10.748-2.834,14.865-.063,18.846,1.6,2.3,3.259,4.683,2.987,8.2-.888,11.466-8.32,17.284-12.312,20.41a11.342,11.342,0,0,0-2.1,1.854" transform="translate(-94.736 -225.829)"/>
    <path id="Path_48510" data-name="Path 48510" d="M179.6,349.175l4.822-6.033a6.481,6.481,0,0,0-1.815-9.65,30.736,30.736,0,0,0-3.31-1.668c-12.383-5.33-26.571,3.467-26.585,16.945-.006,5.516,3.684,11.912,11.525,17.595,0,0,5.51-4.344,5.44-9.042,0,0-4-4.742,1.636-7.142a4.04,4.04,0,0,1,3.361.094,4.028,4.028,0,0,0,4.926-1.1" transform="translate(-100.533 -217.443)"/>
    <path id="Path_48511" data-name="Path 48511" d="M199.828,409.027c-1.6,0-3.648-.683-5.17-3.559a.512.512,0,0,1,.906-.479c2.4,4.538,6.17,2.65,6.329,2.567a.512.512,0,0,1,.476.908,6.069,6.069,0,0,1-2.542.563" transform="translate(-128.108 -266.477)"/>
    <path id="Path_48512" data-name="Path 48512" d="M66.288,323.73s-4.182-14.461-19.438-11.739c-9.524,1.7-17.842,8.1-22.412,18.538-3.381,7.725-3.241,14.563-3.985,22.661-.665,7.243-7.118,12.081-8.579,18.969-1.784,8.41,6.4,14.475,14.292,12.912,8.812-1.746,16.987-10.954,20.595-18.67,3.728-7.974,4.344-16.832,6.23-25.317.817-3.676,1.435-8.752,4.362-11.3,1.5-1.307,6.446-1.451,7.3-3.034l1.634-3.022" transform="translate(-7.655 -205.199)"/>
  </g>
</svg>
