<svg id="Group_20206" data-name="Group 20206" xmlns="http://www.w3.org/2000/svg" xmlns:xlink="http://www.w3.org/1999/xlink" width="169.07" height="131.946" viewBox="0 0 169.07 131.946">
  <defs>
    <clipPath id="clip-path">
      <rect id="Rectangle_10280" data-name="Rectangle 10280" width="169.07" height="131.946" transform="translate(0 0)" fill="none"/>
    </clipPath>
  </defs>
  <g id="Group_20205" data-name="Group 20205" transform="translate(0 0)" clip-path="url(#clip-path)">
    <path id="Path_48348" data-name="Path 48348" d="M1866.394,1364.346c-7.671,8.311-12.192,21.768-8,25.68,3.324,3.1,9.106-2.618,25.973-5.33,14.84-2.386,20.216.458,22.448-3.15,3.946-6.379-6.357-25.783-20.724-27.034-9.83-.856-17.231,7.164-19.7,9.833" transform="translate(-1746.413 -1273.948)" fill="#f4f4f4"/>
    <path id="Path_48349" data-name="Path 48349" d="M22.627,30.211c-28.234,7.65-32.834,58.774,2.252,86.576,15.629,12.384,43.037,20.3,60.595,11.282,18-9.247,9.792-28.151,31.126-44.27,19.484-14.721,36.628-6.733,47.247-20.455,9.989-12.907,4.643-33.274-7.559-47.695-23.961-28.319-52.92-11.9-69.649.323C72.47,26.328,76.6,33.76,64.87,36.676c-17.138,4.261-29.815-9.832-42.243-6.464" transform="translate(0 -0.004)" fill="#f2f3f5"/>
    <path id="Path_48350" data-name="Path 48350" d="M80.954,1245.887c-.9-2.473-1.795-5.508-.522-8.557,1.405-3.366,5.263-6.306,8.558-5.739,3.67.631,3.437,5.061,8.767,9.079.348.262,7.756,5.734,11.794,3.339,3.641-2.159.925-8.569,6.367-16.592,1.158-1.707,3.031-4,3.757-3.652.592.282.168,2.2-.835,7.513-1.434,7.6-1.187,6.969-1.461,7.931-1.938,6.788-7.653,8.158-6.888,11.479.359,1.559,1.54,1.341,3.235,3.965,1.348,2.087,2.6,5.325,2.192,7.722-.839,4.872-9.039,9-15.864,8.139-10.6-1.341-15.365-14.4-19.1-24.627" transform="translate(-75.055 -1150.998)" fill="#35d188"/>
    <path id="Path_48351" data-name="Path 48351" d="M1464.168,110.081c-5.021,4.9-4.442,12.4-.522,17.009,4.75,5.582,13.293,3.511,20.248,1.044,4.143-1.47,8.975-3.258,9.915-7.2.809-3.394-1.692-6.6-2.4-7.513-5.4-6.929-19.567-10.834-27.241-3.339" transform="translate(-1373.729 -99.715)" fill="#35d188"/>
    <path id="Path_48352" data-name="Path 48352" d="M1598.929,183.791c-.74,1.123,3.224,3.6,6.888,9.183.693,1.057.993,1.641,1.67,1.774,1.79.351,2.694-3.142,6.471-5.218,2.912-1.6,5.644-1.321,5.636-1.878-.006-.414-1.516-.6-4.071-1.148a81.805,81.805,0,0,1-10.437-2.609,8.885,8.885,0,0,0-5.636-.417c-.314.109-.437.185-.522.313" transform="translate(-1503.793 -172.277)" fill="#f4f4f4"/>
    <path id="Path_48353" data-name="Path 48353" d="M1671.828,923.7c-1.394,1.572-5.061,1.324-6.993-.417-1.8-1.62-1.622-4.11-1.67-7.93-.032-2.573-.193-15.508-1.983-15.861-1.353-.267-5.146,6.354-5.845,14.3-.569,6.478,1.233,10.3,1.727,13.655q.031.213.056.425a7.627,7.627,0,0,1-.843,4.7,9.772,9.772,0,0,1-.84,1.311q-.238.316-.5.615c-2.921,3.329-7.933,5.071-10.87,3.605-2.432-1.215-3.117-4.566-4.488-11.27-1.461-7.148-.3-7.568-1.67-10.122-3.323-6.19-10.638-4.624-12.733-9.913a6.6,6.6,0,0,1-.428-1.751q-.031-.283-.038-.565c-.119-4.072,3.041-7.869,1.84-9.252a1.014,1.014,0,0,0-.122-.12,1.185,1.185,0,0,0-.281-.174c-1.774-.8-6.259,1.8-9.321,4.453-5.966,5.158-6.479,10.431-9.706,10.539-2.209.074-4.674-2.3-5.219-4.591-1.89-7.938,18.379-18.752,22.231-20.766,1.541-.544,3.4-1.136,3.549-.835.2.417-3.332,1.6-3.549,3.652-.292,2.769,5.5,6.648,8.454,5.322.808-.363.75-.82,2.714-2.713,1.873-1.8,2.809-2.706,3.757-2.713,1.863-.015,3.3,2.816,4.488,5.217,2.681,5.423,2.411,8.8,3.653,8.974,1.319.186,3.083-3.432,4.071-6.679,1.714-5.635-.736-9.747,1.148-11.061,2.3-1.6,7.984,3.119,8.245,3.339,1.03.869,4.168,3.709,6.366,9.809,2.178,6.045.49,7.127,2.3,14.922,1.7,7.329,4.063,10.139,2.5,11.9" transform="translate(-1506.556 -830.897)" fill="#17bdba"/>
    <path id="Path_48354" data-name="Path 48354" d="M2018.28,1205.311q-.238.316-.5.615a2.288,2.288,0,0,0-.145-1.665c-.543-.953-1.884-1.021-3.437-1.1-1.758-.089-3.75-.19-5-1.688-1.169-1.407-.851-3.016-.481-4.88a10.706,10.706,0,0,0-.178-6.448,6.2,6.2,0,0,0-2.57-3.078,20.59,20.59,0,0,1-3.972-3.752,27.82,27.82,0,0,1-4.257-7.21c-.831-1.908-1.38-3.17-2.739-3.575-1.87-.557-4.357.768-7.413,3.944q-.031-.283-.037-.565c3.08-3.137,5.571-4.376,7.57-3.781,1.545.461,2.156,1.866,3,3.81a27.464,27.464,0,0,0,4.2,7.11,20.216,20.216,0,0,0,3.9,3.684,6.611,6.611,0,0,1,2.708,3.26,11.041,11.041,0,0,1,.2,6.682c-.362,1.831-.649,3.278.394,4.531,1.128,1.359,2.942,1.45,4.7,1.538,1.605.081,3.122.159,3.778,1.31a2.329,2.329,0,0,1,.283,1.257" transform="translate(-1869.399 -1102.328)" fill="#f9f9f9"/>
    <path id="Path_48355" data-name="Path 48355" d="M2042.7,1095.348c-.481-.053-1-.079-1.544-.107-2.065-.1-4.4-.222-5.862-1.976-1.366-1.644-.992-3.532-.559-5.718.436-2.206.932-4.706-.212-7.62-1.456-3.709-1.9-4.828-7.655-8.009-4.512-2.492-5.438-4.849-6.182-6.744a5.876,5.876,0,0,0-1.61-2.633,5.547,5.547,0,0,0-3.64-.614,13.214,13.214,0,0,0-3.306.781,1.049,1.049,0,0,0-.122-.12,1.2,1.2,0,0,0-.281-.174,13.829,13.829,0,0,1,3.671-.9,5.841,5.841,0,0,1,3.945.707,6.2,6.2,0,0,1,1.731,2.8c.719,1.833,1.616,4.111,6,6.531,5.891,3.252,6.382,4.5,7.841,8.222,1.189,3.027.68,5.591.233,7.853-.429,2.167-.768,3.879.472,5.37,1.34,1.613,3.583,1.726,5.561,1.826.5.025,1,.05,1.468.1.021.142.04.284.056.425" transform="translate(-1892.138 -998.379)" fill="#f9f9f9"/>
    <path id="Path_48356" data-name="Path 48356" d="M576.279,962.221a6.828,6.828,0,0,1-2.818,2.4l-.045.026-.462.271c-1.835,1.074-3.342,1.949-4.585,2.654l-.456.258a25.061,25.061,0,0,1-4.356,2.134,3.2,3.2,0,0,1-.382.089,1.118,1.118,0,0,1-.985-.214c-.4-.336-.156-.568-.626-1.67a6.119,6.119,0,0,0-.533-1c-.069-.1-.139-.2-.211-.3a17.5,17.5,0,0,0-2.44-2.21,3.054,3.054,0,0,1-.232-.251,2.3,2.3,0,0,1-.446-.837c-.655-2.261,2.228-4.881,2.714-5.322a8.59,8.59,0,0,1,.7-.574q.243-.179.489-.333a12.727,12.727,0,0,1,4.078-1.5l.38-.088.509-.114c1.169-.259,2.257-.5,3.257-.68l.37-.066a12.226,12.226,0,0,1,3.5-.2c.108.014.215.031.318.051a3.524,3.524,0,0,1,2.049,1.1,3.69,3.69,0,0,1,.533.787,4,4,0,0,1,.172.386,6.311,6.311,0,0,1-.5,5.192" transform="translate(-524.456 -897.906)" fill="#00434f"/>
    <path id="Path_48357" data-name="Path 48357" d="M570.181,1000.134l-3.227,7.317a3.1,3.1,0,0,1-.232-.251l2.969-6.733q.243-.179.489-.333" transform="translate(-533.032 -940.691)" fill="#f9f9f9"/>
    <path id="Path_48358" data-name="Path 48358" d="M616.913,973.412l-5.034,11.413c-.069-.1-.139-.2-.211-.3l4.865-11.028.38-.088" transform="translate(-575.307 -915.557)" fill="#f9f9f9"/>
    <path id="Path_48359" data-name="Path 48359" d="M658.319,958.945l-6.643,15.063a3.23,3.23,0,0,1-.382.089l6.656-15.086.369-.066" transform="translate(-612.577 -901.95)" fill="#f9f9f9"/>
    <path id="Path_48360" data-name="Path 48360" d="M737.112,955.66l-5.653,12.818-.456.258,5.79-13.127c.109.014.215.031.318.051" transform="translate(-687.547 -898.813)" fill="#f9f9f9"/>
    <path id="Path_48361" data-name="Path 48361" d="M819.625,988.634l-3.36,7.619-.462.271,3.65-8.276a4,4,0,0,1,.172.386" transform="translate(-767.306 -929.512)" fill="#f9f9f9"/>
    <path id="Path_48362" data-name="Path 48362" d="M118.573,244.753h0ZM201.7,195.376c-1.312-2.951-2.645-5.963-5.351-6.7a6.931,6.931,0,0,0-1.818-.209,25.2,25.2,0,0,0-2.736.208,23.6,23.6,0,0,1-2.512.194,4.8,4.8,0,0,1-1.744-.264,3.491,3.491,0,0,1-1.754-1.748,13.284,13.284,0,0,1-.825-2.154,9.569,9.569,0,0,0-.517-1.4,1.167,1.167,0,0,0-1.055-.754,1.389,1.389,0,0,0-.233.022,2.048,2.048,0,0,0-1.388-.921,15.148,15.148,0,0,0-2.267-.288,27.47,27.47,0,0,1-4.626-.68c-1.142-.285-2.373-.7-3.629-1.124a23.769,23.769,0,0,0-6.869-1.63,4.474,4.474,0,0,0-2.847.852c-.056.045-.111.095-.165.144h-.006a.76.76,0,0,0-.175.02c-.866.2-1.565,1.9-2.214,3.824-.182.537-.361,1.1-.54,1.66s-.358,1.119-.539,1.653c-.067.2-.134.391-.2.583-.924,2.68-1.649,4.809,1.544,6.86a12.042,12.042,0,0,0,.38,1.3c.324.955.505,1.47-.081,3.9a63.142,63.142,0,0,1-2.229,7.076c-.124,0-.249-.015-.372-.015a9.329,9.329,0,0,0-4.126.793,3.838,3.838,0,0,0-1.644,5.159,1.853,1.853,0,0,0,1.555,1.142,1.593,1.593,0,0,0,.853-.267c1.285-.811,2.682-3.622,3.845-6.645a15.35,15.35,0,0,1,3.935.62c2.2.677,3.667,1.823,3.232,3.234a4.554,4.554,0,0,1-1.237,1.744,48.645,48.645,0,0,1-7.628,5.28,63.13,63.13,0,0,0-6.093,4.03,48.163,48.163,0,0,0-2.733-6.281c-2.318-4.351-4.783-6.735-7.458-6.735a5.168,5.168,0,0,0-2.319.585,9.831,9.831,0,0,0-1.649,1.073,43.208,43.208,0,0,0-4.528,4.469,50.407,50.407,0,0,1-5.556,5.429,24.2,24.2,0,0,1-7.744,4,1.792,1.792,0,0,0-1.308-.747h-.023c-.615.013-1.1.527-1.307,1.464-1.146.265-2.266.47-3.339.641-1.053.169-2.059.3-3,.433-2.883.391-5.225.705-6.539,1.634a3.935,3.935,0,0,0-1.007,1.058,8.009,8.009,0,0,0-.577,1.069c-.244.516-.381.77-.552.77a.377.377,0,0,1-.225-.1,1.093,1.093,0,0,1-.08-.077l-.008-.007a5.865,5.865,0,0,1-.8-1.1,26.257,26.257,0,0,0-.282-2.66,10.649,10.649,0,0,0-1.636-4.16c-.255-.432-.525-.891-.808-1.433-.171-.328-.349-.688-.531-1.061-.2-.4-.405-.824-.622-1.24a7.714,7.714,0,0,0-2.461-3.133,10.752,10.752,0,0,0-3.067-3.411,8.81,8.81,0,0,0-4.894-1.525,6.889,6.889,0,0,0-5.177,2.212,5.179,5.179,0,0,0-1.694-2.825,6.223,6.223,0,0,0-3.827-1.64c-1.355,0-2.522.766-2.847,2.8-.456,2.851.747,8.335,2.018,11.4a7.651,7.651,0,0,0-.771,1.6c-1.112,3.286.08,7.918,2.234,10.776a8.714,8.714,0,0,0,6.438,3.686,3.8,3.8,0,0,0,.69-.059,2.839,2.839,0,0,0,.47-.133,15.914,15.914,0,0,1,.454,4.7,4.529,4.529,0,0,1-1.138,2.533c-.171.2-.341.367-.5.525-.157.115-.318.235-.495.366-.234.173-.485.361-.76.56-.3.215-.621.445-.964.687-3.016,2.135-7.564,5.344-8.1,9.373-.595,4.481,3.778,9.933,6.922,13.764a103.353,103.353,0,0,0,7.892,8.848c2.7,2.661,6.176,5.791,9.815,5.791.073,0,.145,0,.218,0a10.312,10.312,0,0,0,5.493-2.233,28.871,28.871,0,0,0,4.8-4.577,3.209,3.209,0,0,0,.464-.04c1.212-.211,2.025-1.179,1.862-3a38.325,38.325,0,0,0,3.795-7.095c.635-1.519,1.235-3.138,1.812-4.694a60.547,60.547,0,0,1,2.384-5.866,13.856,13.856,0,0,1,1.4-2.235,16.991,16.991,0,0,1,1.215-1.382c.279-.294.53-.558.739-.827a7.534,7.534,0,0,0,.772-1.307,6.785,6.785,0,0,1,1.053-1.652,17.285,17.285,0,0,1,3.423-2.55c-.552.567-1.192,1.124-1.782,1.635a14.74,14.74,0,0,0-1.526,1.437,1.1,1.1,0,0,0-.028,1.637,3.545,3.545,0,0,1,.269.423,4.088,4.088,0,0,1,.2.489,4.519,4.519,0,0,0,.218.534,1.263,1.263,0,0,0,1.24.744h.012a9.582,9.582,0,0,0,4.732-1.963c1.124-.978.833-1.885.179-2.8a20.9,20.9,0,0,0-2.688-2.793h0c.041-.051.084-.1.121-.154a3.543,3.543,0,0,0,.778-1.9.715.715,0,0,0-.746-.811,1.725,1.725,0,0,0-.548.1,4.281,4.281,0,0,0-.587.259,4.519,4.519,0,0,0,.956-2.174.586.586,0,0,0-.645-.651,1.833,1.833,0,0,0-.505.083,12.439,12.439,0,0,0-2.4,1.174c.637-.466,1.257-.931,1.744-1.312,1.721-1.35,1.818-1.705,1.667-2.25a1.043,1.043,0,0,0-1.167-.842c-.065,0-.136,0-.208.01.031-.034.064-.069.091-.1a.912.912,0,0,0,.2-.56c0-.832-1.213-1.539-2.476-1.539-.1,0-.208.013-.312.022.136-.078.274-.162.419-.247a8.151,8.151,0,0,1,3.416-1.324,8.626,8.626,0,0,1,.98-.051c.41,0,.842.023,1.29.065a47.124,47.124,0,0,1,5.7,1.049,36.479,36.479,0,0,0,4.053.774c.256.024.489.034.7.034a4.07,4.07,0,0,0,2.2-.554A15.713,15.713,0,0,0,144,239.7a5.816,5.816,0,0,0,3.19,1.066c2.563,0,4.608-2.208,4.965-6.141.332-3.669-.8-8.87-2.474-13.588a62.163,62.163,0,0,1,6.121-4.055,48.693,48.693,0,0,0,7.657-5.3,4.705,4.705,0,0,0,1.28-1.813c.485-1.578-1.164-2.768-3.341-3.438a15.492,15.492,0,0,0-3.922-.624,63.021,63.021,0,0,0,2.216-7.045c.593-2.46.413-3.006.077-3.995-.1-.3-.221-.656-.334-1.12,3.6,2.193,11.795,4.325,15.625,5.266a16.529,16.529,0,0,0,2.929.583c.429,0,.564-.165.622-.46.015-.074.026-.158.036-.245.015-.112.03-.234.057-.369a10.564,10.564,0,0,1,.561-1.685c.194-.487.429-1.046.7-1.681.352-.836.761-1.806,1.206-2.923,1.265-3.171,2.861-7.605,2.084-9.4h0a1.252,1.252,0,0,1,.134-.02,1.006,1.006,0,0,1,.91.667,9.192,9.192,0,0,1,.505,1.371,13.417,13.417,0,0,0,.837,2.18,3.652,3.652,0,0,0,1.838,1.824,4.964,4.964,0,0,0,1.8.274,23.706,23.706,0,0,0,2.531-.2,25.08,25.08,0,0,1,2.717-.206,6.774,6.774,0,0,1,1.775.2c2.616.717,3.92,3.636,5.245,6.614a.082.082,0,0,0,.109.041.081.081,0,0,0,.041-.107m-48.216,17.1a1.425,1.425,0,0,1-.765.242,1.691,1.691,0,0,1-1.41-1.054,3.674,3.674,0,0,1,1.574-4.938,9.179,9.179,0,0,1,4.051-.774c.1,0,.207.009.31.011-1.149,2.98-2.518,5.73-3.759,6.512m-37.173,10.382h.02a1.57,1.57,0,0,1,1.111.62c-.75.232-1.5.432-2.234.606.2-.823.638-1.216,1.1-1.225m-1.149,1.431c.793-.186,1.6-.4,2.408-.653a4.353,4.353,0,0,1,.542.918,16.174,16.174,0,0,1,.124,10.219,23.234,23.234,0,0,1-3.147-9.477,5.037,5.037,0,0,1,.073-1.007m-3.15,13.653a2.3,2.3,0,0,0-.173-.188c.109.021.211.042.329.061a9.234,9.234,0,0,0,1.407.114,4.818,4.818,0,0,0,4.658-2.671c.014-.027.025-.058.038-.087a5.24,5.24,0,0,0,.683.822,1.7,1.7,0,0,0,.967.5,12.979,12.979,0,0,0-3.392,2.819,13.726,13.726,0,0,0-2.156,2.963c-.286.163-.688.415-1.135.728.373-.75-.21-3.826-1.225-5.06m-1.086-.379.111.024.39.087a1.619,1.619,0,0,1,.439.388c1.094,1.327,1.553,4.592,1.163,4.914a.072.072,0,0,1-.047.017c-.572,0-2.287-3.222-2.817-4.694a3.788,3.788,0,0,1-.125-.412,1.985,1.985,0,0,1,.886-.324m-.917.123c0-.011,0-.026,0-.036,0-.154.055-.2.232-.2a1.567,1.567,0,0,1,.22.02l.014,0a2.92,2.92,0,0,0-.463.217m-10.315-7.871a.521.521,0,0,0,.289.113c.324,0,.515-.438.723-.88a4.864,4.864,0,0,1,1.523-2.054c1.266-.894,3.548-1.206,6.454-1.6.946-.128,1.954-.265,3.01-.434s2.149-.368,3.274-.626a5.289,5.289,0,0,0-.067.965,23.309,23.309,0,0,0,3.247,9.681c-.029.064-.054.133-.084.194a4.631,4.631,0,0,1-4.489,2.565,9.044,9.044,0,0,1-1.378-.112c-.261-.041-.494-.088-.713-.135a1.138,1.138,0,0,0-.145-.067,1.074,1.074,0,0,0-.357-.06c-.014,0-.028.005-.043.005-.167-.038-.322-.072-.453-.092a1.57,1.57,0,0,0-.248-.023c-.253,0-.421.107-.421.392a1.265,1.265,0,0,0,.02.139,13.457,13.457,0,0,0-1.3.991c-.958.793-1.924,1.584-2.817,1.584H105.7c-1.376-.022-2.643-1.944-3.645-3.48a15.115,15.115,0,0,0-.9-1.29c-.406-.485-.724-.623-.983-.623a.948.948,0,0,0-.329.068.409.409,0,0,1-.111.029c.009,0-.021.026-.053-.122a41.458,41.458,0,0,1,.016-5.13m5.618,13.066c.085,4.63-4.94,14.189-9.406,14.973a3.543,3.543,0,0,1-.617.054c-3.108,0-5.972-4.041-8.117-7.586-.4-.664-.774-1.3-1.119-1.9-.124-.213-.242-.416-.359-.616a13.992,13.992,0,0,0,4.156-.57,9.26,9.26,0,0,0,5.4-4.478,7.2,7.2,0,0,0,.407-1.191,2.553,2.553,0,0,1,2.129-2.192,10.061,10.061,0,0,1,2.862-.424c2.266,0,4.606.849,4.662,3.925m-5.8-13.222a42.54,42.54,0,0,0-.017,5.327c.034.156.1.27.238.27a.535.535,0,0,0,.172-.041.8.8,0,0,1,.267-.056c.181,0,.451.092.838.555a14.927,14.927,0,0,1,.885,1.272,16.317,16.317,0,0,0,1.923,2.563,5.959,5.959,0,0,0-3.167-.782,10.421,10.421,0,0,0-2.288.264,1.727,1.727,0,0,0,.46-.59c.5-1.04.344-3.044.2-4.751a7.048,7.048,0,0,0-.071-2.754c-.007-.674-.028-1.39-.066-2.1a5.332,5.332,0,0,0,.623.823m-3.557,3.065a1.366,1.366,0,0,0,.45.063,2.275,2.275,0,0,1,.86.152,1.057,1.057,0,0,1,.241.148,3.272,3.272,0,0,1,.7,1.029,1.765,1.765,0,0,0,.294.477.209.209,0,0,0,.033.023.163.163,0,0,0,.075.02.127.127,0,0,0,.07-.031,3.494,3.494,0,0,1-.326.946c-.089.143-.163.176-.217.176a.39.39,0,0,1-.241-.134,4.814,4.814,0,0,1-.552-.722,6.3,6.3,0,0,0-.8-1.014,3.158,3.158,0,0,0-1.344-.695c-.378-.114-.522-.174-.529-.3-.022-.387.922-1.4,1.818-2.252.734-.7,1.336-1.194,1.689-1.194a.237.237,0,0,1,.163.055c.137.116.213.434.266.954a.646.646,0,0,0-.345-.1c-.864,0-2.15,1.423-2.4,1.968-.088.193-.076.353.094.431m2.712,1.339a1.536,1.536,0,0,1-.072.36,2.409,2.409,0,0,1-.224-.392,3.449,3.449,0,0,0-.744-1.09,1.293,1.293,0,0,0-.283-.173,2.453,2.453,0,0,0-.931-.169,1.257,1.257,0,0,1-.379-.046c-.026-.011-.072-.024,0-.18.24-.53,1.479-1.856,2.225-1.856a.436.436,0,0,1,.347.151c.009.011.017.028.026.041s0,.029,0,.046c.019.244.034.518.051.819.019.319.04.675.067,1.054-.018.617-.048,1.12-.087,1.437M94.82,217.978c.215.412.422.832.619,1.234.184.374.361.736.534,1.066.285.546.557,1.009.812,1.441a10.449,10.449,0,0,1,1.613,4.1c.114.668.2,1.452.256,2.268a60.43,60.43,0,0,1-3.086-6.582c-.169-.414-.337-.835-.5-1.253a41.419,41.419,0,0,0-2.308-5.1,8.678,8.678,0,0,1,2.064,2.829m.068,2.339q.25.629.505,1.255A56.3,56.3,0,0,0,98.68,228.5c.031.523.053,1.051.068,1.569a1.256,1.256,0,0,0-.289-.745.425.425,0,0,0-.285-.1c-.448,0-1.115.576-1.819,1.246-.851.809-1.9,1.9-1.877,2.4.017.293.359.381.664.473a2.97,2.97,0,0,1,1.269.652,6.159,6.159,0,0,1,.771.983,4.869,4.869,0,0,0,.578.753.57.57,0,0,0,.371.185.46.46,0,0,0,.378-.267,4.208,4.208,0,0,0,.387-1.19,9.071,9.071,0,0,1-.243,3.9c-.394.819-1.236.978-2.147,1.021-.17.007-.34.011-.509.016s-.327.007-.484.016c-.219.009-.429.027-.637.045-.321.026-.637.052-.984.052a7.807,7.807,0,0,1-2.435-.422,38.81,38.81,0,0,1-7.151-3.378c-.535-.329-.975-.631-1.343-.9a2.9,2.9,0,0,0-.483-.536,5.4,5.4,0,0,0-.8-.551c-.077-.075-.146-.145-.2-.2s-.105-.107-.146-.146a.543.543,0,0,0-.125-.1.127.127,0,0,0-.059-.015.106.106,0,0,0-.03,0,.119.119,0,0,0-.086.105c-.361-.181-.741-.356-1.12-.53-1.344-.617-2.648-1.22-3.1-2.041a1.529,1.529,0,0,1-.193-.754,2.386,2.386,0,0,1,2.4-2.211,2.6,2.6,0,0,1,.8.127,4.664,4.664,0,0,1,1.213.637,19.516,19.516,0,0,1,3.232,3.183,6.289,6.289,0,0,0,.658.716.172.172,0,0,0,.034.021.135.135,0,0,0,.061.016.1.1,0,0,0,.029,0,.119.119,0,0,0,.085-.119h0a.4.4,0,0,0-.015-.091,10.873,10.873,0,0,0-.5-1.147,24.082,24.082,0,0,1-1.451-3.582,5.32,5.32,0,0,1,.095-3.281c.062-.193.129-.38.2-.567s.13-.365.191-.551c.077-.237.145-.475.214-.719a9.952,9.952,0,0,1,1.771-3.7c1.36-1.816,3.826-4.145,5.725-4.145a2.083,2.083,0,0,1,.363.031,2.181,2.181,0,0,1,.69.265,38.224,38.224,0,0,1,2.489,5.4m-16.579-4.383a11.3,11.3,0,0,1-1.33,1.532,16.117,16.117,0,0,1,1.9-4.5c.121-.177.254-.334.384-.494a5.1,5.1,0,0,1-.957,3.462m-7.1-5.538c.312-1.947,1.4-2.639,2.66-2.639a6.039,6.039,0,0,1,3.7,1.592,4.95,4.95,0,0,1,1.657,2.868,7.369,7.369,0,0,0-.5.641,17.04,17.04,0,0,0-2.02,4.881q-.329.321-.674.647a19,19,0,0,0-2.871,3.194c-1.215-3.016-2.408-8.354-1.955-11.184m5.4,7.7c-.186.686-.354,1.361-.509,1.99-.543,2.2-.939,3.711-1.462,3.711a.294.294,0,0,1-.116-.025c-.365-.15-.816-.9-1.271-1.983a18.232,18.232,0,0,1,2.915-3.267c.15-.143.3-.284.444-.426m4.986,19.483a3.6,3.6,0,0,1-.655.056,8.528,8.528,0,0,1-6.286-3.611c-2.127-2.823-3.292-7.39-2.205-10.6a7.331,7.331,0,0,1,.68-1.448,4.019,4.019,0,0,0,1.32,1.971.491.491,0,0,0,.189.04c.717,0,1.138-1.8,1.646-3.854.18-.727.376-1.509.595-2.3a12.69,12.69,0,0,0,1.589-1.8,5.229,5.229,0,0,0,.96-3.773,6.7,6.7,0,0,1,5.14-2.258,8.615,8.615,0,0,1,4.786,1.491,10.3,10.3,0,0,1,2.855,3.1,2.257,2.257,0,0,0-.464-.137,2.359,2.359,0,0,0-.4-.033c-2,0-4.521,2.413-5.876,4.22a10.153,10.153,0,0,0-1.8,3.766c-.069.245-.136.48-.212.713-.06.182-.123.362-.189.546s-.136.376-.2.572a5.509,5.509,0,0,0-.1,3.388,24.4,24.4,0,0,0,1.462,3.614c.188.4.338.72.423.931-.112-.121-.262-.3-.459-.525a19.6,19.6,0,0,0-3.268-3.214,4.862,4.862,0,0,0-1.263-.663,2.81,2.81,0,0,0-.853-.136,2.574,2.574,0,0,0-2.588,2.4,1.728,1.728,0,0,0,.216.846c.494.889,1.874,1.517,3.19,2.121.425.2.842.388,1.231.586.014.054.025.108.044.176.032.119.072.263.123.44.078.279.178.633.3,1.083.16.592.352,1.341.529,2.152a2.568,2.568,0,0,1-.463.135m.117-2.335c-.121-.45-.221-.807-.3-1.085-.051-.178-.091-.32-.122-.438l0-.012c.1.051.188.1.278.153l.128.125a12.546,12.546,0,0,0,1.141.95,1.573,1.573,0,0,1,0,1.987,1.852,1.852,0,0,1-.6.443c-.176-.8-.366-1.543-.523-2.123m1.028,7.109a16.157,16.157,0,0,0-.464-4.8,2.057,2.057,0,0,0,.7-.509,1.687,1.687,0,0,0,.221-1.845c.3.209.628.43,1.011.665a39.013,39.013,0,0,0,7.194,3.4,7.99,7.99,0,0,0,2.491.43c.356,0,.679-.027,1-.053.208-.018.414-.034.63-.045.156-.007.315-.01.479-.015s.341-.008.514-.017c.119-.005.239-.014.358-.024a2.6,2.6,0,0,0-1.394,1.978,7.124,7.124,0,0,1-.4,1.161,9.075,9.075,0,0,1-5.287,4.377,13.911,13.911,0,0,1-4.148.562h-.062c-.119-.2-.234-.4-.343-.577-1.074-1.776-1.732-2.547-2.511-2.547a2.2,2.2,0,0,0-1.106.409,4.681,4.681,0,0,0,1.113-2.55m-2.391,4.057a1.055,1.055,0,0,1,.264-.443c.1-.117.229-.241.372-.383l.053-.052.053-.04a3.2,3.2,0,0,1,1.643-.809c.651,0,1.255.645,2.349,2.456.091.149.187.313.283.476a19.47,19.47,0,0,1-3.43-.345c-1.346-.271-1.646-.569-1.587-.86m15.088,38.174c-.071,0-.141,0-.212,0-3.549,0-6.973-3.063-9.682-5.737a103.284,103.284,0,0,1-7.879-8.833c-3.167-3.86-7.462-9.238-6.88-13.619.522-3.93,4.977-7.09,8.021-9.243.342-.242.668-.473.965-.689.186-.135.357-.261.522-.383a.872.872,0,0,0-.127.289c-.1.508.467.826,1.735,1.083a19.724,19.724,0,0,0,3.581.35l.415.712c.344.592.718,1.234,1.12,1.9,2.123,3.509,5.042,7.678,8.279,7.678a3.712,3.712,0,0,0,.649-.057c4.6-.808,9.648-10.5,9.562-15.162a4.014,4.014,0,0,0-.955-2.724,2.171,2.171,0,0,0,1.148.4h.027c.978,0,2-.855,2.937-1.628a14.519,14.519,0,0,1,1.214-.935c.028.111.065.232.116.373.5,1.385,2.253,4.819,2.994,4.819,0,0,.007,0,.011,0a9.554,9.554,0,0,0-2.392,2.317,3.186,3.186,0,0,0-.434,1.138,7.925,7.925,0,0,0-.053,1.662,12.979,12.979,0,0,1-.156,2.936,33.308,33.308,0,0,1-4.356,10.19c-.1.154-.194.308-.291.459-.987,1.526-2.012,2.857-2.946,4.046a1.867,1.867,0,0,0-.368-.041c-1.859,0-3.222,2.871-4.169,4.848l0,.006a9.4,9.4,0,0,1-.792,1.453,1.121,1.121,0,0,1-.895.558c-.674,0-1.674-.73-3.391-2.8-1-1.2-2.224-2.845-3.57-4.645-3.442-4.6-7.667-10.255-10.707-12.135a4.437,4.437,0,0,0-2.31-.765h-.085c-2.664.076-3.824,3.715-3.741,6.624.106,3.724,2.23,6.457,4.332,9.162l.012.016a.1.1,0,0,0,.075.037.09.09,0,0,0,.057-.02.094.094,0,0,0,.017-.133l-.013-.016a31.353,31.353,0,0,1-2.9-4.173,10.676,10.676,0,0,1-1.4-4.878c-.085-2.931,1.09-6.359,3.557-6.43h.079a4.26,4.26,0,0,1,2.211.737c3,1.855,7.2,7.466,10.655,12.087,1.345,1.8,2.577,3.446,3.577,4.653,1.7,2.054,2.756,2.873,3.536,2.873.857,0,1.315-.986,1.857-2.118l0-.006a21.671,21.671,0,0,1,1.725-3.137,3.1,3.1,0,0,1,2.273-1.6,1.631,1.631,0,0,1,.235.022l-.248.317c-.79,1-1.494,1.894-2.009,2.691-1.25,1.933-1.412,3.334-.374,4.946a9.582,9.582,0,0,0,5.173,3.821,4.133,4.133,0,0,0,.709.091c-2.767,3.219-6.482,6.5-10.049,6.626m10.2-6.806a3.9,3.9,0,0,1-.823-.1,9.393,9.393,0,0,1-5.055-3.74c-.986-1.53-.851-2.848.374-4.74.51-.789,1.207-1.673,2-2.678l.306-.389a1.633,1.633,0,0,1,.163.045c2.056.751,4.719,5.448,5.213,8.274.026.15.032.282.047.419a36.173,36.173,0,0,1-2.223,2.9m.524-.042c-.084.015-.176.016-.264.022.733-.87,1.391-1.732,2-2.6.077,1.6-.687,2.393-1.732,2.575m21.851-28.169c.627.877.866,1.661-.15,2.545a9.413,9.413,0,0,1-4.608,1.916h-.011a1.077,1.077,0,0,1-1.073-.641,4.2,4.2,0,0,1-.208-.512,4.4,4.4,0,0,0-.209-.511,3.494,3.494,0,0,0-.284-.447.926.926,0,0,1,.021-1.408,14.529,14.529,0,0,1,1.5-1.414,22.131,22.131,0,0,0,2.249-2.147l.159-.1a20.3,20.3,0,0,1,2.61,2.716m-6.256-13.379c1.252,0,2.287.7,2.287,1.35a.721.721,0,0,1-.165.446,1.528,1.528,0,0,1-.261.258,6.054,6.054,0,0,0-.72.172,17.509,17.509,0,0,0-2.16.855c-.127.013-.253.023-.366.023-.079,0-.147-.005-.215-.012a8.76,8.76,0,0,0,1.267-2.162.4.4,0,0,0,.006-.069.239.239,0,0,0-.015-.086.163.163,0,0,0-.118-.1.206.206,0,0,0-.05-.006.745.745,0,0,0-.359.15c-.575.378-1.764,1.627-1.394,2.188a.588.588,0,0,0,.335.22q-.174.238-.357.481a17.246,17.246,0,0,0-3.306,2.14,2.077,2.077,0,0,0-.815,1.24.331.331,0,0,0,.366.346,2.521,2.521,0,0,0,1.379-.751,20.585,20.585,0,0,0,2.5-2.827c.4-.207.8-.4,1.187-.585a6.556,6.556,0,0,0,2.907-1.034,2.869,2.869,0,0,1,.457-.042.859.859,0,0,1,.985.7c.114.408.139.686-1.6,2.051-1.592,1.248-4.619,3.379-4.929,3.6l-.025.018h0l0,0-.015.015a.093.093,0,0,0-.011.1c.016.033.049.054.136.039l0,0h0l.007-.005,0,0,.007,0c.159-.112,1.172-.817,2.345-1.554a16.763,16.763,0,0,1,3.3-1.733,1.644,1.644,0,0,1,.453-.076c.329,0,.456.167.456.462a4.586,4.586,0,0,1-1.013,2.2c-.053.072-.113.14-.168.211a32.262,32.262,0,0,0-4.443,3.472,3.045,3.045,0,0,0-.551.584.144.144,0,0,0-.013.055.107.107,0,0,0,.111.108.116.116,0,0,0,.028,0,7.694,7.694,0,0,0,1.331-.837,17.5,17.5,0,0,0,3.665-3.237,5.257,5.257,0,0,1,.933-.455,1.528,1.528,0,0,1,.487-.094c.377,0,.557.226.557.622a3.367,3.367,0,0,1-.741,1.786c-.1.135-.209.27-.325.406a20.248,20.248,0,0,0-4.032,2.938,6.972,6.972,0,0,0-1.082,1.694,7.37,7.37,0,0,1-.752,1.275c-.2.26-.447.518-.728.813a17.524,17.524,0,0,0-1.226,1.4,14.062,14.062,0,0,0-1.421,2.265,60.548,60.548,0,0,0-2.393,5.885c-.577,1.557-1.175,3.171-1.809,4.686a38.32,38.32,0,0,1-3.653,6.88c-.01-.073-.01-.138-.024-.214-.5-2.844-3.179-7.632-5.334-8.419-.034-.013-.068-.018-.1-.028.922-1.174,1.933-2.491,2.907-4,.1-.151.2-.306.293-.461a33.468,33.468,0,0,0,4.382-10.257,13.143,13.143,0,0,0,.158-2.976,7.842,7.842,0,0,1,.051-1.623,2.99,2.99,0,0,1,.409-1.073,11.835,11.835,0,0,1,3.449-3.005c-.023.046-.047.092-.07.139a10.934,10.934,0,0,0-1.856,2.245c-.838,1.449-1.067,3.281-.732,3.516l.014.008a.177.177,0,0,0,.087.023.17.17,0,0,0,.032,0,.247.247,0,0,0,.1-.048,11.335,11.335,0,0,0,1.286-2.753c.276-.7.565-1.432.843-2.067.126-.289.252-.553.377-.807.1-.093.186-.178.264-.253a2.994,2.994,0,0,0,.351-.359.131.131,0,0,0,.019-.064.1.1,0,0,0-.106-.1l-.028,0h0a.311.311,0,0,0-.056.017l-.058.027a13.827,13.827,0,0,1,1.988-2.672,11.391,11.391,0,0,1,3.823-2.993,2.514,2.514,0,0,0,.337-.113,3.345,3.345,0,0,1,.483-.107,3.187,3.187,0,0,1,.444-.031m1.379,2.357a6.829,6.829,0,0,1-1.649.6,14.581,14.581,0,0,1,1.465-.548c.066-.02.123-.033.184-.05m-3.105.909a2.143,2.143,0,0,0,.267.022c-.147.071-.294.144-.443.219.061-.081.118-.161.175-.241m-.38-.366c-.247-.375.7-1.5,1.34-1.926a.624.624,0,0,1,.249-.117v0a.286.286,0,0,1,0,.037,9.172,9.172,0,0,1-1.289,2.162.483.483,0,0,1-.3-.16m-.458,1.169a19.043,19.043,0,0,1-2.221,2.469,2.381,2.381,0,0,1-1.256.705c-.13,0-.177-.056-.177-.158,0-.209.211-.606.753-1.1a16.036,16.036,0,0,1,2.9-1.917m4.493,4.61a18.847,18.847,0,0,1-3.251,2.753c-.373.261-.685.473-.909.615.067-.066.144-.14.24-.23a35.322,35.322,0,0,1,3.92-3.138m-9.783-1.64c-.051.113-.1.22-.156.339-.28.64-.57,1.375-.845,2.073a12.1,12.1,0,0,1-1.225,2.672.042.042,0,0,1-.017.009,5.011,5.011,0,0,1,.791-3.26,9.628,9.628,0,0,1,1.452-1.834m.839-1.067a.055.055,0,0,1,.007-.031l.081.047h-.08c0-.006-.008-.007-.008-.016m23.269-6.028c-.209,0-.437-.01-.687-.033a35.988,35.988,0,0,1-4.029-.771,47.341,47.341,0,0,0-5.729-1.052c-.453-.043-.89-.066-1.308-.066a8.767,8.767,0,0,0-1,.053,8.338,8.338,0,0,0-3.492,1.348,8.183,8.183,0,0,1-.995.536q-.169.049-.338.113a1.546,1.546,0,0,1-.2.046,1.411,1.411,0,0,1-.148.008,1.443,1.443,0,0,1-1-.464,5.3,5.3,0,0,1-.722-.892,16.25,16.25,0,0,0-.076-10.485,4.643,4.643,0,0,0-.523-.9,24.369,24.369,0,0,0,7.738-4.008,50.557,50.557,0,0,0,5.579-5.449,42.88,42.88,0,0,1,4.506-4.448,9.553,9.553,0,0,1,1.617-1.053,4.968,4.968,0,0,1,2.235-.566c2.556,0,4.974,2.284,7.291,6.635A48.19,48.19,0,0,1,149.471,221c-.264.218-.511.433-.724.641-.171.168-.321.331-.458.492a51.488,51.488,0,0,0-3.677-8.333c-2.092-3.635-3.818-4.614-5.273-4.614a3.44,3.44,0,0,0-.638.062c-1.56.292-2.71,1.51-3.634,3.975s-1.632,6.22-.109,11.6a37.84,37.84,0,0,0,5.143,10.794,3.878,3.878,0,0,1-2.09.52M149.3,227.1a5.752,5.752,0,0,1-1.564-1.738,2.566,2.566,0,0,1,.473-2.865,48.011,48.011,0,0,1,1.391,4.86c-.091-.08-.191-.165-.3-.256m.366.545c.02.093.039.184.057.277a2.16,2.16,0,0,1-.908.12,26.262,26.262,0,0,1-3.083-.274,2.27,2.27,0,0,0,.93-.787,5.125,5.125,0,0,0,.66-2.635,2.464,2.464,0,0,0,.266,1.088,5.92,5.92,0,0,0,1.607,1.793,5.737,5.737,0,0,1,.471.418M135.14,224.77c-1.511-5.336-.808-9.044.1-11.481s2.028-3.582,3.492-3.856a3.257,3.257,0,0,1,.6-.058c1.35,0,3.026.9,5.11,4.519a51.677,51.677,0,0,1,3.7,8.412,3.364,3.364,0,0,0-.82,1.912c.033-2.052-.582-4.406-1.486-5.306a1.468,1.468,0,0,0-1.068-.461c-1.3,0-2.9,1.624-4.451,3.193a.082.082,0,0,0,.117.115c1.581-1.6,3.119-3.145,4.335-3.145a1.3,1.3,0,0,1,.952.414c1.336,1.33,2.028,6.044.8,7.858a2.167,2.167,0,0,1-1.117.835c-.408-.056-.809-.116-1.186-.173-.57-.087-1.083-.169-1.525-.24-.83-.135-1.415-.229-1.635-.229a.36.36,0,0,0-.092.009.107.107,0,0,0-.072.058.1.1,0,0,0,.027.112,1.039,1.039,0,0,0,.289.154,8.443,8.443,0,0,0,3,.656,3.834,3.834,0,0,0,1.209-.182,28.274,28.274,0,0,0,3.391.314,2.616,2.616,0,0,0,.94-.119,23.968,23.968,0,0,1,.41,2.757c.392,4.884-1.565,7.187-3.491,7.341-.064.005-.127.008-.191.008h-.021c-1.367,0-2.731-1.051-3.815-1.891a7.477,7.477,0,0,0-1.3-.887,1.068,1.068,0,0,0-.432-.1,1.362,1.362,0,0,0-.653.214,37.631,37.631,0,0,1-5.129-10.755m9.872,3.058a4.054,4.054,0,0,1-.794.076,8.3,8.3,0,0,1-2.935-.643l-.013-.005c.282.03.762.107,1.4.211.441.071.956.154,1.527.241.259.04.532.079.81.12m6.957,6.783c-.352,3.885-2.352,5.97-4.776,5.97a5.633,5.633,0,0,1-3.085-1.035,15.472,15.472,0,0,1-3.728-3.866,1.154,1.154,0,0,1,.542-.179.875.875,0,0,1,.356.083,7.386,7.386,0,0,1,1.257.863c1.067.828,2.485,1.93,3.931,1.93h.022c.069,0,.137,0,.206-.009,2.091-.167,4.058-2.631,3.663-7.545a24.1,24.1,0,0,0-.432-2.876.208.208,0,0,0,.032-.111.291.291,0,0,0-.033-.129.678.678,0,0,0-.069-.1,47.593,47.593,0,0,0-1.505-5.295,7.13,7.13,0,0,1,.512-.554c.2-.193.424-.392.667-.595,1.655,4.684,2.769,9.829,2.441,13.446m9.664-55.706a4.306,4.306,0,0,1,2.746-.816,23.635,23.635,0,0,1,6.816,1.622c1.253.423,2.492.84,3.641,1.127a27.7,27.7,0,0,0,4.652.685,15.13,15.13,0,0,1,2.241.284,1.921,1.921,0,0,1,1.261.8,7.028,7.028,0,0,0-1.564.748l-.164.1-.173.1-.5.287a34.292,34.292,0,0,0-5.049,3.343c-.411.343-.815.709-1.21,1.065-1.341,1.211-2.561,2.307-3.72,2.307a1.728,1.728,0,0,1-.284-.023c-1.593-.261-3.127-2.79-4.689-5.711-.152-.283-.3-.571-.455-.856-1.233-2.326-2.487-4.721-3.6-5.012.018-.015.033-.031.051-.045m-3.784,7.808c.066-.191.134-.386.2-.584.181-.535.36-1.1.539-1.656s.358-1.121.54-1.657c.648-1.922,1.3-3.456,2.031-3.7-2.6,2.682-2.581,9.941-2.131,13.222.05.361.105.672.163.95-2.923-1.95-2.25-3.941-1.341-6.578m23.172,5.36c-.445,1.115-.853,2.084-1.205,2.921-.267.634-.5,1.194-.7,1.683a10.728,10.728,0,0,0-.569,1.714c-.028.141-.045.268-.059.379-.011.09-.022.167-.035.235-.044.22-.112.329-.461.329a16.57,16.57,0,0,1-2.89-.578c-3.851-.945-12.056-3.081-15.614-5.267-.038-.023-.068-.046-.1-.069-.069-.313-.136-.672-.194-1.1-.462-3.367-.45-10.746,2.229-13.228,1.027.087,2.289,2.437,3.618,4.946.151.285.3.575.455.857,1.543,2.882,3.115,5.518,4.807,5.795a1.843,1.843,0,0,0,.311.025c1.237,0,2.511-1.158,3.829-2.349.395-.357.8-.72,1.2-1.061a34.074,34.074,0,0,1,5.026-3.327l.5-.288.173-.1.165-.095a6.341,6.341,0,0,1,1.575-.738c.006.015.017.024.023.039.742,1.72-.806,6.068-2.085,9.279" transform="translate(-66.344 -167.35)" fill="#18224c"/>
    <path id="Path_48363" data-name="Path 48363" d="M119.484,853.849c-.186.686-.354,1.361-.509,1.99-.543,2.2-.939,3.711-1.462,3.711a.294.294,0,0,1-.116-.025c-.365-.15-.816-.9-1.271-1.983a18.231,18.231,0,0,1,2.915-3.267c.15-.143.3-.284.444-.426" transform="translate(-109.222 -803.101)" fill="#18224c"/>
    <path id="Path_48364" data-name="Path 48364" d="M180.221,762.644a11.3,11.3,0,0,1-1.33,1.532,16.115,16.115,0,0,1,1.9-4.5c.121-.177.254-.334.384-.494a5.094,5.094,0,0,1-.957,3.462" transform="translate(-168.257 -714.06)" fill="#18224c"/>
    <path id="Path_48365" data-name="Path 48365" d="M88.249,684.32a7.389,7.389,0,0,0-.5.641,17.041,17.041,0,0,0-2.02,4.882q-.329.321-.674.647a18.986,18.986,0,0,0-2.871,3.194c-1.215-3.016-2.408-8.354-1.955-11.184.312-1.947,1.4-2.639,2.66-2.639a6.039,6.039,0,0,1,3.7,1.592,4.949,4.949,0,0,1,1.657,2.868" transform="translate(-75.367 -639.453)" fill="#18224c"/>
    <path id="Path_48366" data-name="Path 48366" d="M115.84,722.355a2.254,2.254,0,0,0-.464-.137,2.356,2.356,0,0,0-.4-.033c-2,0-4.521,2.413-5.876,4.22a10.154,10.154,0,0,0-1.8,3.766c-.069.245-.136.48-.212.713-.059.182-.123.362-.189.546s-.136.376-.2.572a5.509,5.509,0,0,0-.1,3.388A24.4,24.4,0,0,0,108.067,739c.188.4.338.72.423.931-.112-.121-.262-.3-.459-.525a19.6,19.6,0,0,0-3.268-3.214,4.859,4.859,0,0,0-1.263-.663,2.807,2.807,0,0,0-.853-.136,2.574,2.574,0,0,0-2.588,2.4,1.728,1.728,0,0,0,.216.846c.494.889,1.874,1.517,3.19,2.121.425.2.842.388,1.23.586.014.054.025.108.044.176.032.119.072.263.123.44.078.279.179.633.3,1.083.16.592.352,1.341.529,2.152a2.569,2.569,0,0,1-.463.135,3.59,3.59,0,0,1-.655.056,8.528,8.528,0,0,1-6.286-3.611c-2.127-2.823-3.292-7.39-2.205-10.6a7.326,7.326,0,0,1,.68-1.448,4.019,4.019,0,0,0,1.32,1.971.49.49,0,0,0,.189.04c.717,0,1.138-1.8,1.646-3.854.18-.727.376-1.509.595-2.3a12.686,12.686,0,0,0,1.589-1.8,5.229,5.229,0,0,0,.96-3.773,6.694,6.694,0,0,1,5.14-2.258,8.614,8.614,0,0,1,4.786,1.491,10.3,10.3,0,0,1,2.854,3.1" transform="translate(-89.979 -675.106)" fill="#18224c"/>
    <path id="Path_48367" data-name="Path 48367" d="M1649.678,464.744s0,0,0,0h0a.024.024,0,0,0,0,.007.006.006,0,0,0,0,0m40.247,55.623c-.182-.819-.435-1.7-.7-2.6a24.759,24.759,0,0,1-1.171-5.636c-.011-.292-.008-.581,0-.866.02,0,.043,0,.062,0a2.02,2.02,0,0,1,.235.013,1.2,1.2,0,0,1,.687.3.5.5,0,0,0,.038.031.106.106,0,0,0,.059.021h.015a.086.086,0,0,0,.075-.093.165.165,0,0,0,0-.02,0,0,0,0,0,0,0,.756.756,0,0,0-.031-.1,17.569,17.569,0,0,1-.706-3.159c-.016-.1-.032-.209-.048-.314a2.733,2.733,0,0,0-.127-1.857.7.7,0,0,0-.148-.136c-.3-2.3-.617-5.254-.949-8.3-.42-3.863-.855-7.873-1.274-10.878-.876-6.279-1.682-8.2-3.974-10.732-2.276-2.521-6.033-5.676-8.446-6.514a4.914,4.914,0,0,0-1.645-.282c-.29,0-.543.024-.756.044-.158.016-.292.028-.406.028l-.075,0c-.271-.018-.419-.124-.372-.863.005-.075.013-.16.022-.246a59.567,59.567,0,0,0,1.682-8.025c.124-.809.242-1.64.337-2.474.006-.033.013-.068.019-.1.677-3.94.767-6.72.285-8.775a5.847,5.847,0,0,0-3.3-4.248,7.773,7.773,0,0,0-3.253-.8,3.351,3.351,0,0,0-2.29.747,5.5,5.5,0,0,0-1.268,2.356,8.735,8.735,0,0,0-1.271.509,7.587,7.587,0,0,0-.856.51,3.332,3.332,0,0,0-1.9-.757,2.2,2.2,0,0,0-.606.087c-1.884.54-4.293,3.807-5.125,6.7-.059.2-.108.406-.151.606a.991.991,0,0,0-.818-.568.409.409,0,0,0-.418.263.321.321,0,0,0-.012.057.47.47,0,0,0,0,.1.8.8,0,0,0-.542-.22.721.721,0,0,0-.6.3.669.669,0,0,0-.073.156,2.12,2.12,0,0,0-.015.811,3.347,3.347,0,0,1-.076,1.412,5.363,5.363,0,0,1-.478.975,1.5,1.5,0,0,0-1.313-1.169.95.95,0,0,0-.836.532,6.747,6.747,0,0,0-.461,2.645c-.024.5-.039,1.041-.054,1.611-.016.633-.035,1.3-.068,1.987a16.219,16.219,0,0,1-1.447,6.71,2.339,2.339,0,0,0-.823-.116,7.969,7.969,0,0,0-1.93.272,8.155,8.155,0,0,0-2.162.892,7.28,7.28,0,0,0-.766.54,19.249,19.249,0,0,0-2.383,2.464c-2.464,1.377-3.692,2.91-3.594,3.68-.133.113-.266.225-.406.338a60.017,60.017,0,0,1-5.143,3.516,36.913,36.913,0,0,0-6.566,4.818c-2.614,2.778-2.147,5.527-.97,7.406a4.769,4.769,0,0,0,5.275,2.411c2.193-.48,4.684-2.446,7.887-5.411,1.68-1.555,3.562-3.39,5.083-4.874,1.2-1.173,2.174-2.122,2.647-2.541-.073.105-.159.229-.265.378a9.006,9.006,0,0,0-1.471,2.578.612.612,0,0,0,.113.485,1.234,1.234,0,0,0,.572.331.744.744,0,0,1,.3.145c.026.032.046.129-.309.437-.005-.012-.009-.028-.015-.039-.12-.262-.274-.413-.48-.413-.385,0-.855.576-1.426,1.257-.3.366-.657.78-1.05,1.2-2.29,1.421-5.518,3.314-8.758,5.212a.087.087,0,0,0-.033.115.089.089,0,0,0,.114.04c3.025-1.361,6.069-2.729,8.078-4.533.256-.229.488-.464.711-.7,1.266-.786,2.248-1.43,2.78-1.847a11.828,11.828,0,0,1,.357,1.82c-.262,2.982-.035,7.682,2.45,10.805a10.67,10.67,0,0,0,2.064,1.943,31.884,31.884,0,0,0,8.1,3.763,20.662,20.662,0,0,1,4.663,2.019,3.372,3.372,0,0,1,.452.392c1.806,1.892-.862,4.468-3.7,7.175a.087.087,0,0,0,.12.126c2.747-2.62,5.663-5.371,3.706-7.421a3.563,3.563,0,0,0-.476-.413,20.813,20.813,0,0,0-4.708-2.042,31.739,31.739,0,0,1-8.06-3.739,10.485,10.485,0,0,1-2.03-1.912c-2.22-2.789-2.609-6.869-2.473-9.8.029.243.056.482.082.71a8.2,8.2,0,0,0,.26,1.655l.01.013h0a.1.1,0,0,0,.083.043.118.118,0,0,0,.1-.056.315.315,0,0,0,.03-.072,28.332,28.332,0,0,0,.27-4.268,4.661,4.661,0,0,0-.169-1.737.137.137,0,0,0-.1-.046.14.14,0,0,0-.083.03.332.332,0,0,0-.085.114,1.261,1.261,0,1,1-.724.783c.372-.312.524-.538.382-.718a.859.859,0,0,0-.378-.2,1.071,1.071,0,0,1-.494-.274.444.444,0,0,1-.077-.354,8.943,8.943,0,0,1,1.441-2.5,4.761,4.761,0,0,0,.485-.746l0-.016s0-.007,0-.012a.1.1,0,0,0-.084-.1h-.015a.123.123,0,0,0-.046.01.669.669,0,0,0-.15.1c-.37.3-1.46,1.362-2.84,2.708-1.522,1.484-3.4,3.317-5.08,4.871-3.21,2.971-5.667,4.9-7.806,5.369a4.851,4.851,0,0,1-1.041.116,4.774,4.774,0,0,1-4.051-2.45c-1.142-1.824-1.6-4.484.951-7.194a36.666,36.666,0,0,1,6.531-4.791,60.206,60.206,0,0,0,5.159-3.527c.121-.1.233-.194.349-.291a.7.7,0,0,0,.676.309,6.754,6.754,0,0,0,3.5-1.651,31.2,31.2,0,0,0,2.728-2.546,20.815,20.815,0,0,1,1.583-1.508,1.432,1.432,0,0,1,.41-.25.23.23,0,0,1,.072-.013c.135,0,.189.2.232.626-.287.25-.577.5-.865.736-1.267,1.053-2.476,2.054-2.748,3.266a2.547,2.547,0,0,0-.061.565,4.418,4.418,0,0,0,3.962,4.062h.045a2.978,2.978,0,0,0,.4-.035,3.374,3.374,0,0,0,.75-.215c-.025.074-.052.147-.076.22-.328,1.008-.541,2.107.476,2.438l.013,0a4.879,4.879,0,0,0,1.349.123l.478,0c.183,0,.372,0,.571,0a12.273,12.273,0,0,1,6.494,1.545c3.894,2.271,8.07,7.855,9.5,13.534a31.889,31.889,0,0,1,.4,10.792,14.866,14.866,0,0,0-.123,2.228c.029.282.116.513.32.513.6,0,1.652-2.572,1.695-6.014a53.283,53.283,0,0,0-1.189-9.517c-.269-1.449-.508-2.736-.621-3.7a8.489,8.489,0,0,1,.048-2.773,3.322,3.322,0,0,0,.068-1.011,3.4,3.4,0,0,0-.181-.733c-.1-.278-.241-.608-.41-.97a.489.489,0,0,0,.147.026.321.321,0,0,0,.117-.021c.337-.129.3-.855.28-1.6a8.018,8.018,0,0,1,.222-2.655,5.849,5.849,0,0,1,2.034-2.479,6.909,6.909,0,0,0,.858-.79c.517-.626.359-1.185.164-1.892-.062-.224-.127-.465-.182-.734a7.934,7.934,0,0,1-.145-1.83c.023.175.047.35.081.518.266,1.3.938,2.432,1.269,2.432h0a.155.155,0,0,0,.119-.054.289.289,0,0,0,.058-.174,8.16,8.16,0,0,0-1.235-3.333.253.253,0,0,0-.164-.072h-.015a6.578,6.578,0,0,1,.585-3.292,1.982,1.982,0,0,1,.748-.668,3.2,3.2,0,0,0,1.2-1.16,4.936,4.936,0,0,0,.252-.46,9.83,9.83,0,0,0,.423-1.041c.023.473.183.664.537.685.028,0,.058,0,.087,0,.123,0,.266-.014.423-.029.213-.02.457-.044.739-.044a4.743,4.743,0,0,1,1.588.273c2.369.822,6.1,3.949,8.375,6.464,2.256,2.5,3.057,4.375,3.93,10.641.42,3,.855,7.009,1.274,10.873.326,3,.642,5.9.933,8.188a1.509,1.509,0,0,0-.525-.084,3.458,3.458,0,0,0-.379.024,12.727,12.727,0,0,0-1.541.326,12.815,12.815,0,0,1-1.558.329,4.812,4.812,0,0,1-.545.03c-.279,0-.527-.022-.75-.042-.178-.016-.343-.031-.493-.031a.871.871,0,0,0-.934.651,2.63,2.63,0,0,0-.1.335c-.02-.094-.04-.186-.061-.281-.227-1.054-.465-2.154-.685-3.27-.39-1.989-.718-4.026-1-5.771-.21-1.305-.393-2.448-.557-3.284q-.068-.346-.132-.619c-.094-.4-.182-.675-.248-.886-.043-.134-.077-.24-.1-.338-.093-.4-.016-.686.486-2.185l.147-.435a30.9,30.9,0,0,0,2.616-7.217.1.1,0,0,0,0-.017.1.1,0,0,0-.093-.081.11.11,0,0,0-.08.041c-.217.257-1.777,4.768-2.6,7.2a2.2,2.2,0,0,1-.222.284.533.533,0,0,1-.372.2c-.263,0-.5-.33-.749-.71-.189-.282-.409-.631-.67-.631-.227,0-.409.245-.589.717-.808,2.124-1.972,10.081-1.128,14.775a15.938,15.938,0,0,0,1.545,4.367,9.5,9.5,0,0,1,.907,2.351,3.806,3.806,0,0,1-.47,2.567c-1.706,3.241-7.955,8.3-8.943,8.412l-.025,0c-.036,0-.039,0-.039-.04a13.934,13.934,0,0,1,1.993-3.163,50.946,50.946,0,0,0,3.172-4.82c1.862-3.454,1.327-5.469-.728-9.715-.356-.737-.759-1.541-1.18-2.383-.465-.93-.954-1.905-1.43-2.891-.336-.694-.665-1.391-.976-2.079a4.481,4.481,0,0,0,1.316.34,9.993,9.993,0,0,0,1.39.114,2.727,2.727,0,0,0,2.453-1.014c.744-1.191.381-3.668.033-6.083a.087.087,0,1,0-.172.025c.354,2.453.692,4.843-.008,5.966a2.56,2.56,0,0,1-2.306.932,9.761,9.761,0,0,1-1.365-.112,3.588,3.588,0,0,1-1.457-.426c-.456-1.02-.867-2.015-1.194-2.941a14.482,14.482,0,0,1-.088-3.15c.142-1.283.571-1.645,1.852-1.645h.055c.532,0,1.2.069,1.874.134.693.068,1.392.135,1.939.135a3.2,3.2,0,0,0,.7-.061c.246-.058.426-.174.464-.355.094-.439-.707-.968-2.132-1.273a9.354,9.354,0,0,0-1.91-.208h-.081c-1.77.019-3.634.667-3.608,3.051a11.415,11.415,0,0,0,.767,3.413,9.63,9.63,0,0,0,.375,1.758,2.314,2.314,0,0,0,.847,1.249c.341.762.705,1.535,1.077,2.3.477.986.967,1.964,1.431,2.893.422.843.823,1.647,1.179,2.382,2.047,4.229,2.553,6.177.731,9.556a50.693,50.693,0,0,1-3.16,4.8,13.05,13.05,0,0,0-2.025,3.263.2.2,0,0,0,.213.213.345.345,0,0,0,.045,0c1.075-.123,7.361-5.244,9.077-8.5a3.979,3.979,0,0,0,.487-2.679,9.674,9.674,0,0,0-.921-2.395,15.8,15.8,0,0,1-1.53-4.322c-.838-4.661.323-12.587,1.12-14.683.189-.5.336-.6.426-.6.142,0,.3.22.525.553s.516.788.894.788a.659.659,0,0,0,.441-.206c-.495,1.474-.6,1.82-.49,2.275.025.106.061.219.1.352.068.21.153.476.245.872.042.178.085.384.13.613.163.833.346,1.971.556,3.278.281,1.745.609,3.785,1,5.777.219,1.119.458,2.221.686,3.273.052.24.1.474.152.708a4.689,4.689,0,0,0,.612,3.053,14.94,14.94,0,0,1,.272,2.629,4.365,4.365,0,0,1-.228,1.381,4.7,4.7,0,0,1-.691,1.227,3.741,3.741,0,0,0-.546.94,2.67,2.67,0,0,0-.112.45,8.664,8.664,0,0,0-.038,1.649,8.727,8.727,0,0,1-.039,1.66,5.015,5.015,0,0,1-.664,1.68,1.331,1.331,0,0,0-.245.589c.016.152.159.192.279.192a2.907,2.907,0,0,0,1.358-.583,2.527,2.527,0,0,0,1.186-2.221,4.024,4.024,0,0,0-.193-.933c.427.764,1.058,1.936,1.7,3.251.1.209.2.419.3.632.8,1.654,1.645,3.457,2.469,3.457a.63.63,0,0,0,.373-.128,1.227,1.227,0,0,0,.217-.218.849.849,0,0,0,.7.454c.408,0,.809-.355,1.1-.9a4.417,4.417,0,0,0,.341-.875.792.792,0,0,0,.191.035.571.571,0,0,0,.262-.06c.4-.2.595-.931.595-1.963a13.723,13.723,0,0,0-.36-2.881m-53.14-29.775a26.478,26.478,0,0,1-6.522,3.818c2.454-1.44,4.824-2.837,6.7-3.987-.06.056-.116.114-.177.169m3.513-2.564c-.449.354-1.234.878-2.248,1.515.228-.258.443-.51.634-.74.612-.73,1.011-1.195,1.292-1.195.1,0,.211.068.321.311.011.024.021.057.031.083-.011.008-.019.016-.03.025m.978,5.181.058-.058.014.01Zm.137-5.853c0-.005,0-.006.006-.01a7.4,7.4,0,0,1,.1,1.571,34.3,34.3,0,0,1-.225,4.046c-.049-.264-.106-.76-.176-1.378-.057-.5-.119-1.055-.194-1.6a9.836,9.836,0,0,1,.489-2.63m.312-4.134.085.022h-.082l0-.019Zm25.171-7.632s.018,0,.05.029a8.234,8.234,0,0,1,1.175,3.19.15.15,0,0,1-.013.064,4.037,4.037,0,0,1-1.092-2.291,7.365,7.365,0,0,1-.123-.991Zm3.6-8.738c.19-1.077.475-2.441.782-3.908.12-.57.241-1.154.362-1.742-.349,2.135-.737,4.079-1.144,5.65m-6.6-22.2a3.177,3.177,0,0,1,2.173-.7,7.589,7.589,0,0,1,3.177.786,5.672,5.672,0,0,1,3.209,4.131,18.4,18.4,0,0,1,.071,6.266c.1-2.633-.207-5.069-1.494-6.615a6.983,6.983,0,0,0-5.414-2.116,10.449,10.449,0,0,0-2.9.413,5.1,5.1,0,0,1,1.179-2.162m-2.578,2.892a8.267,8.267,0,0,1,1.127-.461c-.011.035-.024.071-.034.105-.252.777-.44,1.329-.709,1.429a.291.291,0,0,1-.1.016,2.048,2.048,0,0,1-.914-.509l-.158-.116a7.272,7.272,0,0,1,.784-.463m-8.4,6.429c.827-2.872,3.211-6.063,5.006-6.577a2.017,2.017,0,0,1,.558-.079,3.1,3.1,0,0,1,1.744.686c-2.325,1.671-3.444,4.507-3.993,7.707-.624,3.633-.525,7.775.918,10.6a7.347,7.347,0,0,0,6.422,4.161q.225,0,.451-.016a8.517,8.517,0,0,0,3.957-1.452,4.947,4.947,0,0,1-.222,1.7,4.7,4.7,0,0,1-3.751,2.914,4.651,4.651,0,0,1-.569.035,6.33,6.33,0,0,1-4.5-2.006,7.8,7.8,0,0,1-1.415-2.946,12.708,12.708,0,0,0-.526-1.468s0,0,0-.007a.712.712,0,0,0-.12-.222,10.078,10.078,0,0,0-1.556-2.117c-.23-.257-.445-.5-.627-.729a8.643,8.643,0,0,1-1.369-3.182c-.047-.157-.1-.322-.146-.494,0-.042,0-.082,0-.119,0-.21-.044-.385-.162-.449-.109-.413-.212-.86-.293-1.336a11.162,11.162,0,0,0,.054-3.607c-.016-.058-.037-.111-.055-.164.052-.275.115-.553.195-.835m3.615,12.762a3.007,3.007,0,0,0-1.337-.279,2.952,2.952,0,0,0-1.618.425,1.982,1.982,0,0,0-.23.184,3.961,3.961,0,0,0-.827,1.309,2.145,2.145,0,0,1-.33.59.163.163,0,0,1-.108.052h-.012c-.175-.024-.458-.583-.233-2.182.135-.943.443-2.212.729-3.4.236-.969.457-1.883.556-2.513.01.034.022.071.031.1a8.807,8.807,0,0,0,1.4,3.239c.187.238.405.482.635.738a11.232,11.232,0,0,1,1.344,1.732m-3.7-6.831a.823.823,0,0,0-.332.247c.013-.088.026-.171.04-.261.037-.246.073-.5.109-.765.057.271.12.531.184.779m-.184-4.67a10.329,10.329,0,0,1-.026,2.68,10.325,10.325,0,0,1,.026-2.68m-3.54,7.576a7.021,7.021,0,0,1-.382-2.2,4.832,4.832,0,0,1,.738-2.257,7.661,7.661,0,0,1-.2,1.53,9.546,9.546,0,0,0-.248,2.045,5.885,5.885,0,0,0,.093.885m-3.657,7.6a.006.006,0,0,1,0,0,.168.168,0,0,1-.054.1s-.007.006-.01.009c.021-.039.041-.077.062-.115m.078.22a.333.333,0,0,0,.1-.216.239.239,0,0,0-.081-.176,16.385,16.385,0,0,0,1.462-6.8c.032-.687.05-1.357.068-1.991.015-.57.029-1.11.053-1.607a6.626,6.626,0,0,1,.439-2.568.778.778,0,0,1,.685-.443,1.344,1.344,0,0,1,1.157,1.077,1.511,1.511,0,0,1,.02.154,5.348,5.348,0,0,0-.878,2.543,10.423,10.423,0,0,0,1.028,3.92l.062.137c.005.009.007.016.011.024l.027.063h0a.024.024,0,0,0,0,.007.1.1,0,0,0,.081.053.086.086,0,0,0,.087-.091.2.2,0,0,0-.006-.03v0h0a0,0,0,0,0,0,0c0-.007-.007-.017-.013-.032l-.016-.034a8.112,8.112,0,0,1-.622-2.688,9.48,9.48,0,0,1,.245-2.009,6.07,6.07,0,0,0,.176-1.817c.014-.026.029-.051.044-.076a6.176,6.176,0,0,0,.555-1.12,3.526,3.526,0,0,0,.085-1.482,2.018,2.018,0,0,1,.006-.741.466.466,0,0,1,.053-.113.549.549,0,0,1,.456-.226c.333,0,.766.285.8,1.233a13.724,13.724,0,0,1-.434,2.951l-.047.128a12.113,12.113,0,0,0-.681,2.292,4.474,4.474,0,0,0-.041.794,4.776,4.776,0,0,0,.055.555c-.053.984.156,1.48.327,1.566a.177.177,0,0,0,.049.015h.016a.126.126,0,0,0,.12-.091.234.234,0,0,0,.012-.076v-.013a1.986,1.986,0,0,0-.1-.415,6.882,6.882,0,0,1-.244-1c.007-.134.02-.277.039-.433.085-.692.288-1.593.5-2.529.055-.248.112-.5.167-.749a10.313,10.313,0,0,0,.572-1.928l.009-.067a3.561,3.561,0,0,0-.275-1.782,1.3,1.3,0,0,1-.127-.489.132.132,0,0,1,.006-.029c.022-.074.106-.139.252-.139.226,0,.564.174.762.681a10.648,10.648,0,0,0,0,3.764c-.055.436-.117.871-.178,1.283-.029.2-.058.39-.088.576a4.251,4.251,0,0,0-.4.763,4.033,4.033,0,0,0-.273,1.4.9.9,0,0,0,.083.466.123.123,0,0,0,.189.015s0,0,0,0a2.383,2.383,0,0,0,.262-.829c.094-.453.2-1.056.3-1.745a1.171,1.171,0,0,1,.429-.435q.061.224.122.433a23.655,23.655,0,0,1-.6,2.891c-.287,1.182-.6,2.46-.732,3.414-.215,1.515,0,2.325.379,2.378a.235.235,0,0,0,.038,0,.329.329,0,0,0,.225-.1,2.19,2.19,0,0,0,.369-.645,3.8,3.8,0,0,1,.787-1.252,1.652,1.652,0,0,1,.211-.168,3.151,3.151,0,0,1,2.826-.114.868.868,0,0,1,.229.191c.033.066.072.125.1.193a.72.72,0,0,1-.1.586,1.5,1.5,0,0,1-.33.382,4.585,4.585,0,0,1-.793.486,5.531,5.531,0,0,0-1.007.629,2.639,2.639,0,0,0-.248.236,3.536,3.536,0,0,0-.382.514,3.152,3.152,0,0,0-.568,1,6.909,6.909,0,0,1-.842,1.207,12.556,12.556,0,0,1-3.343,2.424c-.521.269-.92.43-1.266.571-.264.106-.5.2-.737.323-.051.027-.1.054-.155.085a4.175,4.175,0,0,0-.9.687c-.219-.093-.447-.18-.677-.263a4.236,4.236,0,0,1-1.735-.927,3.363,3.363,0,0,1-.576-1.968c-.005-.059-.01-.117-.014-.175a12.162,12.162,0,0,0,1.6-1.638c.138-.177.264-.361.385-.548a1.657,1.657,0,0,0,.378-.28m5.3-10.569c-.091.414-.174.814-.239,1.179.008-.089.012-.177.026-.269a6.47,6.47,0,0,1,.213-.91m-.158,3.139c.014.045.028.095.041.135.035.115.058.2.075.263a1.539,1.539,0,0,1-.116-.4m.954-6.044c.066-.382.115-.738.139-1.059a2.777,2.777,0,0,1-.017.46c0,.022-.005.043-.008.065a4.735,4.735,0,0,1-.114.534m.578,3.759a13.179,13.179,0,0,1-.4,1.965,1.473,1.473,0,0,1-.022-.275,3.833,3.833,0,0,1,.263-1.334,3.7,3.7,0,0,1,.162-.356m2.61,8.926a.678.678,0,0,1,.561.365c.005.007.009.016.014.023a9.868,9.868,0,0,1,.767,2.7,11.941,11.941,0,0,0,1.059,3.531,2.559,2.559,0,0,0,.332.425,2.488,2.488,0,0,0,1.283.672,7.02,7.02,0,0,0-1.009,1.287,6.85,6.85,0,0,0-.684,1.632c-.127.416-.181.53-.229.53a.051.051,0,0,1-.019,0,10.953,10.953,0,0,1-1.843-3.112c-.86-1.751-1.857-3.926-1.708-5.685a3.892,3.892,0,0,1,.214-.987c.076-.134.148-.265.218-.391.118-.214.228-.413.343-.6a1.018,1.018,0,0,1,.7-.394m-8.6,6.8a2.248,2.248,0,0,1,.77.5.925.925,0,0,1,.231.479c.149.938-.984,2.665-2.457,3.451.012-.032.022-.065.033-.1.079-.221.157-.438.225-.645a11.453,11.453,0,0,0,.413-1.8,5.038,5.038,0,0,1,.256-1.093,2.711,2.711,0,0,1,.528-.794m-6.4-4.772a6.91,6.91,0,0,1,.747-.527,8.387,8.387,0,0,1,4-1.139,2.164,2.164,0,0,1,.744.1c-.1.172-.2.339-.307.5a29.474,29.474,0,0,1-2.83,1.228c-1.43.573-3.077,1.234-4.415,1.933a16.571,16.571,0,0,1,2.058-2.094m-2.839,2.73a29.115,29.115,0,0,1-3.08,3.139c.05-.629,1-1.888,3.08-3.139m5.774-2.371a.424.424,0,0,0-.122.019,1.588,1.588,0,0,0-.467.281,20.781,20.781,0,0,0-1.6,1.522,31.333,31.333,0,0,1-2.713,2.531,6.613,6.613,0,0,1-3.392,1.614c-.289,0-.456-.085-.523-.216a.382.382,0,0,1-.011-.038,31.1,31.1,0,0,0,3.512-3.608c.05-.027.1-.055.147-.082a47.033,47.033,0,0,1,4.655-2.059c1.017-.408,1.938-.776,2.561-1.088-.058.081-.106.169-.168.249a11.714,11.714,0,0,1-1.486,1.531c-.04-.353-.124-.656-.393-.656m.934,9.22a2.641,2.641,0,0,1-.373.033h-.042a4.246,4.246,0,0,1-3.789-3.888,2.385,2.385,0,0,1,.057-.526c.256-1.142,1.4-2.1,2.689-3.171.256-.213.516-.431.773-.654,0,.016,0,.029,0,.045a3.521,3.521,0,0,0,.619,2.07,4.4,4.4,0,0,0,1.807.975c.214.077.417.154.612.235a2.842,2.842,0,0,0-.514.8,5.205,5.205,0,0,0-.267,1.13,11.144,11.144,0,0,1-.407,1.779c-.066.2-.143.417-.222.64-.031.086-.061.173-.091.26a3.266,3.266,0,0,1-.857.27m19.835,7.658a2.717,2.717,0,0,1,.105,1.656,8.629,8.629,0,0,0-.049,2.822c.114.975.354,2.267.622,3.715a53.051,53.051,0,0,1,1.187,9.482c-.045,3.534-1.132,5.843-1.521,5.843-.031,0-.114-.046-.146-.358a14.812,14.812,0,0,1,.123-2.193,32.023,32.023,0,0,0-.4-10.85c-1.441-5.719-5.643-11.346-9.582-13.643A12.44,12.44,0,0,0,1647.27,484c-.2,0-.39,0-.572,0l-.477,0a4.742,4.742,0,0,1-1.3-.115l-.011,0c-.829-.269-.709-1.157-.364-2.217.041-.125.087-.25.131-.377,1.6-.772,2.878-2.64,2.709-3.708a1.1,1.1,0,0,0-.272-.567,2.331,2.331,0,0,0-.776-.524,3.97,3.97,0,0,1,.808-.61c.05-.028.1-.054.149-.08.228-.117.456-.21.721-.317a13.921,13.921,0,0,0,1.281-.577,12.732,12.732,0,0,0,3.394-2.463,6.069,6.069,0,0,0,.539-.713,4.085,4.085,0,0,0-.066.454c-.153,1.816.869,4.036,1.724,5.776.844,1.717,1.568,3.068,1.942,3.2a.236.236,0,0,0,.076.014c.216,0,.3-.34.4-.653a6.225,6.225,0,0,1,1.733-2.931c.188.031.368.051.534.069a1.454,1.454,0,0,1,.812.212.372.372,0,0,1,.093.184,3.121,3.121,0,0,1-.043.94,8.306,8.306,0,0,0,.079,3.114c0,.012.007.026.01.039a10.488,10.488,0,0,0,.165,1.549,7.232,7.232,0,0,0,2.331,4.242,12.363,12.363,0,0,1,.5,1.156m-3.011-11.345a1.576,1.576,0,0,0-.918-.263c-.124-.013-.255-.028-.387-.047a1.84,1.84,0,0,1,1-.553.33.33,0,0,1,.318.216,2.362,2.362,0,0,1,.123.9.54.54,0,0,0-.134-.255m.1,1.254c-.007.14-.015.283-.024.433-.027.47-.055.979-.069,1.5a9.627,9.627,0,0,1,.091-1.924.051.051,0,0,1,0-.014m.148,3.947c.022.065.039.127.063.193a34,34,0,0,0,1.643,3.655c.138.277.267.539.391.793a7.626,7.626,0,0,1-1.995-3.928c-.045-.234-.076-.473-.1-.714m8.761-13.194c-.082.167-.163.314-.243.445a3.034,3.034,0,0,1-1.148,1.1,2.155,2.155,0,0,0-.806.724,6.842,6.842,0,0,0-.6,3.516,5.191,5.191,0,0,0,.024,2.416c.055.274.123.521.185.745.2.715.323,1.186-.131,1.735a6.619,6.619,0,0,1-.834.766,6.026,6.026,0,0,0-2.089,2.559,8.2,8.2,0,0,0-.232,2.715c.024.848.02,1.357-.168,1.428a.161.161,0,0,1-.054.008.545.545,0,0,1-.261-.093c-.165-.345-.347-.714-.541-1.1a34.02,34.02,0,0,1-1.634-3.635,9.979,9.979,0,0,1-.288-.965c-.037-.923.016-1.853.063-2.674a6.655,6.655,0,0,0-.082-2.418.5.5,0,0,0-.476-.315,2.134,2.134,0,0,0-1.22.69,2.358,2.358,0,0,1-1.307-.645,2.392,2.392,0,0,1-.309-.395,11.86,11.86,0,0,1-1.036-3.474,9.947,9.947,0,0,0-.79-2.762.2.2,0,0,0-.017-.026.766.766,0,0,0-1.053-.356c.005-.006.01-.015.016-.02a2.434,2.434,0,0,1,.232-.22,5.342,5.342,0,0,1,.977-.609,4.706,4.706,0,0,0,.823-.507,1.658,1.658,0,0,0,.368-.427,1.116,1.116,0,0,0,.111-.262c.127.334.245.68.36,1.047a8,8,0,0,0,1.45,3.008,6.5,6.5,0,0,0,4.631,2.064,4.8,4.8,0,0,0,.59-.035,4.874,4.874,0,0,0,3.894-3.029,5.318,5.318,0,0,0,.231-1.876,5.249,5.249,0,0,0,1.509-1.465c.2-.368.146-.651-.1-.788a.744.744,0,0,0-.358-.081,1.245,1.245,0,0,0-1.025.554,2.925,2.925,0,0,0-.2,1.524c0,.054,0,.112,0,.167a8.365,8.365,0,0,1-3.966,1.487c-.146.011-.292.017-.438.017a7.174,7.174,0,0,1-6.267-4.068c-1.417-2.778-1.523-6.876-.9-10.493.551-3.208,1.67-6,3.973-7.629l.208.153a2.143,2.143,0,0,0,1.018.544.439.439,0,0,0,.155-.027c.37-.137.581-.819.814-1.537.024-.074.049-.149.073-.224a10.245,10.245,0,0,1,2.969-.442,6.812,6.812,0,0,1,5.28,2.053c1.653,1.984,1.656,5.511,1.25,9.052-.288,1.655-.674,3.505-1.036,5.231-.32,1.528-.619,2.955-.808,4.055-.08.463-.14.868-.174,1.2a11.87,11.87,0,0,1-.605,1.6m-1.2-2.567a1.073,1.073,0,0,1,.877-.471.573.573,0,0,1,.275.059c.128.071.212.229.033.552a4.934,4.934,0,0,1-1.361,1.338c0-.016,0-.033,0-.049a2.8,2.8,0,0,1,.177-1.43m12.975,16.632a39.359,39.359,0,0,1-1.97,5.566c.651-1.906,1.516-4.39,1.97-5.566m-13.915,9.708a9.61,9.61,0,0,1-.508-2.608c-.023-2.23,1.691-2.857,3.437-2.875h.079a9.179,9.179,0,0,1,1.874.2c1.5.32,2.05.828,2,1.068-.017.076-.1.166-.334.221a3,3,0,0,1-.66.056c-.536,0-1.226-.067-1.922-.135-.671-.065-1.348-.13-1.889-.135h-.057c-1.366,0-1.872.424-2.024,1.8a13.384,13.384,0,0,0,.005,2.4m.625,2.511a7.011,7.011,0,0,1-.212-.822c.22.57.465,1.156.729,1.752a2.479,2.479,0,0,1-.517-.93m20.973,15.272a1.367,1.367,0,0,0-.6-.213,2.209,2.209,0,0,0-.256-.014l-.053,0a24,24,0,0,1,.274-2.446c.006-.043.013-.082.019-.125a18.949,18.949,0,0,0,.62,2.794m-.639-4.072c-.005-.041-.011-.078-.017-.12-.04-.281-.079-.58-.12-.888a1.716,1.716,0,0,1,.137,1.008m-7.123,1.252c.142.668.271,1.3.382,1.9a4.641,4.641,0,0,1-.382-1.9m.037-.662a3.281,3.281,0,0,1,.162-.72.7.7,0,0,1,.772-.537c.14,0,.3.014.477.03.223.02.479.043.766.043a4.941,4.941,0,0,0,.565-.031,13.14,13.14,0,0,0,1.581-.333,12.491,12.491,0,0,1,1.519-.322,3.157,3.157,0,0,1,.359-.023,1.155,1.155,0,0,1,.551.113c.049.383.1.751.146,1.094.039.281.077.541.115.792-.028.213-.062.437-.1.68a24.273,24.273,0,0,0-.277,2.481,13.96,13.96,0,0,0-1.588.239,14.213,14.213,0,0,1-2.487.321,2.948,2.948,0,0,1-1.266-.232,1.841,1.841,0,0,1-.695-.592c-.159-.915-.37-1.929-.6-3m5.37,16.739a8.357,8.357,0,0,0-.473-1.59,1.5,1.5,0,0,0-.533-.6c-.08-.057-.113-.082-.124-.106s-.02-.068.176-.294c.381-.441,1.319-1.305,1.926-1.305a.476.476,0,0,1,.47.384,4.139,4.139,0,0,1,.067,1.568.742.742,0,0,0-.443.769,1.707,1.707,0,0,0,.218.63,7.784,7.784,0,0,1-.788,2.2,9.5,9.5,0,0,1-.495-1.657m1.484-1.723c-.035.29-.083.591-.143.892a1.246,1.246,0,0,1-.1-.362.561.561,0,0,1,.246-.53m.635,3.178c-.286.531-.643.809-.95.809a.705.705,0,0,1-.588-.422s0,0,0,0a7.123,7.123,0,0,0,.832-2.177,2.614,2.614,0,0,0,1.038.947,4.23,4.23,0,0,1-.331.846m.374-1.016a2.613,2.613,0,0,1-1.026-1.015,12.129,12.129,0,0,0,.2-1.236.7.7,0,0,1,.139-.037l.062,0a.673.673,0,0,1,.58.32,2.931,2.931,0,0,1,.043,1.97m.5.045a.411.411,0,0,1-.184.041.652.652,0,0,1-.147-.029,3.074,3.074,0,0,0-.061-2.118.845.845,0,0,0-.727-.4c-.025,0-.051,0-.076,0a.907.907,0,0,0-.107.019,4.224,4.224,0,0,0-.079-1.57.649.649,0,0,0-.635-.5c-.7,0-1.688.939-2.057,1.366-.172.2-.269.347-.2.486a.538.538,0,0,0,.179.17,1.323,1.323,0,0,1,.478.539,8.244,8.244,0,0,1,.459,1.552,8.733,8.733,0,0,0,.549,1.78,1.19,1.19,0,0,1-.229.242.456.456,0,0,1-.27.095c-.683,0-1.477-1.618-2.313-3.359-.1-.211-.2-.424-.3-.631-1.032-2.117-2.039-3.867-2.216-4.148-.01-.016-.019-.029-.026-.039a.1.1,0,0,0-.077-.043.086.086,0,0,0-.087.088.092.092,0,0,0,.005.032c.006.021.026.065.049.118.065.149.183.423.291.742a4.2,4.2,0,0,1,.224,1.018,2.354,2.354,0,0,1-1.114,2.067,2.762,2.762,0,0,1-1.257.551c-.1,0-.106-.03-.106-.035a1.362,1.362,0,0,1,.223-.485,5.175,5.175,0,0,0,.685-1.738,8.9,8.9,0,0,0,.04-1.694,8.615,8.615,0,0,1,.036-1.614,2.531,2.531,0,0,1,.1-.421,3.58,3.58,0,0,1,.523-.9,4.876,4.876,0,0,0,.714-1.271,4.534,4.534,0,0,0,.238-1.435,13.933,13.933,0,0,0-.228-2.365,1.959,1.959,0,0,0,.566.415,3.138,3.138,0,0,0,1.341.247,14.3,14.3,0,0,0,2.519-.324,14.158,14.158,0,0,1,1.549-.235c-.01.284-.014.572,0,.864a24.9,24.9,0,0,0,1.177,5.677c.261.9.512,1.776.694,2.589.558,2.512.421,4.364-.144,4.652" transform="translate(-1523.413 -417.397)" fill="#18224c"/>
    <path id="Path_48368" data-name="Path 48368" d="M2308.4,499.41c-.012.036-.024.071-.034.105-.252.777-.441,1.329-.709,1.429a.292.292,0,0,1-.1.016,2.05,2.05,0,0,1-.915-.509l-.157-.116a7.278,7.278,0,0,1,.784-.463,8.259,8.259,0,0,1,1.127-.461" transform="translate(-2169.377 -469.728)" fill="#18224c"/>
    <path id="Path_48369" data-name="Path 48369" d="M2190.406,525.033a4.959,4.959,0,0,1-.223,1.7,4.632,4.632,0,0,1-4.32,2.949,6.33,6.33,0,0,1-4.5-2.006,7.8,7.8,0,0,1-1.415-2.946,12.627,12.627,0,0,0-.526-1.468s0,0,0-.007a.706.706,0,0,0-.12-.222,10.061,10.061,0,0,0-1.556-2.117c-.229-.257-.444-.5-.627-.729a8.638,8.638,0,0,1-1.369-3.182c-.047-.157-.1-.323-.146-.494,0-.042,0-.082,0-.119,0-.21-.044-.385-.162-.449-.108-.413-.212-.86-.293-1.336A11.159,11.159,0,0,0,2175.2,511c-.016-.058-.037-.111-.055-.164.052-.276.115-.553.195-.835.827-2.872,3.211-6.063,5.006-6.577a2.017,2.017,0,0,1,.558-.079,3.1,3.1,0,0,1,1.744.686c-2.325,1.671-3.444,4.507-3.993,7.707-.624,3.632-.525,7.775.919,10.6A7.347,7.347,0,0,0,2186,526.5c.151,0,.3-.005.451-.016a8.518,8.518,0,0,0,3.957-1.452" transform="translate(-2045.842 -473.428)" fill="#18224c"/>
    <path id="Path_48370" data-name="Path 48370" d="M2353.012,457.87c.1-2.633-.207-5.069-1.494-6.615a6.983,6.983,0,0,0-5.414-2.116,10.45,10.45,0,0,0-2.9.413,5.1,5.1,0,0,1,1.179-2.162,3.177,3.177,0,0,1,2.173-.7,7.588,7.588,0,0,1,3.177.786,5.673,5.673,0,0,1,3.209,4.131,18.407,18.407,0,0,1,.071,6.266" transform="translate(-2203.907 -420.138)" fill="#18224c"/>
  </g>
</svg>
