<svg xmlns="http://www.w3.org/2000/svg" width="17.652" height="17.444" viewBox="0 0 17.652 17.444">
  <g id="settings_1_" data-name="settings (1)" transform="translate(1 1)">
    <circle id="Ellipse_440" data-name="Ellipse 440" cx="2" cy="2" r="2" transform="translate(6.159 6.027)" fill="none" stroke="#1e1e1e" stroke-linecap="round" stroke-linejoin="round" stroke-width="2"/>
    <path id="Path_48655" data-name="Path 48655" d="M14.091,10.828a1.147,1.147,0,0,0,.235,1.278l.043.042a1.391,1.391,0,0,1,0,1.987,1.436,1.436,0,0,1-2.013,0l-.043-.042a1.186,1.186,0,0,0-1.295-.232,1.158,1.158,0,0,0-.711,1.06v.119a1.423,1.423,0,0,1-2.846,0v-.063a1.16,1.16,0,0,0-.768-1.06,1.186,1.186,0,0,0-1.295.232l-.043.042a1.436,1.436,0,0,1-2.013,0,1.391,1.391,0,0,1,0-1.987l.043-.042a1.147,1.147,0,0,0,.235-1.278,1.174,1.174,0,0,0-1.074-.7H2.423a1.4,1.4,0,1,1,0-2.808h.064a1.173,1.173,0,0,0,1.074-.758,1.147,1.147,0,0,0-.235-1.278L3.284,5.3a1.391,1.391,0,0,1,0-1.987,1.436,1.436,0,0,1,2.013,0l.043.042a1.186,1.186,0,0,0,1.295.232h.057A1.158,1.158,0,0,0,7.4,2.523V2.4a1.423,1.423,0,0,1,2.846,0v.063a1.158,1.158,0,0,0,.711,1.06A1.186,1.186,0,0,0,12.255,3.3l.043-.042a1.436,1.436,0,0,1,2.013,0,1.391,1.391,0,0,1,0,1.987l-.043.042a1.147,1.147,0,0,0-.235,1.278v.056a1.174,1.174,0,0,0,1.074.7h.121a1.4,1.4,0,1,1,0,2.808h-.064A1.174,1.174,0,0,0,14.091,10.828Z" transform="translate(-1 -1)" fill="none" stroke="#1e1e1e" stroke-linecap="round" stroke-linejoin="round" stroke-width="2"/>
  </g>
</svg>
